<svg version="1.1" xmlns="http://www.w3.org/2000/svg" xmlns:xlink="http://www.w3.org/1999/xlink" width="1277" height="122"><defs/><g><text fill="#eeeeee" stroke="none" font-family="Arial" font-size="24px" font-style="normal" font-weight="normal" text-decoration="none" x="0" y="0">UNREGISTERED</text><text fill="#eeeeee" stroke="none" font-family="Arial" font-size="24px" font-style="normal" font-weight="normal" text-decoration="none" x="0" y="30">UNREGISTERED</text><text fill="#eeeeee" stroke="none" font-family="Arial" font-size="24px" font-style="normal" font-weight="normal" text-decoration="none" x="0" y="60">UNREGISTERED</text><text fill="#eeeeee" stroke="none" font-family="Arial" font-size="24px" font-style="normal" font-weight="normal" text-decoration="none" x="0" y="90">UNREGISTERED</text><text fill="#eeeeee" stroke="none" font-family="Arial" font-size="24px" font-style="normal" font-weight="normal" text-decoration="none" x="0" y="120">UNREGISTERED</text><text fill="#eeeeee" stroke="none" font-family="Arial" font-size="24px" font-style="normal" font-weight="normal" text-decoration="none" x="200" y="0">UNREGISTERED</text><text fill="#eeeeee" stroke="none" font-family="Arial" font-size="24px" font-style="normal" font-weight="normal" text-decoration="none" x="200" y="30">UNREGISTERED</text><text fill="#eeeeee" stroke="none" font-family="Arial" font-size="24px" font-style="normal" font-weight="normal" text-decoration="none" x="200" y="60">UNREGISTERED</text><text fill="#eeeeee" stroke="none" font-family="Arial" font-size="24px" font-style="normal" font-weight="normal" text-decoration="none" x="200" y="90">UNREGISTERED</text><text fill="#eeeeee" stroke="none" font-family="Arial" font-size="24px" font-style="normal" font-weight="normal" text-decoration="none" x="200" y="120">UNREGISTERED</text><text fill="#eeeeee" stroke="none" font-family="Arial" font-size="24px" font-style="normal" font-weight="normal" text-decoration="none" x="400" y="0">UNREGISTERED</text><text fill="#eeeeee" stroke="none" font-family="Arial" font-size="24px" font-style="normal" font-weight="normal" text-decoration="none" x="400" y="30">UNREGISTERED</text><text fill="#eeeeee" stroke="none" font-family="Arial" font-size="24px" font-style="normal" font-weight="normal" text-decoration="none" x="400" y="60">UNREGISTERED</text><text fill="#eeeeee" stroke="none" font-family="Arial" font-size="24px" font-style="normal" font-weight="normal" text-decoration="none" x="400" y="90">UNREGISTERED</text><text fill="#eeeeee" stroke="none" font-family="Arial" font-size="24px" font-style="normal" font-weight="normal" text-decoration="none" x="400" y="120">UNREGISTERED</text><text fill="#eeeeee" stroke="none" font-family="Arial" font-size="24px" font-style="normal" font-weight="normal" text-decoration="none" x="600" y="0">UNREGISTERED</text><text fill="#eeeeee" stroke="none" font-family="Arial" font-size="24px" font-style="normal" font-weight="normal" text-decoration="none" x="600" y="30">UNREGISTERED</text><text fill="#eeeeee" stroke="none" font-family="Arial" font-size="24px" font-style="normal" font-weight="normal" text-decoration="none" x="600" y="60">UNREGISTERED</text><text fill="#eeeeee" stroke="none" font-family="Arial" font-size="24px" font-style="normal" font-weight="normal" text-decoration="none" x="600" y="90">UNREGISTERED</text><text fill="#eeeeee" stroke="none" font-family="Arial" font-size="24px" font-style="normal" font-weight="normal" text-decoration="none" x="600" y="120">UNREGISTERED</text><text fill="#eeeeee" stroke="none" font-family="Arial" font-size="24px" font-style="normal" font-weight="normal" text-decoration="none" x="800" y="0">UNREGISTERED</text><text fill="#eeeeee" stroke="none" font-family="Arial" font-size="24px" font-style="normal" font-weight="normal" text-decoration="none" x="800" y="30">UNREGISTERED</text><text fill="#eeeeee" stroke="none" font-family="Arial" font-size="24px" font-style="normal" font-weight="normal" text-decoration="none" x="800" y="60">UNREGISTERED</text><text fill="#eeeeee" stroke="none" font-family="Arial" font-size="24px" font-style="normal" font-weight="normal" text-decoration="none" x="800" y="90">UNREGISTERED</text><text fill="#eeeeee" stroke="none" font-family="Arial" font-size="24px" font-style="normal" font-weight="normal" text-decoration="none" x="800" y="120">UNREGISTERED</text><text fill="#eeeeee" stroke="none" font-family="Arial" font-size="24px" font-style="normal" font-weight="normal" text-decoration="none" x="1000" y="0">UNREGISTERED</text><text fill="#eeeeee" stroke="none" font-family="Arial" font-size="24px" font-style="normal" font-weight="normal" text-decoration="none" x="1000" y="30">UNREGISTERED</text><text fill="#eeeeee" stroke="none" font-family="Arial" font-size="24px" font-style="normal" font-weight="normal" text-decoration="none" x="1000" y="60">UNREGISTERED</text><text fill="#eeeeee" stroke="none" font-family="Arial" font-size="24px" font-style="normal" font-weight="normal" text-decoration="none" x="1000" y="90">UNREGISTERED</text><text fill="#eeeeee" stroke="none" font-family="Arial" font-size="24px" font-style="normal" font-weight="normal" text-decoration="none" x="1000" y="120">UNREGISTERED</text><text fill="#eeeeee" stroke="none" font-family="Arial" font-size="24px" font-style="normal" font-weight="normal" text-decoration="none" x="1200" y="0">UNREGISTERED</text><text fill="#eeeeee" stroke="none" font-family="Arial" font-size="24px" font-style="normal" font-weight="normal" text-decoration="none" x="1200" y="30">UNREGISTERED</text><text fill="#eeeeee" stroke="none" font-family="Arial" font-size="24px" font-style="normal" font-weight="normal" text-decoration="none" x="1200" y="60">UNREGISTERED</text><text fill="#eeeeee" stroke="none" font-family="Arial" font-size="24px" font-style="normal" font-weight="normal" text-decoration="none" x="1200" y="90">UNREGISTERED</text><text fill="#eeeeee" stroke="none" font-family="Arial" font-size="24px" font-style="normal" font-weight="normal" text-decoration="none" x="1200" y="120">UNREGISTERED</text><g transform="translate(-78,-449) scale(1,1)"><path fill="#C0C0C0" stroke="none" d="M 95 488.5 C 95 483.2532944 99.2532944 479 104.5 479 C 109.7467056 479 114 483.2532944 114 488.5 C 114 493.7467056 109.7467056 498 104.5 498 C 99.2532944 498 95 493.7467056 95 488.5 Z" opacity="0.2"/></g><g transform="translate(-78,-449) scale(1,1)"><path fill="#000000" stroke="none" d="M 88 481.5 C 88 476.2532944 92.2532944 472 97.5 472 C 102.7467056 472 107 476.2532944 107 481.5 C 107 486.7467056 102.7467056 491 97.5 491 C 92.2532944 491 88 486.7467056 88 481.5 Z"/></g><g transform="translate(-78,-449) scale(1,1)"><path fill="#C0C0C0" stroke="none" d="M 457 471 L 590 471 Q 600 471 600 481 L 600 500 Q 600 510 590 510 L 457 510 Q 447 510 447 500 L 447 481 Q 447 471 457 471 Z" opacity="0.2"/></g><g transform="translate(-78,-449) scale(1,1)"><path fill="#ffffff" stroke="none" d="M 450 464 L 583 464 Q 593 464 593 474 L 593 493 Q 593 503 583 503 L 450 503 Q 440 503 440 493 L 440 474 Q 440 464 450 464 Z"/></g><g transform="translate(-78,-449) scale(1,1)"><path fill="none" stroke="#000000" d="M 450 464 L 583 464 Q 593 464 593 474 L 593 493 Q 593 503 583 503 L 450 503 Q 440 503 440 493 L 440 474 Q 440 464 450 464 Z" stroke-miterlimit="10"/></g><g transform="translate(-78,-449) scale(1,1)"><g><path fill="none" stroke="none"/><text fill="#000000" stroke="none" font-family="Arial" font-size="13px" font-style="normal" font-weight="bold" text-decoration="none" x="444.5" y="482">Ativar Ordem a gatilho</text></g></g><g transform="translate(-78,-449) scale(1,1)"><path fill="#C0C0C0" stroke="none" d="M 921 471 L 1034 471 Q 1044 471 1044 481 L 1044 500 Q 1044 510 1034 510 L 921 510 Q 911 510 911 500 L 911 481 Q 911 471 921 471 Z" opacity="0.2"/></g><g transform="translate(-78,-449) scale(1,1)"><path fill="#ffffff" stroke="none" d="M 914 464 L 1027 464 Q 1037 464 1037 474 L 1037 493 Q 1037 503 1027 503 L 914 503 Q 904 503 904 493 L 904 474 Q 904 464 914 464 Z"/></g><g transform="translate(-78,-449) scale(1,1)"><path fill="none" stroke="#000000" d="M 914 464 L 1027 464 Q 1037 464 1037 474 L 1037 493 Q 1037 503 1027 503 L 914 503 Q 904 503 904 493 L 904 474 Q 904 464 914 464 Z" stroke-miterlimit="10"/></g><g transform="translate(-78,-449) scale(1,1)"><g><path fill="none" stroke="none"/><text fill="#000000" stroke="none" font-family="Arial" font-size="13px" font-style="normal" font-weight="bold" text-decoration="none" x="908.5" y="482">Valida a solicitação</text></g></g><g transform="translate(-78,-449) scale(1,1)"><path fill="none" stroke="#000000" d="M 107 482 L 440 482" stroke-miterlimit="10"/></g><g transform="translate(-78,-449) scale(1,1)"><path fill="none" stroke="#000000" d="M 429.83732514237585 486.209517756016 L 440 482 L 429.83732514237585 477.790482243984" stroke-miterlimit="10"/></g><g transform="translate(-78,-449) scale(1,1)"><g><path fill="none" stroke="none"/><text fill="#000000" stroke="none" font-family="Arial" font-size="13px" font-style="normal" font-weight="normal" text-decoration="none" x="130.5" y="472"> [Recebe solicitação para ativar Ordem  a gatilho]</text></g></g><g transform="translate(-78,-449) scale(1,1)"><path fill="none" stroke="#000000" d="M 593 480 L 904 480" stroke-miterlimit="10"/></g><g transform="translate(-78,-449) scale(1,1)"><path fill="none" stroke="#000000" d="M 893.8373251423759 484.209517756016 L 904 480 L 893.8373251423758 475.790482243984" stroke-miterlimit="10"/></g><g transform="translate(-78,-449) scale(1,1)"><g><path fill="none" stroke="none"/><text fill="#000000" stroke="none" font-family="Arial" font-size="13px" font-style="normal" font-weight="normal" text-decoration="none" x="649.5" y="470"> [Envia Solicitação para validação]</text></g></g><g transform="translate(-78,-449) scale(1,1)"><path fill="#C0C0C0" stroke="none" d="M 1327 491.5 C 1327 484.59644 1332.59644 479 1339.5 479 C 1346.40356 479 1352 484.59644 1352 491.5 C 1352 498.40356 1346.40356 504 1339.5 504 C 1332.59644 504 1327 498.40356 1327 491.5 Z" opacity="0.2"/></g><g transform="translate(-78,-449) scale(1,1)"><path fill="none" stroke="#000000" d="M 1320 484.5 C 1320 477.59644 1325.59644 472 1332.5 472 C 1339.40356 472 1345 477.59644 1345 484.5 C 1345 491.40356 1339.40356 497 1332.5 497 C 1325.59644 497 1320 491.40356 1320 484.5 Z" stroke-miterlimit="10"/></g><g transform="translate(-78,-449) scale(1,1)"><path fill="#000000" stroke="none" d="M 1325 484.5 C 1325 480.357864 1328.357864 477 1332.5 477 C 1336.642136 477 1340 480.357864 1340 484.5 C 1340 488.642136 1336.642136 492 1332.5 492 C 1328.357864 492 1325 488.642136 1325 484.5 Z"/></g><g transform="translate(-78,-449) scale(1,1)"><path fill="none" stroke="#000000" d="M 1037 484 L 1320 484" stroke-miterlimit="10"/></g><g transform="translate(-78,-449) scale(1,1)"><path fill="none" stroke="#000000" d="M 1309.837325142376 488.209517756016 L 1320 484 L 1309.837325142376 479.790482243984" stroke-miterlimit="10"/></g><g transform="translate(-78,-449) scale(1,1)"><g><path fill="none" stroke="none"/><text fill="#000000" stroke="none" font-family="Arial" font-size="13px" font-style="normal" font-weight="normal" text-decoration="none" x="1064.5" y="474"> [Solicitação aprovada e ordem ativada]</text></g></g><g transform="translate(-78,-449) scale(1,1)"><path fill="none" stroke="#000000" d="M 928 503 L 928 560 L 552 560 L 552 503" stroke-miterlimit="10"/></g><g transform="translate(-78,-449) scale(1,1)"><path fill="none" stroke="#000000" d="M 556.209517756016 513.1626748576241 L 552 503 L 547.790482243984 513.1626748576241" stroke-miterlimit="10"/></g><g transform="translate(-78,-449) scale(1,1)"><g><path fill="none" stroke="none"/><text fill="#000000" stroke="none" font-family="Arial" font-size="13px" font-style="normal" font-weight="normal" text-decoration="none" x="599.5" y="554"> [Solicitação nao aprovada e ordem não ativada]</text></g></g></g></svg>