<svg version="1.1" xmlns="http://www.w3.org/2000/svg" xmlns:xlink="http://www.w3.org/1999/xlink" width="1470" height="460"><defs/><g><text fill="#eeeeee" stroke="none" font-family="Arial" font-size="24px" font-style="normal" font-weight="normal" text-decoration="none" x="0" y="0">UNREGISTERED</text><text fill="#eeeeee" stroke="none" font-family="Arial" font-size="24px" font-style="normal" font-weight="normal" text-decoration="none" x="0" y="30">UNREGISTERED</text><text fill="#eeeeee" stroke="none" font-family="Arial" font-size="24px" font-style="normal" font-weight="normal" text-decoration="none" x="0" y="60">UNREGISTERED</text><text fill="#eeeeee" stroke="none" font-family="Arial" font-size="24px" font-style="normal" font-weight="normal" text-decoration="none" x="0" y="90">UNREGISTERED</text><text fill="#eeeeee" stroke="none" font-family="Arial" font-size="24px" font-style="normal" font-weight="normal" text-decoration="none" x="0" y="120">UNREGISTERED</text><text fill="#eeeeee" stroke="none" font-family="Arial" font-size="24px" font-style="normal" font-weight="normal" text-decoration="none" x="0" y="150">UNREGISTERED</text><text fill="#eeeeee" stroke="none" font-family="Arial" font-size="24px" font-style="normal" font-weight="normal" text-decoration="none" x="0" y="180">UNREGISTERED</text><text fill="#eeeeee" stroke="none" font-family="Arial" font-size="24px" font-style="normal" font-weight="normal" text-decoration="none" x="0" y="210">UNREGISTERED</text><text fill="#eeeeee" stroke="none" font-family="Arial" font-size="24px" font-style="normal" font-weight="normal" text-decoration="none" x="0" y="240">UNREGISTERED</text><text fill="#eeeeee" stroke="none" font-family="Arial" font-size="24px" font-style="normal" font-weight="normal" text-decoration="none" x="0" y="270">UNREGISTERED</text><text fill="#eeeeee" stroke="none" font-family="Arial" font-size="24px" font-style="normal" font-weight="normal" text-decoration="none" x="0" y="300">UNREGISTERED</text><text fill="#eeeeee" stroke="none" font-family="Arial" font-size="24px" font-style="normal" font-weight="normal" text-decoration="none" x="0" y="330">UNREGISTERED</text><text fill="#eeeeee" stroke="none" font-family="Arial" font-size="24px" font-style="normal" font-weight="normal" text-decoration="none" x="0" y="360">UNREGISTERED</text><text fill="#eeeeee" stroke="none" font-family="Arial" font-size="24px" font-style="normal" font-weight="normal" text-decoration="none" x="0" y="390">UNREGISTERED</text><text fill="#eeeeee" stroke="none" font-family="Arial" font-size="24px" font-style="normal" font-weight="normal" text-decoration="none" x="0" y="420">UNREGISTERED</text><text fill="#eeeeee" stroke="none" font-family="Arial" font-size="24px" font-style="normal" font-weight="normal" text-decoration="none" x="0" y="450">UNREGISTERED</text><text fill="#eeeeee" stroke="none" font-family="Arial" font-size="24px" font-style="normal" font-weight="normal" text-decoration="none" x="200" y="0">UNREGISTERED</text><text fill="#eeeeee" stroke="none" font-family="Arial" font-size="24px" font-style="normal" font-weight="normal" text-decoration="none" x="200" y="30">UNREGISTERED</text><text fill="#eeeeee" stroke="none" font-family="Arial" font-size="24px" font-style="normal" font-weight="normal" text-decoration="none" x="200" y="60">UNREGISTERED</text><text fill="#eeeeee" stroke="none" font-family="Arial" font-size="24px" font-style="normal" font-weight="normal" text-decoration="none" x="200" y="90">UNREGISTERED</text><text fill="#eeeeee" stroke="none" font-family="Arial" font-size="24px" font-style="normal" font-weight="normal" text-decoration="none" x="200" y="120">UNREGISTERED</text><text fill="#eeeeee" stroke="none" font-family="Arial" font-size="24px" font-style="normal" font-weight="normal" text-decoration="none" x="200" y="150">UNREGISTERED</text><text fill="#eeeeee" stroke="none" font-family="Arial" font-size="24px" font-style="normal" font-weight="normal" text-decoration="none" x="200" y="180">UNREGISTERED</text><text fill="#eeeeee" stroke="none" font-family="Arial" font-size="24px" font-style="normal" font-weight="normal" text-decoration="none" x="200" y="210">UNREGISTERED</text><text fill="#eeeeee" stroke="none" font-family="Arial" font-size="24px" font-style="normal" font-weight="normal" text-decoration="none" x="200" y="240">UNREGISTERED</text><text fill="#eeeeee" stroke="none" font-family="Arial" font-size="24px" font-style="normal" font-weight="normal" text-decoration="none" x="200" y="270">UNREGISTERED</text><text fill="#eeeeee" stroke="none" font-family="Arial" font-size="24px" font-style="normal" font-weight="normal" text-decoration="none" x="200" y="300">UNREGISTERED</text><text fill="#eeeeee" stroke="none" font-family="Arial" font-size="24px" font-style="normal" font-weight="normal" text-decoration="none" x="200" y="330">UNREGISTERED</text><text fill="#eeeeee" stroke="none" font-family="Arial" font-size="24px" font-style="normal" font-weight="normal" text-decoration="none" x="200" y="360">UNREGISTERED</text><text fill="#eeeeee" stroke="none" font-family="Arial" font-size="24px" font-style="normal" font-weight="normal" text-decoration="none" x="200" y="390">UNREGISTERED</text><text fill="#eeeeee" stroke="none" font-family="Arial" font-size="24px" font-style="normal" font-weight="normal" text-decoration="none" x="200" y="420">UNREGISTERED</text><text fill="#eeeeee" stroke="none" font-family="Arial" font-size="24px" font-style="normal" font-weight="normal" text-decoration="none" x="200" y="450">UNREGISTERED</text><text fill="#eeeeee" stroke="none" font-family="Arial" font-size="24px" font-style="normal" font-weight="normal" text-decoration="none" x="400" y="0">UNREGISTERED</text><text fill="#eeeeee" stroke="none" font-family="Arial" font-size="24px" font-style="normal" font-weight="normal" text-decoration="none" x="400" y="30">UNREGISTERED</text><text fill="#eeeeee" stroke="none" font-family="Arial" font-size="24px" font-style="normal" font-weight="normal" text-decoration="none" x="400" y="60">UNREGISTERED</text><text fill="#eeeeee" stroke="none" font-family="Arial" font-size="24px" font-style="normal" font-weight="normal" text-decoration="none" x="400" y="90">UNREGISTERED</text><text fill="#eeeeee" stroke="none" font-family="Arial" font-size="24px" font-style="normal" font-weight="normal" text-decoration="none" x="400" y="120">UNREGISTERED</text><text fill="#eeeeee" stroke="none" font-family="Arial" font-size="24px" font-style="normal" font-weight="normal" text-decoration="none" x="400" y="150">UNREGISTERED</text><text fill="#eeeeee" stroke="none" font-family="Arial" font-size="24px" font-style="normal" font-weight="normal" text-decoration="none" x="400" y="180">UNREGISTERED</text><text fill="#eeeeee" stroke="none" font-family="Arial" font-size="24px" font-style="normal" font-weight="normal" text-decoration="none" x="400" y="210">UNREGISTERED</text><text fill="#eeeeee" stroke="none" font-family="Arial" font-size="24px" font-style="normal" font-weight="normal" text-decoration="none" x="400" y="240">UNREGISTERED</text><text fill="#eeeeee" stroke="none" font-family="Arial" font-size="24px" font-style="normal" font-weight="normal" text-decoration="none" x="400" y="270">UNREGISTERED</text><text fill="#eeeeee" stroke="none" font-family="Arial" font-size="24px" font-style="normal" font-weight="normal" text-decoration="none" x="400" y="300">UNREGISTERED</text><text fill="#eeeeee" stroke="none" font-family="Arial" font-size="24px" font-style="normal" font-weight="normal" text-decoration="none" x="400" y="330">UNREGISTERED</text><text fill="#eeeeee" stroke="none" font-family="Arial" font-size="24px" font-style="normal" font-weight="normal" text-decoration="none" x="400" y="360">UNREGISTERED</text><text fill="#eeeeee" stroke="none" font-family="Arial" font-size="24px" font-style="normal" font-weight="normal" text-decoration="none" x="400" y="390">UNREGISTERED</text><text fill="#eeeeee" stroke="none" font-family="Arial" font-size="24px" font-style="normal" font-weight="normal" text-decoration="none" x="400" y="420">UNREGISTERED</text><text fill="#eeeeee" stroke="none" font-family="Arial" font-size="24px" font-style="normal" font-weight="normal" text-decoration="none" x="400" y="450">UNREGISTERED</text><text fill="#eeeeee" stroke="none" font-family="Arial" font-size="24px" font-style="normal" font-weight="normal" text-decoration="none" x="600" y="0">UNREGISTERED</text><text fill="#eeeeee" stroke="none" font-family="Arial" font-size="24px" font-style="normal" font-weight="normal" text-decoration="none" x="600" y="30">UNREGISTERED</text><text fill="#eeeeee" stroke="none" font-family="Arial" font-size="24px" font-style="normal" font-weight="normal" text-decoration="none" x="600" y="60">UNREGISTERED</text><text fill="#eeeeee" stroke="none" font-family="Arial" font-size="24px" font-style="normal" font-weight="normal" text-decoration="none" x="600" y="90">UNREGISTERED</text><text fill="#eeeeee" stroke="none" font-family="Arial" font-size="24px" font-style="normal" font-weight="normal" text-decoration="none" x="600" y="120">UNREGISTERED</text><text fill="#eeeeee" stroke="none" font-family="Arial" font-size="24px" font-style="normal" font-weight="normal" text-decoration="none" x="600" y="150">UNREGISTERED</text><text fill="#eeeeee" stroke="none" font-family="Arial" font-size="24px" font-style="normal" font-weight="normal" text-decoration="none" x="600" y="180">UNREGISTERED</text><text fill="#eeeeee" stroke="none" font-family="Arial" font-size="24px" font-style="normal" font-weight="normal" text-decoration="none" x="600" y="210">UNREGISTERED</text><text fill="#eeeeee" stroke="none" font-family="Arial" font-size="24px" font-style="normal" font-weight="normal" text-decoration="none" x="600" y="240">UNREGISTERED</text><text fill="#eeeeee" stroke="none" font-family="Arial" font-size="24px" font-style="normal" font-weight="normal" text-decoration="none" x="600" y="270">UNREGISTERED</text><text fill="#eeeeee" stroke="none" font-family="Arial" font-size="24px" font-style="normal" font-weight="normal" text-decoration="none" x="600" y="300">UNREGISTERED</text><text fill="#eeeeee" stroke="none" font-family="Arial" font-size="24px" font-style="normal" font-weight="normal" text-decoration="none" x="600" y="330">UNREGISTERED</text><text fill="#eeeeee" stroke="none" font-family="Arial" font-size="24px" font-style="normal" font-weight="normal" text-decoration="none" x="600" y="360">UNREGISTERED</text><text fill="#eeeeee" stroke="none" font-family="Arial" font-size="24px" font-style="normal" font-weight="normal" text-decoration="none" x="600" y="390">UNREGISTERED</text><text fill="#eeeeee" stroke="none" font-family="Arial" font-size="24px" font-style="normal" font-weight="normal" text-decoration="none" x="600" y="420">UNREGISTERED</text><text fill="#eeeeee" stroke="none" font-family="Arial" font-size="24px" font-style="normal" font-weight="normal" text-decoration="none" x="600" y="450">UNREGISTERED</text><text fill="#eeeeee" stroke="none" font-family="Arial" font-size="24px" font-style="normal" font-weight="normal" text-decoration="none" x="800" y="0">UNREGISTERED</text><text fill="#eeeeee" stroke="none" font-family="Arial" font-size="24px" font-style="normal" font-weight="normal" text-decoration="none" x="800" y="30">UNREGISTERED</text><text fill="#eeeeee" stroke="none" font-family="Arial" font-size="24px" font-style="normal" font-weight="normal" text-decoration="none" x="800" y="60">UNREGISTERED</text><text fill="#eeeeee" stroke="none" font-family="Arial" font-size="24px" font-style="normal" font-weight="normal" text-decoration="none" x="800" y="90">UNREGISTERED</text><text fill="#eeeeee" stroke="none" font-family="Arial" font-size="24px" font-style="normal" font-weight="normal" text-decoration="none" x="800" y="120">UNREGISTERED</text><text fill="#eeeeee" stroke="none" font-family="Arial" font-size="24px" font-style="normal" font-weight="normal" text-decoration="none" x="800" y="150">UNREGISTERED</text><text fill="#eeeeee" stroke="none" font-family="Arial" font-size="24px" font-style="normal" font-weight="normal" text-decoration="none" x="800" y="180">UNREGISTERED</text><text fill="#eeeeee" stroke="none" font-family="Arial" font-size="24px" font-style="normal" font-weight="normal" text-decoration="none" x="800" y="210">UNREGISTERED</text><text fill="#eeeeee" stroke="none" font-family="Arial" font-size="24px" font-style="normal" font-weight="normal" text-decoration="none" x="800" y="240">UNREGISTERED</text><text fill="#eeeeee" stroke="none" font-family="Arial" font-size="24px" font-style="normal" font-weight="normal" text-decoration="none" x="800" y="270">UNREGISTERED</text><text fill="#eeeeee" stroke="none" font-family="Arial" font-size="24px" font-style="normal" font-weight="normal" text-decoration="none" x="800" y="300">UNREGISTERED</text><text fill="#eeeeee" stroke="none" font-family="Arial" font-size="24px" font-style="normal" font-weight="normal" text-decoration="none" x="800" y="330">UNREGISTERED</text><text fill="#eeeeee" stroke="none" font-family="Arial" font-size="24px" font-style="normal" font-weight="normal" text-decoration="none" x="800" y="360">UNREGISTERED</text><text fill="#eeeeee" stroke="none" font-family="Arial" font-size="24px" font-style="normal" font-weight="normal" text-decoration="none" x="800" y="390">UNREGISTERED</text><text fill="#eeeeee" stroke="none" font-family="Arial" font-size="24px" font-style="normal" font-weight="normal" text-decoration="none" x="800" y="420">UNREGISTERED</text><text fill="#eeeeee" stroke="none" font-family="Arial" font-size="24px" font-style="normal" font-weight="normal" text-decoration="none" x="800" y="450">UNREGISTERED</text><text fill="#eeeeee" stroke="none" font-family="Arial" font-size="24px" font-style="normal" font-weight="normal" text-decoration="none" x="1000" y="0">UNREGISTERED</text><text fill="#eeeeee" stroke="none" font-family="Arial" font-size="24px" font-style="normal" font-weight="normal" text-decoration="none" x="1000" y="30">UNREGISTERED</text><text fill="#eeeeee" stroke="none" font-family="Arial" font-size="24px" font-style="normal" font-weight="normal" text-decoration="none" x="1000" y="60">UNREGISTERED</text><text fill="#eeeeee" stroke="none" font-family="Arial" font-size="24px" font-style="normal" font-weight="normal" text-decoration="none" x="1000" y="90">UNREGISTERED</text><text fill="#eeeeee" stroke="none" font-family="Arial" font-size="24px" font-style="normal" font-weight="normal" text-decoration="none" x="1000" y="120">UNREGISTERED</text><text fill="#eeeeee" stroke="none" font-family="Arial" font-size="24px" font-style="normal" font-weight="normal" text-decoration="none" x="1000" y="150">UNREGISTERED</text><text fill="#eeeeee" stroke="none" font-family="Arial" font-size="24px" font-style="normal" font-weight="normal" text-decoration="none" x="1000" y="180">UNREGISTERED</text><text fill="#eeeeee" stroke="none" font-family="Arial" font-size="24px" font-style="normal" font-weight="normal" text-decoration="none" x="1000" y="210">UNREGISTERED</text><text fill="#eeeeee" stroke="none" font-family="Arial" font-size="24px" font-style="normal" font-weight="normal" text-decoration="none" x="1000" y="240">UNREGISTERED</text><text fill="#eeeeee" stroke="none" font-family="Arial" font-size="24px" font-style="normal" font-weight="normal" text-decoration="none" x="1000" y="270">UNREGISTERED</text><text fill="#eeeeee" stroke="none" font-family="Arial" font-size="24px" font-style="normal" font-weight="normal" text-decoration="none" x="1000" y="300">UNREGISTERED</text><text fill="#eeeeee" stroke="none" font-family="Arial" font-size="24px" font-style="normal" font-weight="normal" text-decoration="none" x="1000" y="330">UNREGISTERED</text><text fill="#eeeeee" stroke="none" font-family="Arial" font-size="24px" font-style="normal" font-weight="normal" text-decoration="none" x="1000" y="360">UNREGISTERED</text><text fill="#eeeeee" stroke="none" font-family="Arial" font-size="24px" font-style="normal" font-weight="normal" text-decoration="none" x="1000" y="390">UNREGISTERED</text><text fill="#eeeeee" stroke="none" font-family="Arial" font-size="24px" font-style="normal" font-weight="normal" text-decoration="none" x="1000" y="420">UNREGISTERED</text><text fill="#eeeeee" stroke="none" font-family="Arial" font-size="24px" font-style="normal" font-weight="normal" text-decoration="none" x="1000" y="450">UNREGISTERED</text><text fill="#eeeeee" stroke="none" font-family="Arial" font-size="24px" font-style="normal" font-weight="normal" text-decoration="none" x="1200" y="0">UNREGISTERED</text><text fill="#eeeeee" stroke="none" font-family="Arial" font-size="24px" font-style="normal" font-weight="normal" text-decoration="none" x="1200" y="30">UNREGISTERED</text><text fill="#eeeeee" stroke="none" font-family="Arial" font-size="24px" font-style="normal" font-weight="normal" text-decoration="none" x="1200" y="60">UNREGISTERED</text><text fill="#eeeeee" stroke="none" font-family="Arial" font-size="24px" font-style="normal" font-weight="normal" text-decoration="none" x="1200" y="90">UNREGISTERED</text><text fill="#eeeeee" stroke="none" font-family="Arial" font-size="24px" font-style="normal" font-weight="normal" text-decoration="none" x="1200" y="120">UNREGISTERED</text><text fill="#eeeeee" stroke="none" font-family="Arial" font-size="24px" font-style="normal" font-weight="normal" text-decoration="none" x="1200" y="150">UNREGISTERED</text><text fill="#eeeeee" stroke="none" font-family="Arial" font-size="24px" font-style="normal" font-weight="normal" text-decoration="none" x="1200" y="180">UNREGISTERED</text><text fill="#eeeeee" stroke="none" font-family="Arial" font-size="24px" font-style="normal" font-weight="normal" text-decoration="none" x="1200" y="210">UNREGISTERED</text><text fill="#eeeeee" stroke="none" font-family="Arial" font-size="24px" font-style="normal" font-weight="normal" text-decoration="none" x="1200" y="240">UNREGISTERED</text><text fill="#eeeeee" stroke="none" font-family="Arial" font-size="24px" font-style="normal" font-weight="normal" text-decoration="none" x="1200" y="270">UNREGISTERED</text><text fill="#eeeeee" stroke="none" font-family="Arial" font-size="24px" font-style="normal" font-weight="normal" text-decoration="none" x="1200" y="300">UNREGISTERED</text><text fill="#eeeeee" stroke="none" font-family="Arial" font-size="24px" font-style="normal" font-weight="normal" text-decoration="none" x="1200" y="330">UNREGISTERED</text><text fill="#eeeeee" stroke="none" font-family="Arial" font-size="24px" font-style="normal" font-weight="normal" text-decoration="none" x="1200" y="360">UNREGISTERED</text><text fill="#eeeeee" stroke="none" font-family="Arial" font-size="24px" font-style="normal" font-weight="normal" text-decoration="none" x="1200" y="390">UNREGISTERED</text><text fill="#eeeeee" stroke="none" font-family="Arial" font-size="24px" font-style="normal" font-weight="normal" text-decoration="none" x="1200" y="420">UNREGISTERED</text><text fill="#eeeeee" stroke="none" font-family="Arial" font-size="24px" font-style="normal" font-weight="normal" text-decoration="none" x="1200" y="450">UNREGISTERED</text><text fill="#eeeeee" stroke="none" font-family="Arial" font-size="24px" font-style="normal" font-weight="normal" text-decoration="none" x="1400" y="0">UNREGISTERED</text><text fill="#eeeeee" stroke="none" font-family="Arial" font-size="24px" font-style="normal" font-weight="normal" text-decoration="none" x="1400" y="30">UNREGISTERED</text><text fill="#eeeeee" stroke="none" font-family="Arial" font-size="24px" font-style="normal" font-weight="normal" text-decoration="none" x="1400" y="60">UNREGISTERED</text><text fill="#eeeeee" stroke="none" font-family="Arial" font-size="24px" font-style="normal" font-weight="normal" text-decoration="none" x="1400" y="90">UNREGISTERED</text><text fill="#eeeeee" stroke="none" font-family="Arial" font-size="24px" font-style="normal" font-weight="normal" text-decoration="none" x="1400" y="120">UNREGISTERED</text><text fill="#eeeeee" stroke="none" font-family="Arial" font-size="24px" font-style="normal" font-weight="normal" text-decoration="none" x="1400" y="150">UNREGISTERED</text><text fill="#eeeeee" stroke="none" font-family="Arial" font-size="24px" font-style="normal" font-weight="normal" text-decoration="none" x="1400" y="180">UNREGISTERED</text><text fill="#eeeeee" stroke="none" font-family="Arial" font-size="24px" font-style="normal" font-weight="normal" text-decoration="none" x="1400" y="210">UNREGISTERED</text><text fill="#eeeeee" stroke="none" font-family="Arial" font-size="24px" font-style="normal" font-weight="normal" text-decoration="none" x="1400" y="240">UNREGISTERED</text><text fill="#eeeeee" stroke="none" font-family="Arial" font-size="24px" font-style="normal" font-weight="normal" text-decoration="none" x="1400" y="270">UNREGISTERED</text><text fill="#eeeeee" stroke="none" font-family="Arial" font-size="24px" font-style="normal" font-weight="normal" text-decoration="none" x="1400" y="300">UNREGISTERED</text><text fill="#eeeeee" stroke="none" font-family="Arial" font-size="24px" font-style="normal" font-weight="normal" text-decoration="none" x="1400" y="330">UNREGISTERED</text><text fill="#eeeeee" stroke="none" font-family="Arial" font-size="24px" font-style="normal" font-weight="normal" text-decoration="none" x="1400" y="360">UNREGISTERED</text><text fill="#eeeeee" stroke="none" font-family="Arial" font-size="24px" font-style="normal" font-weight="normal" text-decoration="none" x="1400" y="390">UNREGISTERED</text><text fill="#eeeeee" stroke="none" font-family="Arial" font-size="24px" font-style="normal" font-weight="normal" text-decoration="none" x="1400" y="420">UNREGISTERED</text><text fill="#eeeeee" stroke="none" font-family="Arial" font-size="24px" font-style="normal" font-weight="normal" text-decoration="none" x="1400" y="450">UNREGISTERED</text><g transform="translate(-117,-197) scale(1,1)"><path fill="#C0C0C0" stroke="none" d="M 180 480.5 C 180 475.2532944 184.2532944 471 189.5 471 C 194.7467056 471 199 475.2532944 199 480.5 C 199 485.7467056 194.7467056 490 189.5 490 C 184.2532944 490 180 485.7467056 180 480.5 Z" opacity="0.2"/></g><g transform="translate(-117,-197) scale(1,1)"><path fill="#000000" stroke="none" d="M 173 473.5 C 173 468.2532944 177.2532944 464 182.5 464 C 187.7467056 464 192 468.2532944 192 473.5 C 192 478.7467056 187.7467056 483 182.5 483 C 177.2532944 483 173 478.7467056 173 473.5 Z"/></g><g transform="translate(-117,-197) scale(1,1)"><path fill="#C0C0C0" stroke="none" d="M 417 295 L 579 295 Q 589 295 589 305 L 589 324 Q 589 334 579 334 L 417 334 Q 407 334 407 324 L 407 305 Q 407 295 417 295 Z" opacity="0.2"/></g><g transform="translate(-117,-197) scale(1,1)"><path fill="#ffffff" stroke="none" d="M 410 288 L 572 288 Q 582 288 582 298 L 582 317 Q 582 327 572 327 L 410 327 Q 400 327 400 317 L 400 298 Q 400 288 410 288 Z"/></g><g transform="translate(-117,-197) scale(1,1)"><path fill="none" stroke="#000000" d="M 410 288 L 572 288 Q 582 288 582 298 L 582 317 Q 582 327 572 327 L 410 327 Q 400 327 400 317 L 400 298 Q 400 288 410 288 Z" stroke-miterlimit="10"/></g><g transform="translate(-117,-197) scale(1,1)"><g><path fill="none" stroke="none"/><text fill="#000000" stroke="none" font-family="Arial" font-size="13px" font-style="normal" font-weight="bold" text-decoration="none" x="404.5" y="306">Executar ordem de compra</text></g></g><g transform="translate(-117,-197) scale(1,1)"><path fill="#C0C0C0" stroke="none" d="M 561 463 L 726 463 Q 736 463 736 473 L 736 492 Q 736 502 726 502 L 561 502 Q 551 502 551 492 L 551 473 Q 551 463 561 463 Z" opacity="0.2"/></g><g transform="translate(-117,-197) scale(1,1)"><path fill="#ffffff" stroke="none" d="M 554 456 L 719 456 Q 729 456 729 466 L 729 485 Q 729 495 719 495 L 554 495 Q 544 495 544 485 L 544 466 Q 544 456 554 456 Z"/></g><g transform="translate(-117,-197) scale(1,1)"><path fill="none" stroke="#000000" d="M 554 456 L 719 456 Q 729 456 729 466 L 729 485 Q 729 495 719 495 L 554 495 Q 544 495 544 485 L 544 466 Q 544 456 554 456 Z" stroke-miterlimit="10"/></g><g transform="translate(-117,-197) scale(1,1)"><g><path fill="none" stroke="none"/><text fill="#000000" stroke="none" font-family="Arial" font-size="13px" font-style="normal" font-weight="bold" text-decoration="none" x="548.5" y="474">Modificar ordem de compra</text></g></g><g transform="translate(-117,-197) scale(1,1)"><path fill="#C0C0C0" stroke="none" d="M 601 615 L 764 615 Q 774 615 774 625 L 774 644 Q 774 654 764 654 L 601 654 Q 591 654 591 644 L 591 625 Q 591 615 601 615 Z" opacity="0.2"/></g><g transform="translate(-117,-197) scale(1,1)"><path fill="#ffffff" stroke="none" d="M 594 608 L 757 608 Q 767 608 767 618 L 767 637 Q 767 647 757 647 L 594 647 Q 584 647 584 637 L 584 618 Q 584 608 594 608 Z"/></g><g transform="translate(-117,-197) scale(1,1)"><path fill="none" stroke="#000000" d="M 594 608 L 757 608 Q 767 608 767 618 L 767 637 Q 767 647 757 647 L 594 647 Q 584 647 584 637 L 584 618 Q 584 608 594 608 Z" stroke-miterlimit="10"/></g><g transform="translate(-117,-197) scale(1,1)"><g><path fill="none" stroke="none"/><text fill="#000000" stroke="none" font-family="Arial" font-size="13px" font-style="normal" font-weight="bold" text-decoration="none" x="588.5" y="626">Cancelar ordem de compra</text></g></g><g transform="translate(-117,-197) scale(1,1)"><path fill="#C0C0C0" stroke="none" d="M 977 295 L 1166 295 Q 1176 295 1176 305 L 1176 324 Q 1176 334 1166 334 L 977 334 Q 967 334 967 324 L 967 305 Q 967 295 977 295 Z" opacity="0.2"/></g><g transform="translate(-117,-197) scale(1,1)"><path fill="#ffffff" stroke="none" d="M 970 288 L 1159 288 Q 1169 288 1169 298 L 1169 317 Q 1169 327 1159 327 L 970 327 Q 960 327 960 317 L 960 298 Q 960 288 970 288 Z"/></g><g transform="translate(-117,-197) scale(1,1)"><path fill="none" stroke="#000000" d="M 970 288 L 1159 288 Q 1169 288 1169 298 L 1169 317 Q 1169 327 1159 327 L 970 327 Q 960 327 960 317 L 960 298 Q 960 288 970 288 Z" stroke-miterlimit="10"/></g><g transform="translate(-117,-197) scale(1,1)"><g><path fill="none" stroke="none"/><text fill="#000000" stroke="none" font-family="Arial" font-size="13px" font-style="normal" font-weight="bold" text-decoration="none" x="964.5" y="306">Validação da ordem de compra</text></g></g><g transform="translate(-117,-197) scale(1,1)"><path fill="#C0C0C0" stroke="none" d="M 1049 463 L 1221 463 Q 1231 463 1231 473 L 1231 492 Q 1231 502 1221 502 L 1049 502 Q 1039 502 1039 492 L 1039 473 Q 1039 463 1049 463 Z" opacity="0.2"/></g><g transform="translate(-117,-197) scale(1,1)"><path fill="#ffffff" stroke="none" d="M 1042 456 L 1214 456 Q 1224 456 1224 466 L 1224 485 Q 1224 495 1214 495 L 1042 495 Q 1032 495 1032 485 L 1032 466 Q 1032 456 1042 456 Z"/></g><g transform="translate(-117,-197) scale(1,1)"><path fill="none" stroke="#000000" d="M 1042 456 L 1214 456 Q 1224 456 1224 466 L 1224 485 Q 1224 495 1214 495 L 1042 495 Q 1032 495 1032 485 L 1032 466 Q 1032 456 1042 456 Z" stroke-miterlimit="10"/></g><g transform="translate(-117,-197) scale(1,1)"><g><path fill="none" stroke="none"/><text fill="#000000" stroke="none" font-family="Arial" font-size="13px" font-style="normal" font-weight="bold" text-decoration="none" x="1036.5" y="474">Aprovação para modificação</text></g></g><g transform="translate(-117,-197) scale(1,1)"><path fill="#C0C0C0" stroke="none" d="M 1145 615 L 1311 615 Q 1321 615 1321 625 L 1321 644 Q 1321 654 1311 654 L 1145 654 Q 1135 654 1135 644 L 1135 625 Q 1135 615 1145 615 Z" opacity="0.2"/></g><g transform="translate(-117,-197) scale(1,1)"><path fill="#ffffff" stroke="none" d="M 1138 608 L 1304 608 Q 1314 608 1314 618 L 1314 637 Q 1314 647 1304 647 L 1138 647 Q 1128 647 1128 637 L 1128 618 Q 1128 608 1138 608 Z"/></g><g transform="translate(-117,-197) scale(1,1)"><path fill="none" stroke="#000000" d="M 1138 608 L 1304 608 Q 1314 608 1314 618 L 1314 637 Q 1314 647 1304 647 L 1138 647 Q 1128 647 1128 637 L 1128 618 Q 1128 608 1138 608 Z" stroke-miterlimit="10"/></g><g transform="translate(-117,-197) scale(1,1)"><g><path fill="none" stroke="none"/><text fill="#000000" stroke="none" font-family="Arial" font-size="13px" font-style="normal" font-weight="bold" text-decoration="none" x="1132.5" y="626">Validação do cancelamento</text></g></g><g transform="translate(-117,-197) scale(1,1)"><path fill="none" stroke="#000000" d="M 184 464 L 184 312 L 400 312" stroke-miterlimit="10"/></g><g transform="translate(-117,-197) scale(1,1)"><path fill="none" stroke="#000000" d="M 389.83732514237585 316.209517756016 L 400 312 L 389.83732514237585 307.790482243984" stroke-miterlimit="10"/></g><g transform="translate(-117,-197) scale(1,1)"><g><path fill="none" stroke="none"/><text fill="#000000" stroke="none" font-family="Arial" font-size="13px" font-style="normal" font-weight="normal" text-decoration="none" x="126.5" y="307"> [Recebe solicitação de ordem de compra]</text></g></g><g transform="translate(-117,-197) scale(1,1)"><path fill="none" stroke="#000000" d="M 582 307 L 960 307" stroke-miterlimit="10"/></g><g transform="translate(-117,-197) scale(1,1)"><path fill="none" stroke="#000000" d="M 949.8373251423759 311.209517756016 L 960 307 L 949.8373251423758 302.790482243984" stroke-miterlimit="10"/></g><g transform="translate(-117,-197) scale(1,1)"><g><path fill="none" stroke="none"/><text fill="#000000" stroke="none" font-family="Arial" font-size="13px" font-style="normal" font-weight="normal" text-decoration="none" x="628.5" y="297"> [Envia e aguarda a resposta a solicitação da B3]</text></g></g><g transform="translate(-117,-197) scale(1,1)"><path fill="#C0C0C0" stroke="none" d="M 1559 475.5 C 1559 468.59644 1564.59644 463 1571.5 463 C 1578.40356 463 1584 468.59644 1584 475.5 C 1584 482.40356 1578.40356 488 1571.5 488 C 1564.59644 488 1559 482.40356 1559 475.5 Z" opacity="0.2"/></g><g transform="translate(-117,-197) scale(1,1)"><path fill="none" stroke="#000000" d="M 1552 468.5 C 1552 461.59644 1557.59644 456 1564.5 456 C 1571.40356 456 1577 461.59644 1577 468.5 C 1577 475.40356 1571.40356 481 1564.5 481 C 1557.59644 481 1552 475.40356 1552 468.5 Z" stroke-miterlimit="10"/></g><g transform="translate(-117,-197) scale(1,1)"><path fill="#000000" stroke="none" d="M 1557 468.5 C 1557 464.357864 1560.357864 461 1564.5 461 C 1568.642136 461 1572 464.357864 1572 468.5 C 1572 472.642136 1568.642136 476 1564.5 476 C 1560.357864 476 1557 472.642136 1557 468.5 Z"/></g><g transform="translate(-117,-197) scale(1,1)"><path fill="none" stroke="#000000" d="M 1169 304 L 1564 304 L 1564 456" stroke-miterlimit="10"/></g><g transform="translate(-117,-197) scale(1,1)"><path fill="none" stroke="#000000" d="M 1559.7904822439841 445.83732514237585 L 1564 456 L 1568.2095177560159 445.83732514237585" stroke-miterlimit="10"/></g><g transform="translate(-117,-197) scale(1,1)"><g><path fill="none" stroke="none"/><text fill="#000000" stroke="none" font-family="Arial" font-size="13px" font-style="normal" font-weight="normal" text-decoration="none" x="1286.862060546875" y="290"> [Ordem de compra aprovada]</text></g></g><g transform="translate(-117,-197) scale(1,1)"><path fill="none" stroke="#000000" d="M 1224 476 L 1552 476" stroke-miterlimit="10"/></g><g transform="translate(-117,-197) scale(1,1)"><path fill="none" stroke="#000000" d="M 1541.837325142376 480.209517756016 L 1552 476 L 1541.837325142376 471.790482243984" stroke-miterlimit="10"/></g><g transform="translate(-117,-197) scale(1,1)"><g><path fill="none" stroke="none"/><text fill="#000000" stroke="none" font-family="Arial" font-size="13px" font-style="normal" font-weight="normal" text-decoration="none" x="1262.50439453125" y="466"> [Ordem de compra já pode ser modificada]</text></g></g><g transform="translate(-117,-197) scale(1,1)"><path fill="none" stroke="#000000" d="M 192 473 L 544 473" stroke-miterlimit="10"/></g><g transform="translate(-117,-197) scale(1,1)"><path fill="none" stroke="#000000" d="M 533.8373251423759 477.209517756016 L 544 473 L 533.8373251423758 468.790482243984" stroke-miterlimit="10"/></g><g transform="translate(-117,-197) scale(1,1)"><g><path fill="none" stroke="none"/><text fill="#000000" stroke="none" font-family="Arial" font-size="13px" font-style="normal" font-weight="normal" text-decoration="none" x="194.5" y="463"> [Recebe solicitação para modificação da ordem de compra]</text></g></g><g transform="translate(-117,-197) scale(1,1)"><path fill="none" stroke="#000000" d="M 729 475 L 1032 475" stroke-miterlimit="10"/></g><g transform="translate(-117,-197) scale(1,1)"><path fill="none" stroke="#000000" d="M 1021.8373251423759 479.209517756016 L 1032 475 L 1021.8373251423758 470.790482243984" stroke-miterlimit="10"/></g><g transform="translate(-117,-197) scale(1,1)"><g><path fill="none" stroke="none"/><text fill="#000000" stroke="none" font-family="Arial" font-size="13px" font-style="normal" font-weight="normal" text-decoration="none" x="760.5" y="465"> [Aguarda a solicitação para modificação]</text></g></g><g transform="translate(-117,-197) scale(1,1)"><path fill="none" stroke="#000000" d="M 182 483 L 182 627 L 584 627" stroke-miterlimit="10"/></g><g transform="translate(-117,-197) scale(1,1)"><path fill="none" stroke="#000000" d="M 573.8373251423759 631.209517756016 L 584 627 L 573.8373251423758 622.790482243984" stroke-miterlimit="10"/></g><g transform="translate(-117,-197) scale(1,1)"><g><path fill="none" stroke="none"/><text fill="#000000" stroke="none" font-family="Arial" font-size="13px" font-style="normal" font-weight="normal" text-decoration="none" x="198.5" y="617"> [Recebe solicitação para cancelamento de ordem de compra]</text></g></g><g transform="translate(-117,-197) scale(1,1)"><path fill="none" stroke="#000000" d="M 767 627 L 1128 627" stroke-miterlimit="10"/></g><g transform="translate(-117,-197) scale(1,1)"><path fill="none" stroke="#000000" d="M 1117.837325142376 631.209517756016 L 1128 627 L 1117.837325142376 622.790482243984" stroke-miterlimit="10"/></g><g transform="translate(-117,-197) scale(1,1)"><g><path fill="none" stroke="none"/><text fill="#000000" stroke="none" font-family="Arial" font-size="13px" font-style="normal" font-weight="normal" text-decoration="none" x="768.5" y="617"> [Aguarda a resposta para a solicitação para o cancelamento]</text></g></g><g transform="translate(-117,-197) scale(1,1)"><path fill="none" stroke="#000000" d="M 1314 627 L 1564 627 L 1564 481" stroke-miterlimit="10"/></g><g transform="translate(-117,-197) scale(1,1)"><path fill="none" stroke="#000000" d="M 1568.2095177560159 491.16267485762415 L 1564 481 L 1559.7904822439841 491.16267485762415" stroke-miterlimit="10"/></g><g transform="translate(-117,-197) scale(1,1)"><g><path fill="none" stroke="none"/><text fill="#000000" stroke="none" font-family="Arial" font-size="13px" font-style="normal" font-weight="normal" text-decoration="none" x="1325.5" y="611"> [A ordem de compra foi cancelada]</text></g></g><g transform="translate(-117,-197) scale(1,1)"><path fill="none" stroke="#000000" d="M 1060 288 L 1060 224 L 496 224 L 496 288" stroke-miterlimit="10"/></g><g transform="translate(-117,-197) scale(1,1)"><path fill="none" stroke="#000000" d="M 491.790482243984 277.83732514237585 L 496 288 L 500.209517756016 277.83732514237585" stroke-miterlimit="10"/></g><g transform="translate(-117,-197) scale(1,1)"><g><path fill="none" stroke="none"/><text fill="#000000" stroke="none" font-family="Arial" font-size="13px" font-style="normal" font-weight="normal" text-decoration="none" x="665.5" y="218"> [Ordem de compra recusada pela B3]</text></g></g><g transform="translate(-117,-197) scale(1,1)"><path fill="none" stroke="#000000" d="M 1080 456 L 1080 400 L 648 400 L 648 456" stroke-miterlimit="10"/></g><g transform="translate(-117,-197) scale(1,1)"><path fill="none" stroke="#000000" d="M 643.790482243984 445.83732514237585 L 648 456 L 652.209517756016 445.83732514237585" stroke-miterlimit="10"/></g><g transform="translate(-117,-197) scale(1,1)"><g><path fill="none" stroke="none"/><text fill="#000000" stroke="none" font-family="Arial" font-size="13px" font-style="normal" font-weight="normal" text-decoration="none" x="722.5" y="394"> [A ordem de compra não pode ser modificada]</text></g></g><g transform="translate(-117,-197) scale(1,1)"><path fill="none" stroke="#000000" d="M 1217 608 L 1217 568 L 672 568 L 672 608" stroke-miterlimit="10"/></g><g transform="translate(-117,-197) scale(1,1)"><path fill="none" stroke="#000000" d="M 667.790482243984 597.8373251423759 L 672 608 L 676.209517756016 597.8373251423759" stroke-miterlimit="10"/></g><g transform="translate(-117,-197) scale(1,1)"><g><path fill="none" stroke="none"/><text fill="#000000" stroke="none" font-family="Arial" font-size="13px" font-style="normal" font-weight="normal" text-decoration="none" x="798.5" y="562"> [Ordem de compra não pode ser cancelada]</text></g></g></g></svg>