<svg version="1.1" xmlns="http://www.w3.org/2000/svg" xmlns:xlink="http://www.w3.org/1999/xlink" width="996" height="676"><defs/><g><text fill="#eeeeee" stroke="none" font-family="Arial" font-size="24px" font-style="normal" font-weight="normal" text-decoration="none" x="0" y="0">UNREGISTERED</text><text fill="#eeeeee" stroke="none" font-family="Arial" font-size="24px" font-style="normal" font-weight="normal" text-decoration="none" x="0" y="30">UNREGISTERED</text><text fill="#eeeeee" stroke="none" font-family="Arial" font-size="24px" font-style="normal" font-weight="normal" text-decoration="none" x="0" y="60">UNREGISTERED</text><text fill="#eeeeee" stroke="none" font-family="Arial" font-size="24px" font-style="normal" font-weight="normal" text-decoration="none" x="0" y="90">UNREGISTERED</text><text fill="#eeeeee" stroke="none" font-family="Arial" font-size="24px" font-style="normal" font-weight="normal" text-decoration="none" x="0" y="120">UNREGISTERED</text><text fill="#eeeeee" stroke="none" font-family="Arial" font-size="24px" font-style="normal" font-weight="normal" text-decoration="none" x="0" y="150">UNREGISTERED</text><text fill="#eeeeee" stroke="none" font-family="Arial" font-size="24px" font-style="normal" font-weight="normal" text-decoration="none" x="0" y="180">UNREGISTERED</text><text fill="#eeeeee" stroke="none" font-family="Arial" font-size="24px" font-style="normal" font-weight="normal" text-decoration="none" x="0" y="210">UNREGISTERED</text><text fill="#eeeeee" stroke="none" font-family="Arial" font-size="24px" font-style="normal" font-weight="normal" text-decoration="none" x="0" y="240">UNREGISTERED</text><text fill="#eeeeee" stroke="none" font-family="Arial" font-size="24px" font-style="normal" font-weight="normal" text-decoration="none" x="0" y="270">UNREGISTERED</text><text fill="#eeeeee" stroke="none" font-family="Arial" font-size="24px" font-style="normal" font-weight="normal" text-decoration="none" x="0" y="300">UNREGISTERED</text><text fill="#eeeeee" stroke="none" font-family="Arial" font-size="24px" font-style="normal" font-weight="normal" text-decoration="none" x="0" y="330">UNREGISTERED</text><text fill="#eeeeee" stroke="none" font-family="Arial" font-size="24px" font-style="normal" font-weight="normal" text-decoration="none" x="0" y="360">UNREGISTERED</text><text fill="#eeeeee" stroke="none" font-family="Arial" font-size="24px" font-style="normal" font-weight="normal" text-decoration="none" x="0" y="390">UNREGISTERED</text><text fill="#eeeeee" stroke="none" font-family="Arial" font-size="24px" font-style="normal" font-weight="normal" text-decoration="none" x="0" y="420">UNREGISTERED</text><text fill="#eeeeee" stroke="none" font-family="Arial" font-size="24px" font-style="normal" font-weight="normal" text-decoration="none" x="0" y="450">UNREGISTERED</text><text fill="#eeeeee" stroke="none" font-family="Arial" font-size="24px" font-style="normal" font-weight="normal" text-decoration="none" x="0" y="480">UNREGISTERED</text><text fill="#eeeeee" stroke="none" font-family="Arial" font-size="24px" font-style="normal" font-weight="normal" text-decoration="none" x="0" y="510">UNREGISTERED</text><text fill="#eeeeee" stroke="none" font-family="Arial" font-size="24px" font-style="normal" font-weight="normal" text-decoration="none" x="0" y="540">UNREGISTERED</text><text fill="#eeeeee" stroke="none" font-family="Arial" font-size="24px" font-style="normal" font-weight="normal" text-decoration="none" x="0" y="570">UNREGISTERED</text><text fill="#eeeeee" stroke="none" font-family="Arial" font-size="24px" font-style="normal" font-weight="normal" text-decoration="none" x="0" y="600">UNREGISTERED</text><text fill="#eeeeee" stroke="none" font-family="Arial" font-size="24px" font-style="normal" font-weight="normal" text-decoration="none" x="0" y="630">UNREGISTERED</text><text fill="#eeeeee" stroke="none" font-family="Arial" font-size="24px" font-style="normal" font-weight="normal" text-decoration="none" x="0" y="660">UNREGISTERED</text><text fill="#eeeeee" stroke="none" font-family="Arial" font-size="24px" font-style="normal" font-weight="normal" text-decoration="none" x="200" y="0">UNREGISTERED</text><text fill="#eeeeee" stroke="none" font-family="Arial" font-size="24px" font-style="normal" font-weight="normal" text-decoration="none" x="200" y="30">UNREGISTERED</text><text fill="#eeeeee" stroke="none" font-family="Arial" font-size="24px" font-style="normal" font-weight="normal" text-decoration="none" x="200" y="60">UNREGISTERED</text><text fill="#eeeeee" stroke="none" font-family="Arial" font-size="24px" font-style="normal" font-weight="normal" text-decoration="none" x="200" y="90">UNREGISTERED</text><text fill="#eeeeee" stroke="none" font-family="Arial" font-size="24px" font-style="normal" font-weight="normal" text-decoration="none" x="200" y="120">UNREGISTERED</text><text fill="#eeeeee" stroke="none" font-family="Arial" font-size="24px" font-style="normal" font-weight="normal" text-decoration="none" x="200" y="150">UNREGISTERED</text><text fill="#eeeeee" stroke="none" font-family="Arial" font-size="24px" font-style="normal" font-weight="normal" text-decoration="none" x="200" y="180">UNREGISTERED</text><text fill="#eeeeee" stroke="none" font-family="Arial" font-size="24px" font-style="normal" font-weight="normal" text-decoration="none" x="200" y="210">UNREGISTERED</text><text fill="#eeeeee" stroke="none" font-family="Arial" font-size="24px" font-style="normal" font-weight="normal" text-decoration="none" x="200" y="240">UNREGISTERED</text><text fill="#eeeeee" stroke="none" font-family="Arial" font-size="24px" font-style="normal" font-weight="normal" text-decoration="none" x="200" y="270">UNREGISTERED</text><text fill="#eeeeee" stroke="none" font-family="Arial" font-size="24px" font-style="normal" font-weight="normal" text-decoration="none" x="200" y="300">UNREGISTERED</text><text fill="#eeeeee" stroke="none" font-family="Arial" font-size="24px" font-style="normal" font-weight="normal" text-decoration="none" x="200" y="330">UNREGISTERED</text><text fill="#eeeeee" stroke="none" font-family="Arial" font-size="24px" font-style="normal" font-weight="normal" text-decoration="none" x="200" y="360">UNREGISTERED</text><text fill="#eeeeee" stroke="none" font-family="Arial" font-size="24px" font-style="normal" font-weight="normal" text-decoration="none" x="200" y="390">UNREGISTERED</text><text fill="#eeeeee" stroke="none" font-family="Arial" font-size="24px" font-style="normal" font-weight="normal" text-decoration="none" x="200" y="420">UNREGISTERED</text><text fill="#eeeeee" stroke="none" font-family="Arial" font-size="24px" font-style="normal" font-weight="normal" text-decoration="none" x="200" y="450">UNREGISTERED</text><text fill="#eeeeee" stroke="none" font-family="Arial" font-size="24px" font-style="normal" font-weight="normal" text-decoration="none" x="200" y="480">UNREGISTERED</text><text fill="#eeeeee" stroke="none" font-family="Arial" font-size="24px" font-style="normal" font-weight="normal" text-decoration="none" x="200" y="510">UNREGISTERED</text><text fill="#eeeeee" stroke="none" font-family="Arial" font-size="24px" font-style="normal" font-weight="normal" text-decoration="none" x="200" y="540">UNREGISTERED</text><text fill="#eeeeee" stroke="none" font-family="Arial" font-size="24px" font-style="normal" font-weight="normal" text-decoration="none" x="200" y="570">UNREGISTERED</text><text fill="#eeeeee" stroke="none" font-family="Arial" font-size="24px" font-style="normal" font-weight="normal" text-decoration="none" x="200" y="600">UNREGISTERED</text><text fill="#eeeeee" stroke="none" font-family="Arial" font-size="24px" font-style="normal" font-weight="normal" text-decoration="none" x="200" y="630">UNREGISTERED</text><text fill="#eeeeee" stroke="none" font-family="Arial" font-size="24px" font-style="normal" font-weight="normal" text-decoration="none" x="200" y="660">UNREGISTERED</text><text fill="#eeeeee" stroke="none" font-family="Arial" font-size="24px" font-style="normal" font-weight="normal" text-decoration="none" x="400" y="0">UNREGISTERED</text><text fill="#eeeeee" stroke="none" font-family="Arial" font-size="24px" font-style="normal" font-weight="normal" text-decoration="none" x="400" y="30">UNREGISTERED</text><text fill="#eeeeee" stroke="none" font-family="Arial" font-size="24px" font-style="normal" font-weight="normal" text-decoration="none" x="400" y="60">UNREGISTERED</text><text fill="#eeeeee" stroke="none" font-family="Arial" font-size="24px" font-style="normal" font-weight="normal" text-decoration="none" x="400" y="90">UNREGISTERED</text><text fill="#eeeeee" stroke="none" font-family="Arial" font-size="24px" font-style="normal" font-weight="normal" text-decoration="none" x="400" y="120">UNREGISTERED</text><text fill="#eeeeee" stroke="none" font-family="Arial" font-size="24px" font-style="normal" font-weight="normal" text-decoration="none" x="400" y="150">UNREGISTERED</text><text fill="#eeeeee" stroke="none" font-family="Arial" font-size="24px" font-style="normal" font-weight="normal" text-decoration="none" x="400" y="180">UNREGISTERED</text><text fill="#eeeeee" stroke="none" font-family="Arial" font-size="24px" font-style="normal" font-weight="normal" text-decoration="none" x="400" y="210">UNREGISTERED</text><text fill="#eeeeee" stroke="none" font-family="Arial" font-size="24px" font-style="normal" font-weight="normal" text-decoration="none" x="400" y="240">UNREGISTERED</text><text fill="#eeeeee" stroke="none" font-family="Arial" font-size="24px" font-style="normal" font-weight="normal" text-decoration="none" x="400" y="270">UNREGISTERED</text><text fill="#eeeeee" stroke="none" font-family="Arial" font-size="24px" font-style="normal" font-weight="normal" text-decoration="none" x="400" y="300">UNREGISTERED</text><text fill="#eeeeee" stroke="none" font-family="Arial" font-size="24px" font-style="normal" font-weight="normal" text-decoration="none" x="400" y="330">UNREGISTERED</text><text fill="#eeeeee" stroke="none" font-family="Arial" font-size="24px" font-style="normal" font-weight="normal" text-decoration="none" x="400" y="360">UNREGISTERED</text><text fill="#eeeeee" stroke="none" font-family="Arial" font-size="24px" font-style="normal" font-weight="normal" text-decoration="none" x="400" y="390">UNREGISTERED</text><text fill="#eeeeee" stroke="none" font-family="Arial" font-size="24px" font-style="normal" font-weight="normal" text-decoration="none" x="400" y="420">UNREGISTERED</text><text fill="#eeeeee" stroke="none" font-family="Arial" font-size="24px" font-style="normal" font-weight="normal" text-decoration="none" x="400" y="450">UNREGISTERED</text><text fill="#eeeeee" stroke="none" font-family="Arial" font-size="24px" font-style="normal" font-weight="normal" text-decoration="none" x="400" y="480">UNREGISTERED</text><text fill="#eeeeee" stroke="none" font-family="Arial" font-size="24px" font-style="normal" font-weight="normal" text-decoration="none" x="400" y="510">UNREGISTERED</text><text fill="#eeeeee" stroke="none" font-family="Arial" font-size="24px" font-style="normal" font-weight="normal" text-decoration="none" x="400" y="540">UNREGISTERED</text><text fill="#eeeeee" stroke="none" font-family="Arial" font-size="24px" font-style="normal" font-weight="normal" text-decoration="none" x="400" y="570">UNREGISTERED</text><text fill="#eeeeee" stroke="none" font-family="Arial" font-size="24px" font-style="normal" font-weight="normal" text-decoration="none" x="400" y="600">UNREGISTERED</text><text fill="#eeeeee" stroke="none" font-family="Arial" font-size="24px" font-style="normal" font-weight="normal" text-decoration="none" x="400" y="630">UNREGISTERED</text><text fill="#eeeeee" stroke="none" font-family="Arial" font-size="24px" font-style="normal" font-weight="normal" text-decoration="none" x="400" y="660">UNREGISTERED</text><text fill="#eeeeee" stroke="none" font-family="Arial" font-size="24px" font-style="normal" font-weight="normal" text-decoration="none" x="600" y="0">UNREGISTERED</text><text fill="#eeeeee" stroke="none" font-family="Arial" font-size="24px" font-style="normal" font-weight="normal" text-decoration="none" x="600" y="30">UNREGISTERED</text><text fill="#eeeeee" stroke="none" font-family="Arial" font-size="24px" font-style="normal" font-weight="normal" text-decoration="none" x="600" y="60">UNREGISTERED</text><text fill="#eeeeee" stroke="none" font-family="Arial" font-size="24px" font-style="normal" font-weight="normal" text-decoration="none" x="600" y="90">UNREGISTERED</text><text fill="#eeeeee" stroke="none" font-family="Arial" font-size="24px" font-style="normal" font-weight="normal" text-decoration="none" x="600" y="120">UNREGISTERED</text><text fill="#eeeeee" stroke="none" font-family="Arial" font-size="24px" font-style="normal" font-weight="normal" text-decoration="none" x="600" y="150">UNREGISTERED</text><text fill="#eeeeee" stroke="none" font-family="Arial" font-size="24px" font-style="normal" font-weight="normal" text-decoration="none" x="600" y="180">UNREGISTERED</text><text fill="#eeeeee" stroke="none" font-family="Arial" font-size="24px" font-style="normal" font-weight="normal" text-decoration="none" x="600" y="210">UNREGISTERED</text><text fill="#eeeeee" stroke="none" font-family="Arial" font-size="24px" font-style="normal" font-weight="normal" text-decoration="none" x="600" y="240">UNREGISTERED</text><text fill="#eeeeee" stroke="none" font-family="Arial" font-size="24px" font-style="normal" font-weight="normal" text-decoration="none" x="600" y="270">UNREGISTERED</text><text fill="#eeeeee" stroke="none" font-family="Arial" font-size="24px" font-style="normal" font-weight="normal" text-decoration="none" x="600" y="300">UNREGISTERED</text><text fill="#eeeeee" stroke="none" font-family="Arial" font-size="24px" font-style="normal" font-weight="normal" text-decoration="none" x="600" y="330">UNREGISTERED</text><text fill="#eeeeee" stroke="none" font-family="Arial" font-size="24px" font-style="normal" font-weight="normal" text-decoration="none" x="600" y="360">UNREGISTERED</text><text fill="#eeeeee" stroke="none" font-family="Arial" font-size="24px" font-style="normal" font-weight="normal" text-decoration="none" x="600" y="390">UNREGISTERED</text><text fill="#eeeeee" stroke="none" font-family="Arial" font-size="24px" font-style="normal" font-weight="normal" text-decoration="none" x="600" y="420">UNREGISTERED</text><text fill="#eeeeee" stroke="none" font-family="Arial" font-size="24px" font-style="normal" font-weight="normal" text-decoration="none" x="600" y="450">UNREGISTERED</text><text fill="#eeeeee" stroke="none" font-family="Arial" font-size="24px" font-style="normal" font-weight="normal" text-decoration="none" x="600" y="480">UNREGISTERED</text><text fill="#eeeeee" stroke="none" font-family="Arial" font-size="24px" font-style="normal" font-weight="normal" text-decoration="none" x="600" y="510">UNREGISTERED</text><text fill="#eeeeee" stroke="none" font-family="Arial" font-size="24px" font-style="normal" font-weight="normal" text-decoration="none" x="600" y="540">UNREGISTERED</text><text fill="#eeeeee" stroke="none" font-family="Arial" font-size="24px" font-style="normal" font-weight="normal" text-decoration="none" x="600" y="570">UNREGISTERED</text><text fill="#eeeeee" stroke="none" font-family="Arial" font-size="24px" font-style="normal" font-weight="normal" text-decoration="none" x="600" y="600">UNREGISTERED</text><text fill="#eeeeee" stroke="none" font-family="Arial" font-size="24px" font-style="normal" font-weight="normal" text-decoration="none" x="600" y="630">UNREGISTERED</text><text fill="#eeeeee" stroke="none" font-family="Arial" font-size="24px" font-style="normal" font-weight="normal" text-decoration="none" x="600" y="660">UNREGISTERED</text><text fill="#eeeeee" stroke="none" font-family="Arial" font-size="24px" font-style="normal" font-weight="normal" text-decoration="none" x="800" y="0">UNREGISTERED</text><text fill="#eeeeee" stroke="none" font-family="Arial" font-size="24px" font-style="normal" font-weight="normal" text-decoration="none" x="800" y="30">UNREGISTERED</text><text fill="#eeeeee" stroke="none" font-family="Arial" font-size="24px" font-style="normal" font-weight="normal" text-decoration="none" x="800" y="60">UNREGISTERED</text><text fill="#eeeeee" stroke="none" font-family="Arial" font-size="24px" font-style="normal" font-weight="normal" text-decoration="none" x="800" y="90">UNREGISTERED</text><text fill="#eeeeee" stroke="none" font-family="Arial" font-size="24px" font-style="normal" font-weight="normal" text-decoration="none" x="800" y="120">UNREGISTERED</text><text fill="#eeeeee" stroke="none" font-family="Arial" font-size="24px" font-style="normal" font-weight="normal" text-decoration="none" x="800" y="150">UNREGISTERED</text><text fill="#eeeeee" stroke="none" font-family="Arial" font-size="24px" font-style="normal" font-weight="normal" text-decoration="none" x="800" y="180">UNREGISTERED</text><text fill="#eeeeee" stroke="none" font-family="Arial" font-size="24px" font-style="normal" font-weight="normal" text-decoration="none" x="800" y="210">UNREGISTERED</text><text fill="#eeeeee" stroke="none" font-family="Arial" font-size="24px" font-style="normal" font-weight="normal" text-decoration="none" x="800" y="240">UNREGISTERED</text><text fill="#eeeeee" stroke="none" font-family="Arial" font-size="24px" font-style="normal" font-weight="normal" text-decoration="none" x="800" y="270">UNREGISTERED</text><text fill="#eeeeee" stroke="none" font-family="Arial" font-size="24px" font-style="normal" font-weight="normal" text-decoration="none" x="800" y="300">UNREGISTERED</text><text fill="#eeeeee" stroke="none" font-family="Arial" font-size="24px" font-style="normal" font-weight="normal" text-decoration="none" x="800" y="330">UNREGISTERED</text><text fill="#eeeeee" stroke="none" font-family="Arial" font-size="24px" font-style="normal" font-weight="normal" text-decoration="none" x="800" y="360">UNREGISTERED</text><text fill="#eeeeee" stroke="none" font-family="Arial" font-size="24px" font-style="normal" font-weight="normal" text-decoration="none" x="800" y="390">UNREGISTERED</text><text fill="#eeeeee" stroke="none" font-family="Arial" font-size="24px" font-style="normal" font-weight="normal" text-decoration="none" x="800" y="420">UNREGISTERED</text><text fill="#eeeeee" stroke="none" font-family="Arial" font-size="24px" font-style="normal" font-weight="normal" text-decoration="none" x="800" y="450">UNREGISTERED</text><text fill="#eeeeee" stroke="none" font-family="Arial" font-size="24px" font-style="normal" font-weight="normal" text-decoration="none" x="800" y="480">UNREGISTERED</text><text fill="#eeeeee" stroke="none" font-family="Arial" font-size="24px" font-style="normal" font-weight="normal" text-decoration="none" x="800" y="510">UNREGISTERED</text><text fill="#eeeeee" stroke="none" font-family="Arial" font-size="24px" font-style="normal" font-weight="normal" text-decoration="none" x="800" y="540">UNREGISTERED</text><text fill="#eeeeee" stroke="none" font-family="Arial" font-size="24px" font-style="normal" font-weight="normal" text-decoration="none" x="800" y="570">UNREGISTERED</text><text fill="#eeeeee" stroke="none" font-family="Arial" font-size="24px" font-style="normal" font-weight="normal" text-decoration="none" x="800" y="600">UNREGISTERED</text><text fill="#eeeeee" stroke="none" font-family="Arial" font-size="24px" font-style="normal" font-weight="normal" text-decoration="none" x="800" y="630">UNREGISTERED</text><text fill="#eeeeee" stroke="none" font-family="Arial" font-size="24px" font-style="normal" font-weight="normal" text-decoration="none" x="800" y="660">UNREGISTERED</text><g transform="translate(-206,-86) scale(1,1)"><rect fill="#ffffff" stroke="none" x="216" y="96" width="328" height="21"/></g><g transform="translate(-206,-86) scale(1,1)"><path fill="none" stroke="#000000" d="M 216 96 L 544 96 L 544 117 L 216 117 L 216 96 Z Z" stroke-miterlimit="10" stroke-width="2"/></g><g transform="translate(-206,-86) scale(1,1)"><path fill="none" stroke="#000000" d="M 216 752 L 216 96 L 544 96 L 544 752" stroke-miterlimit="10" stroke-width="2"/></g><g transform="translate(-206,-86) scale(1,1)"><g><path fill="none" stroke="none"/><text fill="#000000" stroke="none" font-family="Arial" font-size="13px" font-style="normal" font-weight="normal" text-decoration="none" x="358" y="110">Usuário</text></g></g><g transform="translate(-206,-86) scale(1,1)"><rect fill="#ffffff" stroke="none" x="544" y="96" width="648" height="21"/></g><g transform="translate(-206,-86) scale(1,1)"><path fill="none" stroke="#000000" d="M 544 96 L 1192 96 L 1192 117 L 544 117 L 544 96 Z Z" stroke-miterlimit="10" stroke-width="2"/></g><g transform="translate(-206,-86) scale(1,1)"><path fill="none" stroke="#000000" d="M 544 751 L 544 96 L 1192 96 L 1192 751" stroke-miterlimit="10" stroke-width="2"/></g><g transform="translate(-206,-86) scale(1,1)"><g><path fill="none" stroke="none"/><text fill="#000000" stroke="none" font-family="Arial" font-size="13px" font-style="normal" font-weight="normal" text-decoration="none" x="828" y="110">Administrador</text></g></g><g transform="translate(-206,-86) scale(1,1)"><path fill="#C0C0C0" stroke="none" d="M 367 184.5 C 367 179.2532944 371.2532944 175 376.5 175 C 381.7467056 175 386 179.2532944 386 184.5 C 386 189.7467056 381.7467056 194 376.5 194 C 371.2532944 194 367 189.7467056 367 184.5 Z" opacity="0.2"/></g><g transform="translate(-206,-86) scale(1,1)"><path fill="#000000" stroke="none" d="M 360 177.5 C 360 172.2532944 364.2532944 168 369.5 168 C 374.7467056 168 379 172.2532944 379 177.5 C 379 182.7467056 374.7467056 187 369.5 187 C 364.2532944 187 360 182.7467056 360 177.5 Z"/></g><g transform="translate(-206,-86) scale(1,1)"><path fill="#C0C0C0" stroke="none" d="M 321 247 L 432 247 Q 442 247 442 257 L 442 277 Q 442 287 432 287 L 321 287 Q 311 287 311 277 L 311 257 Q 311 247 321 247 Z" opacity="0.2"/></g><g transform="translate(-206,-86) scale(1,1)"><path fill="#ffffff" stroke="none" d="M 314 240 L 425 240 Q 435 240 435 250 L 435 270 Q 435 280 425 280 L 314 280 Q 304 280 304 270 L 304 250 Q 304 240 314 240 Z"/></g><g transform="translate(-206,-86) scale(1,1)"><path fill="none" stroke="#000000" d="M 314 240 L 425 240 Q 435 240 435 250 L 435 270 Q 435 280 425 280 L 314 280 Q 304 280 304 270 L 304 250 Q 304 240 314 240 Z" stroke-miterlimit="10"/></g><g transform="translate(-206,-86) scale(1,1)"><g><path fill="none" stroke="none"/><text fill="#000000" stroke="none" font-family="Arial" font-size="13px" font-style="normal" font-weight="bold" text-decoration="none" x="308.5" y="258">Acessa a aplicação</text></g></g><g transform="translate(-206,-86) scale(1,1)"><path fill="#C0C0C0" stroke="none" d="M 329 439 L 437 439 Q 447 439 447 449 L 447 469 Q 447 479 437 479 L 329 479 Q 319 479 319 469 L 319 449 Q 319 439 329 439 Z" opacity="0.2"/></g><g transform="translate(-206,-86) scale(1,1)"><path fill="#ffffff" stroke="none" d="M 322 432 L 430 432 Q 440 432 440 442 L 440 462 Q 440 472 430 472 L 322 472 Q 312 472 312 462 L 312 442 Q 312 432 322 432 Z"/></g><g transform="translate(-206,-86) scale(1,1)"><path fill="none" stroke="#000000" d="M 322 432 L 430 432 Q 440 432 440 442 L 440 462 Q 440 472 430 472 L 322 472 Q 312 472 312 462 L 312 442 Q 312 432 322 432 Z" stroke-miterlimit="10"/></g><g transform="translate(-206,-86) scale(1,1)"><g><path fill="none" stroke="none"/><text fill="#000000" stroke="none" font-family="Arial" font-size="13px" font-style="normal" font-weight="bold" text-decoration="none" x="316.5" y="450">Preencher campos</text></g></g><g transform="translate(-206,-86) scale(1,1)"><path fill="#C0C0C0" stroke="none" d="M 313 343 L 449 343 Q 459 343 459 353 L 459 373 Q 459 383 449 383 L 313 383 Q 303 383 303 373 L 303 353 Q 303 343 313 343 Z" opacity="0.2"/></g><g transform="translate(-206,-86) scale(1,1)"><path fill="#ffffff" stroke="none" d="M 306 336 L 442 336 Q 452 336 452 346 L 452 366 Q 452 376 442 376 L 306 376 Q 296 376 296 366 L 296 346 Q 296 336 306 336 Z"/></g><g transform="translate(-206,-86) scale(1,1)"><path fill="none" stroke="#000000" d="M 306 336 L 442 336 Q 452 336 452 346 L 452 366 Q 452 376 442 376 L 306 376 Q 296 376 296 366 L 296 346 Q 296 336 306 336 Z" stroke-miterlimit="10"/></g><g transform="translate(-206,-86) scale(1,1)"><g><path fill="none" stroke="none"/><text fill="#000000" stroke="none" font-family="Arial" font-size="13px" font-style="normal" font-weight="bold" text-decoration="none" x="300.5" y="354">Cadastrar novo usuário</text></g></g><g transform="translate(-206,-86) scale(1,1)"><path fill="#C0C0C0" stroke="none" d="M 641 447 L 759 447 Q 769 447 769 457 L 769 477 Q 769 487 759 487 L 641 487 Q 631 487 631 477 L 631 457 Q 631 447 641 447 Z" opacity="0.2"/></g><g transform="translate(-206,-86) scale(1,1)"><path fill="#ffffff" stroke="none" d="M 634 440 L 752 440 Q 762 440 762 450 L 762 470 Q 762 480 752 480 L 634 480 Q 624 480 624 470 L 624 450 Q 624 440 634 440 Z"/></g><g transform="translate(-206,-86) scale(1,1)"><path fill="none" stroke="#000000" d="M 634 440 L 752 440 Q 762 440 762 450 L 762 470 Q 762 480 752 480 L 634 480 Q 624 480 624 470 L 624 450 Q 624 440 634 440 Z" stroke-miterlimit="10"/></g><g transform="translate(-206,-86) scale(1,1)"><g><path fill="none" stroke="none"/><text fill="#000000" stroke="none" font-family="Arial" font-size="13px" font-style="normal" font-weight="bold" text-decoration="none" x="628.5" y="458">Verifica documentos</text></g></g><g transform="translate(-206,-86) scale(1,1)"><path fill="#C0C0C0" stroke="none" d="M 847 471.5 L 871.5 455 L 895 471.5 L 871.5 487 L 847 471.5" opacity="0.2"/></g><g transform="translate(-206,-86) scale(1,1)"><path fill="#ffffff" stroke="none" d="M 840 464 L 864 448 L 888 464 L 864 480 L 840 464"/></g><g transform="translate(-206,-86) scale(1,1)"><path fill="none" stroke="#000000" d="M 840 464 L 864 448 L 888 464 L 864 480 L 840 464 L 840 464" stroke-miterlimit="10"/></g><g transform="translate(-206,-86) scale(1,1)"><path fill="none" stroke="#000000" d="M 369 187 L 369 240" stroke-miterlimit="10"/></g><g transform="translate(-206,-86) scale(1,1)"><path fill="none" stroke="#000000" d="M 364.790482243984 229.83732514237585 L 369 240 L 373.209517756016 229.83732514237585" stroke-miterlimit="10"/></g><g transform="translate(-206,-86) scale(1,1)"><path fill="none" stroke="#000000" d="M 370 280 L 370 336" stroke-miterlimit="10"/></g><g transform="translate(-206,-86) scale(1,1)"><path fill="none" stroke="#000000" d="M 365.790482243984 325.83732514237585 L 370 336 L 374.209517756016 325.83732514237585" stroke-miterlimit="10"/></g><g transform="translate(-206,-86) scale(1,1)"><path fill="none" stroke="#000000" d="M 374 376 L 374 432" stroke-miterlimit="10"/></g><g transform="translate(-206,-86) scale(1,1)"><path fill="none" stroke="#000000" d="M 369.790482243984 421.83732514237585 L 374 432 L 378.209517756016 421.83732514237585" stroke-miterlimit="10"/></g><g transform="translate(-206,-86) scale(1,1)"><path fill="none" stroke="#000000" d="M 762 463 L 840 463" stroke-miterlimit="10"/></g><g transform="translate(-206,-86) scale(1,1)"><path fill="none" stroke="#000000" d="M 829.8373251423759 467.209517756016 L 840 463 L 829.8373251423758 458.790482243984" stroke-miterlimit="10"/></g><g transform="translate(-206,-86) scale(1,1)"><g><path fill="none" stroke="none"/><text fill="#000000" stroke="none" font-family="Arial" font-size="13px" font-style="normal" font-weight="normal" text-decoration="none" x="791.5" y="411">Aprova o cadastro ?</text></g></g><g transform="translate(-206,-86) scale(1,1)"><path fill="#C0C0C0" stroke="none" d="M 1009 455 L 1105 455 Q 1115 455 1115 465 L 1115 485 Q 1115 495 1105 495 L 1009 495 Q 999 495 999 485 L 999 465 Q 999 455 1009 455 Z" opacity="0.2"/></g><g transform="translate(-206,-86) scale(1,1)"><path fill="#ffffff" stroke="none" d="M 1002 448 L 1098 448 Q 1108 448 1108 458 L 1108 478 Q 1108 488 1098 488 L 1002 488 Q 992 488 992 478 L 992 458 Q 992 448 1002 448 Z"/></g><g transform="translate(-206,-86) scale(1,1)"><path fill="none" stroke="#000000" d="M 1002 448 L 1098 448 Q 1108 448 1108 458 L 1108 478 Q 1108 488 1098 488 L 1002 488 Q 992 488 992 478 L 992 458 Q 992 448 1002 448 Z" stroke-miterlimit="10"/></g><g transform="translate(-206,-86) scale(1,1)"><g><path fill="none" stroke="none"/><text fill="#000000" stroke="none" font-family="Arial" font-size="13px" font-style="normal" font-weight="bold" text-decoration="none" x="996.5" y="466">Cadastra usuário</text></g></g><g transform="translate(-206,-86) scale(1,1)"><path fill="none" stroke="#000000" d="M 888 467 L 992 467" stroke-miterlimit="10"/></g><g transform="translate(-206,-86) scale(1,1)"><path fill="none" stroke="#000000" d="M 981.8373251423759 471.209517756016 L 992 467 L 981.8373251423758 462.790482243984" stroke-miterlimit="10"/></g><g transform="translate(-206,-86) scale(1,1)"><g><path fill="none" stroke="none"/><text fill="#000000" stroke="none" font-family="Arial" font-size="13px" font-style="normal" font-weight="normal" text-decoration="none" x="928.5" y="457">Sim</text></g></g><g transform="translate(-206,-86) scale(1,1)"><path fill="#C0C0C0" stroke="none" d="M 577 575 L 771 575 Q 781 575 781 585 L 781 605 Q 781 615 771 615 L 577 615 Q 567 615 567 605 L 567 585 Q 567 575 577 575 Z" opacity="0.2"/></g><g transform="translate(-206,-86) scale(1,1)"><path fill="#ffffff" stroke="none" d="M 570 568 L 764 568 Q 774 568 774 578 L 774 598 Q 774 608 764 608 L 570 608 Q 560 608 560 598 L 560 578 Q 560 568 570 568 Z"/></g><g transform="translate(-206,-86) scale(1,1)"><path fill="none" stroke="#000000" d="M 570 568 L 764 568 Q 774 568 774 578 L 774 598 Q 774 608 764 608 L 570 608 Q 560 608 560 598 L 560 578 Q 560 568 570 568 Z" stroke-miterlimit="10"/></g><g transform="translate(-206,-86) scale(1,1)"><g><path fill="none" stroke="none"/><text fill="#000000" stroke="none" font-family="Arial" font-size="13px" font-style="normal" font-weight="bold" text-decoration="none" x="564.5" y="586">Retorna o motivo da reprovação</text></g></g><g transform="translate(-206,-86) scale(1,1)"><path fill="none" stroke="#000000" d="M 864 480 L 864 588 L 774 588" stroke-miterlimit="10"/></g><g transform="translate(-206,-86) scale(1,1)"><path fill="none" stroke="#000000" d="M 784.1626748576241 583.790482243984 L 774 588 L 784.1626748576241 592.209517756016" stroke-miterlimit="10"/></g><g transform="translate(-206,-86) scale(1,1)"><g><path fill="none" stroke="none"/><text fill="#000000" stroke="none" font-family="Arial" font-size="13px" font-style="normal" font-weight="normal" text-decoration="none" x="831.5" y="498">Não</text></g></g><g transform="translate(-206,-86) scale(1,1)"><path fill="none" stroke="#000000" d="M 560 588 L 376 588 L 376 472" stroke-miterlimit="10"/></g><g transform="translate(-206,-86) scale(1,1)"><path fill="none" stroke="#000000" d="M 380.209517756016 482.16267485762415 L 376 472 L 371.790482243984 482.16267485762415" stroke-miterlimit="10"/></g><g transform="translate(-206,-86) scale(1,1)"><path fill="none" stroke="#000000" d="M 440 456 L 624 456" stroke-miterlimit="10"/></g><g transform="translate(-206,-86) scale(1,1)"><path fill="none" stroke="#000000" d="M 613.8373251423759 460.209517756016 L 624 456 L 613.8373251423758 451.790482243984" stroke-miterlimit="10"/></g><g transform="translate(-206,-86) scale(1,1)"><path fill="#C0C0C0" stroke="none" d="M 953 583 L 1157 583 Q 1167 583 1167 593 L 1167 613 Q 1167 623 1157 623 L 953 623 Q 943 623 943 613 L 943 593 Q 943 583 953 583 Z" opacity="0.2"/></g><g transform="translate(-206,-86) scale(1,1)"><path fill="#ffffff" stroke="none" d="M 946 576 L 1150 576 Q 1160 576 1160 586 L 1160 606 Q 1160 616 1150 616 L 946 616 Q 936 616 936 606 L 936 586 Q 936 576 946 576 Z"/></g><g transform="translate(-206,-86) scale(1,1)"><path fill="none" stroke="#000000" d="M 946 576 L 1150 576 Q 1160 576 1160 586 L 1160 606 Q 1160 616 1150 616 L 946 616 Q 936 616 936 606 L 936 586 Q 936 576 946 576 Z" stroke-miterlimit="10"/></g><g transform="translate(-206,-86) scale(1,1)"><g><path fill="none" stroke="none"/><text fill="#000000" stroke="none" font-family="Arial" font-size="13px" font-style="normal" font-weight="bold" text-decoration="none" x="940.5" y="594">Envia Comprovante de aprovação</text></g></g><g transform="translate(-206,-86) scale(1,1)"><path fill="#C0C0C0" stroke="none" d="M 1047 707.5 C 1047 700.59644 1052.59644 695 1059.5 695 C 1066.40356 695 1072 700.59644 1072 707.5 C 1072 714.40356 1066.40356 720 1059.5 720 C 1052.59644 720 1047 714.40356 1047 707.5 Z" opacity="0.2"/></g><g transform="translate(-206,-86) scale(1,1)"><path fill="none" stroke="#000000" d="M 1040 700.5 C 1040 693.59644 1045.59644 688 1052.5 688 C 1059.40356 688 1065 693.59644 1065 700.5 C 1065 707.40356 1059.40356 713 1052.5 713 C 1045.59644 713 1040 707.40356 1040 700.5 Z" stroke-miterlimit="10"/></g><g transform="translate(-206,-86) scale(1,1)"><path fill="#000000" stroke="none" d="M 1045 700.5 C 1045 696.357864 1048.357864 693 1052.5 693 C 1056.642136 693 1060 696.357864 1060 700.5 C 1060 704.642136 1056.642136 708 1052.5 708 C 1048.357864 708 1045 704.642136 1045 700.5 Z"/></g><g transform="translate(-206,-86) scale(1,1)"><path fill="none" stroke="#000000" d="M 1050 488 L 1050 576" stroke-miterlimit="10"/></g><g transform="translate(-206,-86) scale(1,1)"><path fill="none" stroke="#000000" d="M 1045.7904822439841 565.8373251423759 L 1050 576 L 1054.2095177560159 565.8373251423759" stroke-miterlimit="10"/></g><g transform="translate(-206,-86) scale(1,1)"><path fill="none" stroke="#000000" d="M 1049 616 L 1049 688" stroke-miterlimit="10"/></g><g transform="translate(-206,-86) scale(1,1)"><path fill="none" stroke="#000000" d="M 1044.7904822439841 677.8373251423759 L 1049 688 L 1053.2095177560159 677.8373251423759" stroke-miterlimit="10"/></g></g></svg>