<svg version="1.1" xmlns="http://www.w3.org/2000/svg" xmlns:xlink="http://www.w3.org/1999/xlink" width="1517" height="182"><defs/><g><text fill="#eeeeee" stroke="none" font-family="Arial" font-size="24px" font-style="normal" font-weight="normal" text-decoration="none" x="0" y="0">UNREGISTERED</text><text fill="#eeeeee" stroke="none" font-family="Arial" font-size="24px" font-style="normal" font-weight="normal" text-decoration="none" x="0" y="30">UNREGISTERED</text><text fill="#eeeeee" stroke="none" font-family="Arial" font-size="24px" font-style="normal" font-weight="normal" text-decoration="none" x="0" y="60">UNREGISTERED</text><text fill="#eeeeee" stroke="none" font-family="Arial" font-size="24px" font-style="normal" font-weight="normal" text-decoration="none" x="0" y="90">UNREGISTERED</text><text fill="#eeeeee" stroke="none" font-family="Arial" font-size="24px" font-style="normal" font-weight="normal" text-decoration="none" x="0" y="120">UNREGISTERED</text><text fill="#eeeeee" stroke="none" font-family="Arial" font-size="24px" font-style="normal" font-weight="normal" text-decoration="none" x="0" y="150">UNREGISTERED</text><text fill="#eeeeee" stroke="none" font-family="Arial" font-size="24px" font-style="normal" font-weight="normal" text-decoration="none" x="0" y="180">UNREGISTERED</text><text fill="#eeeeee" stroke="none" font-family="Arial" font-size="24px" font-style="normal" font-weight="normal" text-decoration="none" x="200" y="0">UNREGISTERED</text><text fill="#eeeeee" stroke="none" font-family="Arial" font-size="24px" font-style="normal" font-weight="normal" text-decoration="none" x="200" y="30">UNREGISTERED</text><text fill="#eeeeee" stroke="none" font-family="Arial" font-size="24px" font-style="normal" font-weight="normal" text-decoration="none" x="200" y="60">UNREGISTERED</text><text fill="#eeeeee" stroke="none" font-family="Arial" font-size="24px" font-style="normal" font-weight="normal" text-decoration="none" x="200" y="90">UNREGISTERED</text><text fill="#eeeeee" stroke="none" font-family="Arial" font-size="24px" font-style="normal" font-weight="normal" text-decoration="none" x="200" y="120">UNREGISTERED</text><text fill="#eeeeee" stroke="none" font-family="Arial" font-size="24px" font-style="normal" font-weight="normal" text-decoration="none" x="200" y="150">UNREGISTERED</text><text fill="#eeeeee" stroke="none" font-family="Arial" font-size="24px" font-style="normal" font-weight="normal" text-decoration="none" x="200" y="180">UNREGISTERED</text><text fill="#eeeeee" stroke="none" font-family="Arial" font-size="24px" font-style="normal" font-weight="normal" text-decoration="none" x="400" y="0">UNREGISTERED</text><text fill="#eeeeee" stroke="none" font-family="Arial" font-size="24px" font-style="normal" font-weight="normal" text-decoration="none" x="400" y="30">UNREGISTERED</text><text fill="#eeeeee" stroke="none" font-family="Arial" font-size="24px" font-style="normal" font-weight="normal" text-decoration="none" x="400" y="60">UNREGISTERED</text><text fill="#eeeeee" stroke="none" font-family="Arial" font-size="24px" font-style="normal" font-weight="normal" text-decoration="none" x="400" y="90">UNREGISTERED</text><text fill="#eeeeee" stroke="none" font-family="Arial" font-size="24px" font-style="normal" font-weight="normal" text-decoration="none" x="400" y="120">UNREGISTERED</text><text fill="#eeeeee" stroke="none" font-family="Arial" font-size="24px" font-style="normal" font-weight="normal" text-decoration="none" x="400" y="150">UNREGISTERED</text><text fill="#eeeeee" stroke="none" font-family="Arial" font-size="24px" font-style="normal" font-weight="normal" text-decoration="none" x="400" y="180">UNREGISTERED</text><text fill="#eeeeee" stroke="none" font-family="Arial" font-size="24px" font-style="normal" font-weight="normal" text-decoration="none" x="600" y="0">UNREGISTERED</text><text fill="#eeeeee" stroke="none" font-family="Arial" font-size="24px" font-style="normal" font-weight="normal" text-decoration="none" x="600" y="30">UNREGISTERED</text><text fill="#eeeeee" stroke="none" font-family="Arial" font-size="24px" font-style="normal" font-weight="normal" text-decoration="none" x="600" y="60">UNREGISTERED</text><text fill="#eeeeee" stroke="none" font-family="Arial" font-size="24px" font-style="normal" font-weight="normal" text-decoration="none" x="600" y="90">UNREGISTERED</text><text fill="#eeeeee" stroke="none" font-family="Arial" font-size="24px" font-style="normal" font-weight="normal" text-decoration="none" x="600" y="120">UNREGISTERED</text><text fill="#eeeeee" stroke="none" font-family="Arial" font-size="24px" font-style="normal" font-weight="normal" text-decoration="none" x="600" y="150">UNREGISTERED</text><text fill="#eeeeee" stroke="none" font-family="Arial" font-size="24px" font-style="normal" font-weight="normal" text-decoration="none" x="600" y="180">UNREGISTERED</text><text fill="#eeeeee" stroke="none" font-family="Arial" font-size="24px" font-style="normal" font-weight="normal" text-decoration="none" x="800" y="0">UNREGISTERED</text><text fill="#eeeeee" stroke="none" font-family="Arial" font-size="24px" font-style="normal" font-weight="normal" text-decoration="none" x="800" y="30">UNREGISTERED</text><text fill="#eeeeee" stroke="none" font-family="Arial" font-size="24px" font-style="normal" font-weight="normal" text-decoration="none" x="800" y="60">UNREGISTERED</text><text fill="#eeeeee" stroke="none" font-family="Arial" font-size="24px" font-style="normal" font-weight="normal" text-decoration="none" x="800" y="90">UNREGISTERED</text><text fill="#eeeeee" stroke="none" font-family="Arial" font-size="24px" font-style="normal" font-weight="normal" text-decoration="none" x="800" y="120">UNREGISTERED</text><text fill="#eeeeee" stroke="none" font-family="Arial" font-size="24px" font-style="normal" font-weight="normal" text-decoration="none" x="800" y="150">UNREGISTERED</text><text fill="#eeeeee" stroke="none" font-family="Arial" font-size="24px" font-style="normal" font-weight="normal" text-decoration="none" x="800" y="180">UNREGISTERED</text><text fill="#eeeeee" stroke="none" font-family="Arial" font-size="24px" font-style="normal" font-weight="normal" text-decoration="none" x="1000" y="0">UNREGISTERED</text><text fill="#eeeeee" stroke="none" font-family="Arial" font-size="24px" font-style="normal" font-weight="normal" text-decoration="none" x="1000" y="30">UNREGISTERED</text><text fill="#eeeeee" stroke="none" font-family="Arial" font-size="24px" font-style="normal" font-weight="normal" text-decoration="none" x="1000" y="60">UNREGISTERED</text><text fill="#eeeeee" stroke="none" font-family="Arial" font-size="24px" font-style="normal" font-weight="normal" text-decoration="none" x="1000" y="90">UNREGISTERED</text><text fill="#eeeeee" stroke="none" font-family="Arial" font-size="24px" font-style="normal" font-weight="normal" text-decoration="none" x="1000" y="120">UNREGISTERED</text><text fill="#eeeeee" stroke="none" font-family="Arial" font-size="24px" font-style="normal" font-weight="normal" text-decoration="none" x="1000" y="150">UNREGISTERED</text><text fill="#eeeeee" stroke="none" font-family="Arial" font-size="24px" font-style="normal" font-weight="normal" text-decoration="none" x="1000" y="180">UNREGISTERED</text><text fill="#eeeeee" stroke="none" font-family="Arial" font-size="24px" font-style="normal" font-weight="normal" text-decoration="none" x="1200" y="0">UNREGISTERED</text><text fill="#eeeeee" stroke="none" font-family="Arial" font-size="24px" font-style="normal" font-weight="normal" text-decoration="none" x="1200" y="30">UNREGISTERED</text><text fill="#eeeeee" stroke="none" font-family="Arial" font-size="24px" font-style="normal" font-weight="normal" text-decoration="none" x="1200" y="60">UNREGISTERED</text><text fill="#eeeeee" stroke="none" font-family="Arial" font-size="24px" font-style="normal" font-weight="normal" text-decoration="none" x="1200" y="90">UNREGISTERED</text><text fill="#eeeeee" stroke="none" font-family="Arial" font-size="24px" font-style="normal" font-weight="normal" text-decoration="none" x="1200" y="120">UNREGISTERED</text><text fill="#eeeeee" stroke="none" font-family="Arial" font-size="24px" font-style="normal" font-weight="normal" text-decoration="none" x="1200" y="150">UNREGISTERED</text><text fill="#eeeeee" stroke="none" font-family="Arial" font-size="24px" font-style="normal" font-weight="normal" text-decoration="none" x="1200" y="180">UNREGISTERED</text><text fill="#eeeeee" stroke="none" font-family="Arial" font-size="24px" font-style="normal" font-weight="normal" text-decoration="none" x="1400" y="0">UNREGISTERED</text><text fill="#eeeeee" stroke="none" font-family="Arial" font-size="24px" font-style="normal" font-weight="normal" text-decoration="none" x="1400" y="30">UNREGISTERED</text><text fill="#eeeeee" stroke="none" font-family="Arial" font-size="24px" font-style="normal" font-weight="normal" text-decoration="none" x="1400" y="60">UNREGISTERED</text><text fill="#eeeeee" stroke="none" font-family="Arial" font-size="24px" font-style="normal" font-weight="normal" text-decoration="none" x="1400" y="90">UNREGISTERED</text><text fill="#eeeeee" stroke="none" font-family="Arial" font-size="24px" font-style="normal" font-weight="normal" text-decoration="none" x="1400" y="120">UNREGISTERED</text><text fill="#eeeeee" stroke="none" font-family="Arial" font-size="24px" font-style="normal" font-weight="normal" text-decoration="none" x="1400" y="150">UNREGISTERED</text><text fill="#eeeeee" stroke="none" font-family="Arial" font-size="24px" font-style="normal" font-weight="normal" text-decoration="none" x="1400" y="180">UNREGISTERED</text><g transform="translate(-118,-385) scale(1,1)"><path fill="#C0C0C0" stroke="none" d="M 135 424.5 C 135 419.2532944 139.2532944 415 144.5 415 C 149.7467056 415 154 419.2532944 154 424.5 C 154 429.7467056 149.7467056 434 144.5 434 C 139.2532944 434 135 429.7467056 135 424.5 Z" opacity="0.2"/></g><g transform="translate(-118,-385) scale(1,1)"><path fill="#000000" stroke="none" d="M 128 417.5 C 128 412.2532944 132.2532944 408 137.5 408 C 142.7467056 408 147 412.2532944 147 417.5 C 147 422.7467056 142.7467056 427 137.5 427 C 132.2532944 427 128 422.7467056 128 417.5 Z"/></g><g transform="translate(-118,-385) scale(1,1)"><path fill="#C0C0C0" stroke="none" d="M 569 407 L 765 407 Q 775 407 775 417 L 775 436 Q 775 446 765 446 L 569 446 Q 559 446 559 436 L 559 417 Q 559 407 569 407 Z" opacity="0.2"/></g><g transform="translate(-118,-385) scale(1,1)"><path fill="#ffffff" stroke="none" d="M 562 400 L 758 400 Q 768 400 768 410 L 768 429 Q 768 439 758 439 L 562 439 Q 552 439 552 429 L 552 410 Q 552 400 562 400 Z"/></g><g transform="translate(-118,-385) scale(1,1)"><path fill="none" stroke="#000000" d="M 562 400 L 758 400 Q 768 400 768 410 L 768 429 Q 768 439 758 439 L 562 439 Q 552 439 552 429 L 552 410 Q 552 400 562 400 Z" stroke-miterlimit="10"/></g><g transform="translate(-118,-385) scale(1,1)"><g><path fill="none" stroke="none"/><text fill="#000000" stroke="none" font-family="Arial" font-size="13px" font-style="normal" font-weight="bold" text-decoration="none" x="556.5" y="418">Ativar Ordem Fracicnada ou lote</text></g></g><g transform="translate(-118,-385) scale(1,1)"><path fill="none" stroke="#000000" d="M 148 417 L 551 419" stroke-miterlimit="10"/></g><g transform="translate(-118,-385) scale(1,1)"><path fill="none" stroke="#000000" d="M 540.8165596395032 423.15903142861487 L 551 419 L 540.8583409389424 414.74009959162555" stroke-miterlimit="10"/></g><g transform="translate(-118,-385) scale(1,1)"><g><path fill="none" stroke="none"/><text fill="#000000" stroke="none" font-family="Arial" font-size="13px" font-style="normal" font-weight="normal" text-decoration="none" x="166.5" y="408"> [Recebe solicitação para ativar Ordem  Fracionada ou por lote]</text></g></g><g transform="translate(-118,-385) scale(1,1)"><path fill="#C0C0C0" stroke="none" d="M 1193 407 L 1306 407 Q 1316 407 1316 417 L 1316 436 Q 1316 446 1306 446 L 1193 446 Q 1183 446 1183 436 L 1183 417 Q 1183 407 1193 407 Z" opacity="0.2"/></g><g transform="translate(-118,-385) scale(1,1)"><path fill="#ffffff" stroke="none" d="M 1186 400 L 1299 400 Q 1309 400 1309 410 L 1309 429 Q 1309 439 1299 439 L 1186 439 Q 1176 439 1176 429 L 1176 410 Q 1176 400 1186 400 Z"/></g><g transform="translate(-118,-385) scale(1,1)"><path fill="none" stroke="#000000" d="M 1186 400 L 1299 400 Q 1309 400 1309 410 L 1309 429 Q 1309 439 1299 439 L 1186 439 Q 1176 439 1176 429 L 1176 410 Q 1176 400 1186 400 Z" stroke-miterlimit="10"/></g><g transform="translate(-118,-385) scale(1,1)"><g><path fill="none" stroke="none"/><text fill="#000000" stroke="none" font-family="Arial" font-size="13px" font-style="normal" font-weight="bold" text-decoration="none" x="1180.5" y="418">Valida a solicitação</text></g></g><g transform="translate(-118,-385) scale(1,1)"><path fill="none" stroke="#000000" d="M 768 416 L 1176 416" stroke-miterlimit="10"/></g><g transform="translate(-118,-385) scale(1,1)"><path fill="none" stroke="#000000" d="M 1165.837325142376 420.209517756016 L 1176 416 L 1165.837325142376 411.790482243984" stroke-miterlimit="10"/></g><g transform="translate(-118,-385) scale(1,1)"><g><path fill="none" stroke="none"/><text fill="#000000" stroke="none" font-family="Arial" font-size="13px" font-style="normal" font-weight="normal" text-decoration="none" x="873.5" y="406"> [Envia Solicitação para validação]</text></g></g><g transform="translate(-118,-385) scale(1,1)"><path fill="#C0C0C0" stroke="none" d="M 1607 427.5 C 1607 420.59644 1612.59644 415 1619.5 415 C 1626.40356 415 1632 420.59644 1632 427.5 C 1632 434.40356 1626.40356 440 1619.5 440 C 1612.59644 440 1607 434.40356 1607 427.5 Z" opacity="0.2"/></g><g transform="translate(-118,-385) scale(1,1)"><path fill="none" stroke="#000000" d="M 1600 420.5 C 1600 413.59644 1605.59644 408 1612.5 408 C 1619.40356 408 1625 413.59644 1625 420.5 C 1625 427.40356 1619.40356 433 1612.5 433 C 1605.59644 433 1600 427.40356 1600 420.5 Z" stroke-miterlimit="10"/></g><g transform="translate(-118,-385) scale(1,1)"><path fill="#000000" stroke="none" d="M 1605 420.5 C 1605 416.357864 1608.357864 413 1612.5 413 C 1616.642136 413 1620 416.357864 1620 420.5 C 1620 424.642136 1616.642136 428 1612.5 428 C 1608.357864 428 1605 424.642136 1605 420.5 Z"/></g><g transform="translate(-118,-385) scale(1,1)"><path fill="none" stroke="#000000" d="M 1310 419 L 1599 420" stroke-miterlimit="10"/></g><g transform="translate(-118,-385) scale(1,1)"><path fill="none" stroke="#000000" d="M 1588.8228202626826 424.1743278014955 L 1599 420 L 1588.8519516990557 415.7553426897216" stroke-miterlimit="10"/></g><g transform="translate(-118,-385) scale(1,1)"><g><path fill="none" stroke="none"/><text fill="#000000" stroke="none" font-family="Arial" font-size="13px" font-style="normal" font-weight="normal" text-decoration="none" x="1340.5" y="409"> [Solicitação aprovada e ordem ativada]</text></g></g><g transform="translate(-118,-385) scale(1,1)"><path fill="none" stroke="#000000" d="M 1248 439 L 1248 536 L 672 536 L 672 439" stroke-miterlimit="10"/></g><g transform="translate(-118,-385) scale(1,1)"><path fill="none" stroke="#000000" d="M 676.209517756016 449.16267485762415 L 672 439 L 667.790482243984 449.16267485762415" stroke-miterlimit="10"/></g><g transform="translate(-118,-385) scale(1,1)"><g><path fill="none" stroke="none"/><text fill="#000000" stroke="none" font-family="Arial" font-size="13px" font-style="normal" font-weight="normal" text-decoration="none" x="820.5" y="556"> [Solicitação nao aprovada e ordem não ativada]</text></g></g></g></svg>