<svg version="1.1" xmlns="http://www.w3.org/2000/svg" xmlns:xlink="http://www.w3.org/1999/xlink" width="1089" height="434"><defs/><g><text fill="#eeeeee" stroke="none" font-family="Arial" font-size="24px" font-style="normal" font-weight="normal" text-decoration="none" x="0" y="0">UNREGISTERED</text><text fill="#eeeeee" stroke="none" font-family="Arial" font-size="24px" font-style="normal" font-weight="normal" text-decoration="none" x="0" y="30">UNREGISTERED</text><text fill="#eeeeee" stroke="none" font-family="Arial" font-size="24px" font-style="normal" font-weight="normal" text-decoration="none" x="0" y="60">UNREGISTERED</text><text fill="#eeeeee" stroke="none" font-family="Arial" font-size="24px" font-style="normal" font-weight="normal" text-decoration="none" x="0" y="90">UNREGISTERED</text><text fill="#eeeeee" stroke="none" font-family="Arial" font-size="24px" font-style="normal" font-weight="normal" text-decoration="none" x="0" y="120">UNREGISTERED</text><text fill="#eeeeee" stroke="none" font-family="Arial" font-size="24px" font-style="normal" font-weight="normal" text-decoration="none" x="0" y="150">UNREGISTERED</text><text fill="#eeeeee" stroke="none" font-family="Arial" font-size="24px" font-style="normal" font-weight="normal" text-decoration="none" x="0" y="180">UNREGISTERED</text><text fill="#eeeeee" stroke="none" font-family="Arial" font-size="24px" font-style="normal" font-weight="normal" text-decoration="none" x="0" y="210">UNREGISTERED</text><text fill="#eeeeee" stroke="none" font-family="Arial" font-size="24px" font-style="normal" font-weight="normal" text-decoration="none" x="0" y="240">UNREGISTERED</text><text fill="#eeeeee" stroke="none" font-family="Arial" font-size="24px" font-style="normal" font-weight="normal" text-decoration="none" x="0" y="270">UNREGISTERED</text><text fill="#eeeeee" stroke="none" font-family="Arial" font-size="24px" font-style="normal" font-weight="normal" text-decoration="none" x="0" y="300">UNREGISTERED</text><text fill="#eeeeee" stroke="none" font-family="Arial" font-size="24px" font-style="normal" font-weight="normal" text-decoration="none" x="0" y="330">UNREGISTERED</text><text fill="#eeeeee" stroke="none" font-family="Arial" font-size="24px" font-style="normal" font-weight="normal" text-decoration="none" x="0" y="360">UNREGISTERED</text><text fill="#eeeeee" stroke="none" font-family="Arial" font-size="24px" font-style="normal" font-weight="normal" text-decoration="none" x="0" y="390">UNREGISTERED</text><text fill="#eeeeee" stroke="none" font-family="Arial" font-size="24px" font-style="normal" font-weight="normal" text-decoration="none" x="0" y="420">UNREGISTERED</text><text fill="#eeeeee" stroke="none" font-family="Arial" font-size="24px" font-style="normal" font-weight="normal" text-decoration="none" x="200" y="0">UNREGISTERED</text><text fill="#eeeeee" stroke="none" font-family="Arial" font-size="24px" font-style="normal" font-weight="normal" text-decoration="none" x="200" y="30">UNREGISTERED</text><text fill="#eeeeee" stroke="none" font-family="Arial" font-size="24px" font-style="normal" font-weight="normal" text-decoration="none" x="200" y="60">UNREGISTERED</text><text fill="#eeeeee" stroke="none" font-family="Arial" font-size="24px" font-style="normal" font-weight="normal" text-decoration="none" x="200" y="90">UNREGISTERED</text><text fill="#eeeeee" stroke="none" font-family="Arial" font-size="24px" font-style="normal" font-weight="normal" text-decoration="none" x="200" y="120">UNREGISTERED</text><text fill="#eeeeee" stroke="none" font-family="Arial" font-size="24px" font-style="normal" font-weight="normal" text-decoration="none" x="200" y="150">UNREGISTERED</text><text fill="#eeeeee" stroke="none" font-family="Arial" font-size="24px" font-style="normal" font-weight="normal" text-decoration="none" x="200" y="180">UNREGISTERED</text><text fill="#eeeeee" stroke="none" font-family="Arial" font-size="24px" font-style="normal" font-weight="normal" text-decoration="none" x="200" y="210">UNREGISTERED</text><text fill="#eeeeee" stroke="none" font-family="Arial" font-size="24px" font-style="normal" font-weight="normal" text-decoration="none" x="200" y="240">UNREGISTERED</text><text fill="#eeeeee" stroke="none" font-family="Arial" font-size="24px" font-style="normal" font-weight="normal" text-decoration="none" x="200" y="270">UNREGISTERED</text><text fill="#eeeeee" stroke="none" font-family="Arial" font-size="24px" font-style="normal" font-weight="normal" text-decoration="none" x="200" y="300">UNREGISTERED</text><text fill="#eeeeee" stroke="none" font-family="Arial" font-size="24px" font-style="normal" font-weight="normal" text-decoration="none" x="200" y="330">UNREGISTERED</text><text fill="#eeeeee" stroke="none" font-family="Arial" font-size="24px" font-style="normal" font-weight="normal" text-decoration="none" x="200" y="360">UNREGISTERED</text><text fill="#eeeeee" stroke="none" font-family="Arial" font-size="24px" font-style="normal" font-weight="normal" text-decoration="none" x="200" y="390">UNREGISTERED</text><text fill="#eeeeee" stroke="none" font-family="Arial" font-size="24px" font-style="normal" font-weight="normal" text-decoration="none" x="200" y="420">UNREGISTERED</text><text fill="#eeeeee" stroke="none" font-family="Arial" font-size="24px" font-style="normal" font-weight="normal" text-decoration="none" x="400" y="0">UNREGISTERED</text><text fill="#eeeeee" stroke="none" font-family="Arial" font-size="24px" font-style="normal" font-weight="normal" text-decoration="none" x="400" y="30">UNREGISTERED</text><text fill="#eeeeee" stroke="none" font-family="Arial" font-size="24px" font-style="normal" font-weight="normal" text-decoration="none" x="400" y="60">UNREGISTERED</text><text fill="#eeeeee" stroke="none" font-family="Arial" font-size="24px" font-style="normal" font-weight="normal" text-decoration="none" x="400" y="90">UNREGISTERED</text><text fill="#eeeeee" stroke="none" font-family="Arial" font-size="24px" font-style="normal" font-weight="normal" text-decoration="none" x="400" y="120">UNREGISTERED</text><text fill="#eeeeee" stroke="none" font-family="Arial" font-size="24px" font-style="normal" font-weight="normal" text-decoration="none" x="400" y="150">UNREGISTERED</text><text fill="#eeeeee" stroke="none" font-family="Arial" font-size="24px" font-style="normal" font-weight="normal" text-decoration="none" x="400" y="180">UNREGISTERED</text><text fill="#eeeeee" stroke="none" font-family="Arial" font-size="24px" font-style="normal" font-weight="normal" text-decoration="none" x="400" y="210">UNREGISTERED</text><text fill="#eeeeee" stroke="none" font-family="Arial" font-size="24px" font-style="normal" font-weight="normal" text-decoration="none" x="400" y="240">UNREGISTERED</text><text fill="#eeeeee" stroke="none" font-family="Arial" font-size="24px" font-style="normal" font-weight="normal" text-decoration="none" x="400" y="270">UNREGISTERED</text><text fill="#eeeeee" stroke="none" font-family="Arial" font-size="24px" font-style="normal" font-weight="normal" text-decoration="none" x="400" y="300">UNREGISTERED</text><text fill="#eeeeee" stroke="none" font-family="Arial" font-size="24px" font-style="normal" font-weight="normal" text-decoration="none" x="400" y="330">UNREGISTERED</text><text fill="#eeeeee" stroke="none" font-family="Arial" font-size="24px" font-style="normal" font-weight="normal" text-decoration="none" x="400" y="360">UNREGISTERED</text><text fill="#eeeeee" stroke="none" font-family="Arial" font-size="24px" font-style="normal" font-weight="normal" text-decoration="none" x="400" y="390">UNREGISTERED</text><text fill="#eeeeee" stroke="none" font-family="Arial" font-size="24px" font-style="normal" font-weight="normal" text-decoration="none" x="400" y="420">UNREGISTERED</text><text fill="#eeeeee" stroke="none" font-family="Arial" font-size="24px" font-style="normal" font-weight="normal" text-decoration="none" x="600" y="0">UNREGISTERED</text><text fill="#eeeeee" stroke="none" font-family="Arial" font-size="24px" font-style="normal" font-weight="normal" text-decoration="none" x="600" y="30">UNREGISTERED</text><text fill="#eeeeee" stroke="none" font-family="Arial" font-size="24px" font-style="normal" font-weight="normal" text-decoration="none" x="600" y="60">UNREGISTERED</text><text fill="#eeeeee" stroke="none" font-family="Arial" font-size="24px" font-style="normal" font-weight="normal" text-decoration="none" x="600" y="90">UNREGISTERED</text><text fill="#eeeeee" stroke="none" font-family="Arial" font-size="24px" font-style="normal" font-weight="normal" text-decoration="none" x="600" y="120">UNREGISTERED</text><text fill="#eeeeee" stroke="none" font-family="Arial" font-size="24px" font-style="normal" font-weight="normal" text-decoration="none" x="600" y="150">UNREGISTERED</text><text fill="#eeeeee" stroke="none" font-family="Arial" font-size="24px" font-style="normal" font-weight="normal" text-decoration="none" x="600" y="180">UNREGISTERED</text><text fill="#eeeeee" stroke="none" font-family="Arial" font-size="24px" font-style="normal" font-weight="normal" text-decoration="none" x="600" y="210">UNREGISTERED</text><text fill="#eeeeee" stroke="none" font-family="Arial" font-size="24px" font-style="normal" font-weight="normal" text-decoration="none" x="600" y="240">UNREGISTERED</text><text fill="#eeeeee" stroke="none" font-family="Arial" font-size="24px" font-style="normal" font-weight="normal" text-decoration="none" x="600" y="270">UNREGISTERED</text><text fill="#eeeeee" stroke="none" font-family="Arial" font-size="24px" font-style="normal" font-weight="normal" text-decoration="none" x="600" y="300">UNREGISTERED</text><text fill="#eeeeee" stroke="none" font-family="Arial" font-size="24px" font-style="normal" font-weight="normal" text-decoration="none" x="600" y="330">UNREGISTERED</text><text fill="#eeeeee" stroke="none" font-family="Arial" font-size="24px" font-style="normal" font-weight="normal" text-decoration="none" x="600" y="360">UNREGISTERED</text><text fill="#eeeeee" stroke="none" font-family="Arial" font-size="24px" font-style="normal" font-weight="normal" text-decoration="none" x="600" y="390">UNREGISTERED</text><text fill="#eeeeee" stroke="none" font-family="Arial" font-size="24px" font-style="normal" font-weight="normal" text-decoration="none" x="600" y="420">UNREGISTERED</text><text fill="#eeeeee" stroke="none" font-family="Arial" font-size="24px" font-style="normal" font-weight="normal" text-decoration="none" x="800" y="0">UNREGISTERED</text><text fill="#eeeeee" stroke="none" font-family="Arial" font-size="24px" font-style="normal" font-weight="normal" text-decoration="none" x="800" y="30">UNREGISTERED</text><text fill="#eeeeee" stroke="none" font-family="Arial" font-size="24px" font-style="normal" font-weight="normal" text-decoration="none" x="800" y="60">UNREGISTERED</text><text fill="#eeeeee" stroke="none" font-family="Arial" font-size="24px" font-style="normal" font-weight="normal" text-decoration="none" x="800" y="90">UNREGISTERED</text><text fill="#eeeeee" stroke="none" font-family="Arial" font-size="24px" font-style="normal" font-weight="normal" text-decoration="none" x="800" y="120">UNREGISTERED</text><text fill="#eeeeee" stroke="none" font-family="Arial" font-size="24px" font-style="normal" font-weight="normal" text-decoration="none" x="800" y="150">UNREGISTERED</text><text fill="#eeeeee" stroke="none" font-family="Arial" font-size="24px" font-style="normal" font-weight="normal" text-decoration="none" x="800" y="180">UNREGISTERED</text><text fill="#eeeeee" stroke="none" font-family="Arial" font-size="24px" font-style="normal" font-weight="normal" text-decoration="none" x="800" y="210">UNREGISTERED</text><text fill="#eeeeee" stroke="none" font-family="Arial" font-size="24px" font-style="normal" font-weight="normal" text-decoration="none" x="800" y="240">UNREGISTERED</text><text fill="#eeeeee" stroke="none" font-family="Arial" font-size="24px" font-style="normal" font-weight="normal" text-decoration="none" x="800" y="270">UNREGISTERED</text><text fill="#eeeeee" stroke="none" font-family="Arial" font-size="24px" font-style="normal" font-weight="normal" text-decoration="none" x="800" y="300">UNREGISTERED</text><text fill="#eeeeee" stroke="none" font-family="Arial" font-size="24px" font-style="normal" font-weight="normal" text-decoration="none" x="800" y="330">UNREGISTERED</text><text fill="#eeeeee" stroke="none" font-family="Arial" font-size="24px" font-style="normal" font-weight="normal" text-decoration="none" x="800" y="360">UNREGISTERED</text><text fill="#eeeeee" stroke="none" font-family="Arial" font-size="24px" font-style="normal" font-weight="normal" text-decoration="none" x="800" y="390">UNREGISTERED</text><text fill="#eeeeee" stroke="none" font-family="Arial" font-size="24px" font-style="normal" font-weight="normal" text-decoration="none" x="800" y="420">UNREGISTERED</text><text fill="#eeeeee" stroke="none" font-family="Arial" font-size="24px" font-style="normal" font-weight="normal" text-decoration="none" x="1000" y="0">UNREGISTERED</text><text fill="#eeeeee" stroke="none" font-family="Arial" font-size="24px" font-style="normal" font-weight="normal" text-decoration="none" x="1000" y="30">UNREGISTERED</text><text fill="#eeeeee" stroke="none" font-family="Arial" font-size="24px" font-style="normal" font-weight="normal" text-decoration="none" x="1000" y="60">UNREGISTERED</text><text fill="#eeeeee" stroke="none" font-family="Arial" font-size="24px" font-style="normal" font-weight="normal" text-decoration="none" x="1000" y="90">UNREGISTERED</text><text fill="#eeeeee" stroke="none" font-family="Arial" font-size="24px" font-style="normal" font-weight="normal" text-decoration="none" x="1000" y="120">UNREGISTERED</text><text fill="#eeeeee" stroke="none" font-family="Arial" font-size="24px" font-style="normal" font-weight="normal" text-decoration="none" x="1000" y="150">UNREGISTERED</text><text fill="#eeeeee" stroke="none" font-family="Arial" font-size="24px" font-style="normal" font-weight="normal" text-decoration="none" x="1000" y="180">UNREGISTERED</text><text fill="#eeeeee" stroke="none" font-family="Arial" font-size="24px" font-style="normal" font-weight="normal" text-decoration="none" x="1000" y="210">UNREGISTERED</text><text fill="#eeeeee" stroke="none" font-family="Arial" font-size="24px" font-style="normal" font-weight="normal" text-decoration="none" x="1000" y="240">UNREGISTERED</text><text fill="#eeeeee" stroke="none" font-family="Arial" font-size="24px" font-style="normal" font-weight="normal" text-decoration="none" x="1000" y="270">UNREGISTERED</text><text fill="#eeeeee" stroke="none" font-family="Arial" font-size="24px" font-style="normal" font-weight="normal" text-decoration="none" x="1000" y="300">UNREGISTERED</text><text fill="#eeeeee" stroke="none" font-family="Arial" font-size="24px" font-style="normal" font-weight="normal" text-decoration="none" x="1000" y="330">UNREGISTERED</text><text fill="#eeeeee" stroke="none" font-family="Arial" font-size="24px" font-style="normal" font-weight="normal" text-decoration="none" x="1000" y="360">UNREGISTERED</text><text fill="#eeeeee" stroke="none" font-family="Arial" font-size="24px" font-style="normal" font-weight="normal" text-decoration="none" x="1000" y="390">UNREGISTERED</text><text fill="#eeeeee" stroke="none" font-family="Arial" font-size="24px" font-style="normal" font-weight="normal" text-decoration="none" x="1000" y="420">UNREGISTERED</text><g transform="translate(-122,-229) scale(1,1)"><path fill="#C0C0C0" stroke="none" d="M 151 456.5 C 151 451.2532944 155.2532944 447 160.5 447 C 165.7467056 447 170 451.2532944 170 456.5 C 170 461.7467056 165.7467056 466 160.5 466 C 155.2532944 466 151 461.7467056 151 456.5 Z" opacity="0.2"/></g><g transform="translate(-122,-229) scale(1,1)"><path fill="#000000" stroke="none" d="M 144 449.5 C 144 444.2532944 148.2532944 440 153.5 440 C 158.7467056 440 163 444.2532944 163 449.5 C 163 454.7467056 158.7467056 459 153.5 459 C 148.2532944 459 144 454.7467056 144 449.5 Z"/></g><g transform="translate(-122,-229) scale(1,1)"><path fill="#C0C0C0" stroke="none" d="M 473 351 L 624 351 Q 634 351 634 361 L 634 380 Q 634 390 624 390 L 473 390 Q 463 390 463 380 L 463 361 Q 463 351 473 351 Z" opacity="0.2"/></g><g transform="translate(-122,-229) scale(1,1)"><path fill="#ffffff" stroke="none" d="M 466 344 L 617 344 Q 627 344 627 354 L 627 373 Q 627 383 617 383 L 466 383 Q 456 383 456 373 L 456 354 Q 456 344 466 344 Z"/></g><g transform="translate(-122,-229) scale(1,1)"><path fill="none" stroke="#000000" d="M 466 344 L 617 344 Q 627 344 627 354 L 627 373 Q 627 383 617 383 L 466 383 Q 456 383 456 373 L 456 354 Q 456 344 466 344 Z" stroke-miterlimit="10"/></g><g transform="translate(-122,-229) scale(1,1)"><g><path fill="none" stroke="none"/><text fill="#000000" stroke="none" font-family="Arial" font-size="13px" font-style="normal" font-weight="bold" text-decoration="none" x="460.5" y="362">Executar Grafico Infraday</text></g></g><g transform="translate(-122,-229) scale(1,1)"><path fill="none" stroke="#000000" d="M 152 440 L 152 368 L 456 368" stroke-miterlimit="10"/></g><g transform="translate(-122,-229) scale(1,1)"><path fill="none" stroke="#000000" d="M 445.83732514237585 372.209517756016 L 456 368 L 445.83732514237585 363.790482243984" stroke-miterlimit="10"/></g><g transform="translate(-122,-229) scale(1,1)"><g><path fill="none" stroke="none"/><text fill="#000000" stroke="none" font-family="Arial" font-size="13px" font-style="normal" font-weight="normal" text-decoration="none" x="131.5" y="358"> [Recebe solicitação de criação de grafico infraday]</text></g></g><g transform="translate(-122,-229) scale(1,1)"><path fill="#C0C0C0" stroke="none" d="M 1183 451.5 C 1183 444.59644 1188.59644 439 1195.5 439 C 1202.40356 439 1208 444.59644 1208 451.5 C 1208 458.40356 1202.40356 464 1195.5 464 C 1188.59644 464 1183 458.40356 1183 451.5 Z" opacity="0.2"/></g><g transform="translate(-122,-229) scale(1,1)"><path fill="none" stroke="#000000" d="M 1176 444.5 C 1176 437.59644 1181.59644 432 1188.5 432 C 1195.40356 432 1201 437.59644 1201 444.5 C 1201 451.40356 1195.40356 457 1188.5 457 C 1181.59644 457 1176 451.40356 1176 444.5 Z" stroke-miterlimit="10"/></g><g transform="translate(-122,-229) scale(1,1)"><path fill="#000000" stroke="none" d="M 1181 444.5 C 1181 440.357864 1184.357864 437 1188.5 437 C 1192.642136 437 1196 440.357864 1196 444.5 C 1196 448.642136 1192.642136 452 1188.5 452 C 1184.357864 452 1181 448.642136 1181 444.5 Z"/></g><g transform="translate(-122,-229) scale(1,1)"><path fill="#C0C0C0" stroke="none" d="M 905 351 L 978 351 Q 988 351 988 361 L 988 380 Q 988 390 978 390 L 905 390 Q 895 390 895 380 L 895 361 Q 895 351 905 351 Z" opacity="0.2"/></g><g transform="translate(-122,-229) scale(1,1)"><path fill="#ffffff" stroke="none" d="M 898 344 L 971 344 Q 981 344 981 354 L 981 373 Q 981 383 971 383 L 898 383 Q 888 383 888 373 L 888 354 Q 888 344 898 344 Z"/></g><g transform="translate(-122,-229) scale(1,1)"><path fill="none" stroke="#000000" d="M 898 344 L 971 344 Q 981 344 981 354 L 981 373 Q 981 383 971 383 L 898 383 Q 888 383 888 373 L 888 354 Q 888 344 898 344 Z" stroke-miterlimit="10"/></g><g transform="translate(-122,-229) scale(1,1)"><g><path fill="none" stroke="none"/><text fill="#000000" stroke="none" font-family="Arial" font-size="13px" font-style="normal" font-weight="bold" text-decoration="none" x="892.5" y="362">Gerar gráfico</text></g></g><g transform="translate(-122,-229) scale(1,1)"><path fill="none" stroke="#000000" d="M 628 363 L 887 363" stroke-miterlimit="10"/></g><g transform="translate(-122,-229) scale(1,1)"><path fill="none" stroke="#000000" d="M 876.8373251423759 367.209517756016 L 887 363 L 876.8373251423758 358.790482243984" stroke-miterlimit="10"/></g><g transform="translate(-122,-229) scale(1,1)"><g><path fill="none" stroke="none"/><text fill="#000000" stroke="none" font-family="Arial" font-size="13px" font-style="normal" font-weight="normal" text-decoration="none" x="652.369384765625" y="353"> [Recebe dados para gerar o grafico]</text></g></g><g transform="translate(-122,-229) scale(1,1)"><path fill="none" stroke="#000000" d="M 920 344 L 920 272 L 544 272 L 544 344" stroke-miterlimit="10"/></g><g transform="translate(-122,-229) scale(1,1)"><path fill="none" stroke="#000000" d="M 539.790482243984 333.83732514237585 L 544 344 L 548.209517756016 333.83732514237585" stroke-miterlimit="10"/></g><g transform="translate(-122,-229) scale(1,1)"><g><path fill="none" stroke="none"/><text fill="#000000" stroke="none" font-family="Arial" font-size="13px" font-style="normal" font-weight="normal" text-decoration="none" x="669.064453125" y="250"> [Grafico não gerado]</text></g></g><g transform="translate(-122,-229) scale(1,1)"><path fill="none" stroke="#000000" d="M 981 360 L 1184 360 L 1184 432" stroke-miterlimit="10"/></g><g transform="translate(-122,-229) scale(1,1)"><path fill="none" stroke="#000000" d="M 1179.7904822439841 421.83732514237585 L 1184 432 L 1188.2095177560159 421.83732514237585" stroke-miterlimit="10"/></g><g transform="translate(-122,-229) scale(1,1)"><g><path fill="none" stroke="none"/><text fill="#000000" stroke="none" font-family="Arial" font-size="13px" font-style="normal" font-weight="normal" text-decoration="none" x="1005.5" y="354"> [Grafico gerado com sucesso]</text></g></g><g transform="translate(-122,-229) scale(1,1)"><path fill="#C0C0C0" stroke="none" d="M 441 519 L 671 519 Q 681 519 681 529 L 681 548 Q 681 558 671 558 L 441 558 Q 431 558 431 548 L 431 529 Q 431 519 441 519 Z" opacity="0.2"/></g><g transform="translate(-122,-229) scale(1,1)"><path fill="#ffffff" stroke="none" d="M 434 512 L 664 512 Q 674 512 674 522 L 674 541 Q 674 551 664 551 L 434 551 Q 424 551 424 541 L 424 522 Q 424 512 434 512 Z"/></g><g transform="translate(-122,-229) scale(1,1)"><path fill="none" stroke="#000000" d="M 434 512 L 664 512 Q 674 512 674 522 L 674 541 Q 674 551 664 551 L 434 551 Q 424 551 424 541 L 424 522 Q 424 512 434 512 Z" stroke-miterlimit="10"/></g><g transform="translate(-122,-229) scale(1,1)"><g><path fill="none" stroke="none"/><text fill="#000000" stroke="none" font-family="Arial" font-size="13px" font-style="normal" font-weight="bold" text-decoration="none" x="428.5" y="530">Buscar ações relacionadas ao usuário</text></g></g><g transform="translate(-122,-229) scale(1,1)"><path fill="none" stroke="#000000" d="M 153 459 L 153 531 L 424 531" stroke-miterlimit="10"/></g><g transform="translate(-122,-229) scale(1,1)"><path fill="none" stroke="#000000" d="M 413.83732514237585 535.209517756016 L 424 531 L 413.83732514237585 526.790482243984" stroke-miterlimit="10"/></g><g transform="translate(-122,-229) scale(1,1)"><g><path fill="none" stroke="none"/><text fill="#000000" stroke="none" font-family="Arial" font-size="13px" font-style="normal" font-weight="normal" text-decoration="none" x="156.5" y="523"> [Recebe solicitação de histórico de ações]</text></g></g><g transform="translate(-122,-229) scale(1,1)"><path fill="#C0C0C0" stroke="none" d="M 881 519 L 1026 519 Q 1036 519 1036 529 L 1036 548 Q 1036 558 1026 558 L 881 558 Q 871 558 871 548 L 871 529 Q 871 519 881 519 Z" opacity="0.2"/></g><g transform="translate(-122,-229) scale(1,1)"><path fill="#ffffff" stroke="none" d="M 874 512 L 1019 512 Q 1029 512 1029 522 L 1029 541 Q 1029 551 1019 551 L 874 551 Q 864 551 864 541 L 864 522 Q 864 512 874 512 Z"/></g><g transform="translate(-122,-229) scale(1,1)"><path fill="none" stroke="#000000" d="M 874 512 L 1019 512 Q 1029 512 1029 522 L 1029 541 Q 1029 551 1019 551 L 874 551 Q 864 551 864 541 L 864 522 Q 864 512 874 512 Z" stroke-miterlimit="10"/></g><g transform="translate(-122,-229) scale(1,1)"><g><path fill="none" stroke="none"/><text fill="#000000" stroke="none" font-family="Arial" font-size="13px" font-style="normal" font-weight="bold" text-decoration="none" x="868.5" y="530">Gerar Histórico de ações</text></g></g><g transform="translate(-122,-229) scale(1,1)"><path fill="none" stroke="#000000" d="M 675 531 L 863 531" stroke-miterlimit="10"/></g><g transform="translate(-122,-229) scale(1,1)"><path fill="none" stroke="#000000" d="M 852.8373251423759 535.209517756016 L 863 531 L 852.8373251423758 526.790482243984" stroke-miterlimit="10"/></g><g transform="translate(-122,-229) scale(1,1)"><g><path fill="none" stroke="none"/><text fill="#000000" stroke="none" font-family="Arial" font-size="13px" font-style="normal" font-weight="normal" text-decoration="none" x="697.5" y="521"> [Lista ações do usuário]</text></g></g><g transform="translate(-122,-229) scale(1,1)"><path fill="none" stroke="#000000" d="M 1029 531 L 1188 531 L 1188 457" stroke-miterlimit="10"/></g><g transform="translate(-122,-229) scale(1,1)"><path fill="none" stroke="#000000" d="M 1192.2095177560159 467.16267485762415 L 1188 457 L 1183.7904822439841 467.16267485762415" stroke-miterlimit="10"/></g><g transform="translate(-122,-229) scale(1,1)"><g><path fill="none" stroke="none"/><text fill="#000000" stroke="none" font-family="Arial" font-size="13px" font-style="normal" font-weight="normal" text-decoration="none" x="1069.5" y="523"> [Envia histórico]</text></g></g><g transform="translate(-122,-229) scale(1,1)"><path fill="none" stroke="#000000" d="M 928 551 L 928 632 L 546 632 L 546 551" stroke-miterlimit="10"/></g><g transform="translate(-122,-229) scale(1,1)"><path fill="none" stroke="#000000" d="M 550.209517756016 561.1626748576241 L 546 551 L 541.790482243984 561.1626748576241" stroke-miterlimit="10"/></g><g transform="translate(-122,-229) scale(1,1)"><g><path fill="none" stroke="none"/><text fill="#000000" stroke="none" font-family="Arial" font-size="13px" font-style="normal" font-weight="normal" text-decoration="none" x="649.5" y="652"> [Não foi possível listar ações]</text></g></g></g></svg>