<svg version="1.1" xmlns="http://www.w3.org/2000/svg" xmlns:xlink="http://www.w3.org/1999/xlink" width="1037" height="61"><defs/><g><text fill="#eeeeee" stroke="none" font-family="Arial" font-size="24px" font-style="normal" font-weight="normal" text-decoration="none" x="0" y="0">UNREGISTERED</text><text fill="#eeeeee" stroke="none" font-family="Arial" font-size="24px" font-style="normal" font-weight="normal" text-decoration="none" x="0" y="30">UNREGISTERED</text><text fill="#eeeeee" stroke="none" font-family="Arial" font-size="24px" font-style="normal" font-weight="normal" text-decoration="none" x="0" y="60">UNREGISTERED</text><text fill="#eeeeee" stroke="none" font-family="Arial" font-size="24px" font-style="normal" font-weight="normal" text-decoration="none" x="200" y="0">UNREGISTERED</text><text fill="#eeeeee" stroke="none" font-family="Arial" font-size="24px" font-style="normal" font-weight="normal" text-decoration="none" x="200" y="30">UNREGISTERED</text><text fill="#eeeeee" stroke="none" font-family="Arial" font-size="24px" font-style="normal" font-weight="normal" text-decoration="none" x="200" y="60">UNREGISTERED</text><text fill="#eeeeee" stroke="none" font-family="Arial" font-size="24px" font-style="normal" font-weight="normal" text-decoration="none" x="400" y="0">UNREGISTERED</text><text fill="#eeeeee" stroke="none" font-family="Arial" font-size="24px" font-style="normal" font-weight="normal" text-decoration="none" x="400" y="30">UNREGISTERED</text><text fill="#eeeeee" stroke="none" font-family="Arial" font-size="24px" font-style="normal" font-weight="normal" text-decoration="none" x="400" y="60">UNREGISTERED</text><text fill="#eeeeee" stroke="none" font-family="Arial" font-size="24px" font-style="normal" font-weight="normal" text-decoration="none" x="600" y="0">UNREGISTERED</text><text fill="#eeeeee" stroke="none" font-family="Arial" font-size="24px" font-style="normal" font-weight="normal" text-decoration="none" x="600" y="30">UNREGISTERED</text><text fill="#eeeeee" stroke="none" font-family="Arial" font-size="24px" font-style="normal" font-weight="normal" text-decoration="none" x="600" y="60">UNREGISTERED</text><text fill="#eeeeee" stroke="none" font-family="Arial" font-size="24px" font-style="normal" font-weight="normal" text-decoration="none" x="800" y="0">UNREGISTERED</text><text fill="#eeeeee" stroke="none" font-family="Arial" font-size="24px" font-style="normal" font-weight="normal" text-decoration="none" x="800" y="30">UNREGISTERED</text><text fill="#eeeeee" stroke="none" font-family="Arial" font-size="24px" font-style="normal" font-weight="normal" text-decoration="none" x="800" y="60">UNREGISTERED</text><text fill="#eeeeee" stroke="none" font-family="Arial" font-size="24px" font-style="normal" font-weight="normal" text-decoration="none" x="1000" y="0">UNREGISTERED</text><text fill="#eeeeee" stroke="none" font-family="Arial" font-size="24px" font-style="normal" font-weight="normal" text-decoration="none" x="1000" y="30">UNREGISTERED</text><text fill="#eeeeee" stroke="none" font-family="Arial" font-size="24px" font-style="normal" font-weight="normal" text-decoration="none" x="1000" y="60">UNREGISTERED</text><g transform="translate(-142,-388) scale(1,1)"><path fill="#C0C0C0" stroke="none" d="M 159 424.5 C 159 419.2532944 163.2532944 415 168.5 415 C 173.7467056 415 178 419.2532944 178 424.5 C 178 429.7467056 173.7467056 434 168.5 434 C 163.2532944 434 159 429.7467056 159 424.5 Z" opacity="0.2"/></g><g transform="translate(-142,-388) scale(1,1)"><path fill="#000000" stroke="none" d="M 152 417.5 C 152 412.2532944 156.2532944 408 161.5 408 C 166.7467056 408 171 412.2532944 171 417.5 C 171 422.7467056 166.7467056 427 161.5 427 C 156.2532944 427 152 422.7467056 152 417.5 Z"/></g><g transform="translate(-142,-388) scale(1,1)"><path fill="#C0C0C0" stroke="none" d="M 593 407 L 687 407 Q 697 407 697 417 L 697 436 Q 697 446 687 446 L 593 446 Q 583 446 583 436 L 583 417 Q 583 407 593 407 Z" opacity="0.2"/></g><g transform="translate(-142,-388) scale(1,1)"><path fill="#ffffff" stroke="none" d="M 586 400 L 680 400 Q 690 400 690 410 L 690 429 Q 690 439 680 439 L 586 439 Q 576 439 576 429 L 576 410 Q 576 400 586 400 Z"/></g><g transform="translate(-142,-388) scale(1,1)"><path fill="none" stroke="#000000" d="M 586 400 L 680 400 Q 690 400 690 410 L 690 429 Q 690 439 680 439 L 586 439 Q 576 439 576 429 L 576 410 Q 576 400 586 400 Z" stroke-miterlimit="10"/></g><g transform="translate(-142,-388) scale(1,1)"><g><path fill="none" stroke="none"/><text fill="#000000" stroke="none" font-family="Arial" font-size="13px" font-style="normal" font-weight="bold" text-decoration="none" x="580.5" y="418">Gerar Transação</text></g></g><g transform="translate(-142,-388) scale(1,1)"><path fill="none" stroke="#000000" d="M 171 419 L 576 419" stroke-miterlimit="10"/></g><g transform="translate(-142,-388) scale(1,1)"><path fill="none" stroke="#000000" d="M 565.8373251423759 423.209517756016 L 576 419 L 565.8373251423758 414.790482243984" stroke-miterlimit="10"/></g><g transform="translate(-142,-388) scale(1,1)"><g><path fill="none" stroke="none"/><text fill="#000000" stroke="none" font-family="Arial" font-size="13px" font-style="normal" font-weight="normal" text-decoration="none" x="180.5" y="409"> [Recebe uma solicitação de OV ou OC para gerar uma transação]</text></g></g><g transform="translate(-142,-388) scale(1,1)"><path fill="#C0C0C0" stroke="none" d="M 1151 427.5 C 1151 420.59644 1156.59644 415 1163.5 415 C 1170.40356 415 1176 420.59644 1176 427.5 C 1176 434.40356 1170.40356 440 1163.5 440 C 1156.59644 440 1151 434.40356 1151 427.5 Z" opacity="0.2"/></g><g transform="translate(-142,-388) scale(1,1)"><path fill="none" stroke="#000000" d="M 1144 420.5 C 1144 413.59644 1149.59644 408 1156.5 408 C 1163.40356 408 1169 413.59644 1169 420.5 C 1169 427.40356 1163.40356 433 1156.5 433 C 1149.59644 433 1144 427.40356 1144 420.5 Z" stroke-miterlimit="10"/></g><g transform="translate(-142,-388) scale(1,1)"><path fill="#000000" stroke="none" d="M 1149 420.5 C 1149 416.357864 1152.357864 413 1156.5 413 C 1160.642136 413 1164 416.357864 1164 420.5 C 1164 424.642136 1160.642136 428 1156.5 428 C 1152.357864 428 1149 424.642136 1149 420.5 Z"/></g><g transform="translate(-142,-388) scale(1,1)"><path fill="none" stroke="#000000" d="M 691 419 L 1143 420" stroke-miterlimit="10"/></g><g transform="translate(-142,-388) scale(1,1)"><path fill="none" stroke="#000000" d="M 1132.8280369441495 424.1870237150528 L 1143 420 L 1132.8466630833263 415.7680088071319" stroke-miterlimit="10"/></g><g transform="translate(-142,-388) scale(1,1)"><g><path fill="none" stroke="none"/><text fill="#000000" stroke="none" font-family="Arial" font-size="13px" font-style="normal" font-weight="normal" text-decoration="none" x="769.5" y="409"> [Monta a transsação com os dados de OV ou OC]</text></g></g></g></svg>