<svg version="1.1" xmlns="http://www.w3.org/2000/svg" xmlns:xlink="http://www.w3.org/1999/xlink" width="1301" height="555"><defs/><g><text fill="#eeeeee" stroke="none" font-family="Arial" font-size="24px" font-style="normal" font-weight="normal" text-decoration="none" x="0" y="0">UNREGISTERED</text><text fill="#eeeeee" stroke="none" font-family="Arial" font-size="24px" font-style="normal" font-weight="normal" text-decoration="none" x="0" y="30">UNREGISTERED</text><text fill="#eeeeee" stroke="none" font-family="Arial" font-size="24px" font-style="normal" font-weight="normal" text-decoration="none" x="0" y="60">UNREGISTERED</text><text fill="#eeeeee" stroke="none" font-family="Arial" font-size="24px" font-style="normal" font-weight="normal" text-decoration="none" x="0" y="90">UNREGISTERED</text><text fill="#eeeeee" stroke="none" font-family="Arial" font-size="24px" font-style="normal" font-weight="normal" text-decoration="none" x="0" y="120">UNREGISTERED</text><text fill="#eeeeee" stroke="none" font-family="Arial" font-size="24px" font-style="normal" font-weight="normal" text-decoration="none" x="0" y="150">UNREGISTERED</text><text fill="#eeeeee" stroke="none" font-family="Arial" font-size="24px" font-style="normal" font-weight="normal" text-decoration="none" x="0" y="180">UNREGISTERED</text><text fill="#eeeeee" stroke="none" font-family="Arial" font-size="24px" font-style="normal" font-weight="normal" text-decoration="none" x="0" y="210">UNREGISTERED</text><text fill="#eeeeee" stroke="none" font-family="Arial" font-size="24px" font-style="normal" font-weight="normal" text-decoration="none" x="0" y="240">UNREGISTERED</text><text fill="#eeeeee" stroke="none" font-family="Arial" font-size="24px" font-style="normal" font-weight="normal" text-decoration="none" x="0" y="270">UNREGISTERED</text><text fill="#eeeeee" stroke="none" font-family="Arial" font-size="24px" font-style="normal" font-weight="normal" text-decoration="none" x="0" y="300">UNREGISTERED</text><text fill="#eeeeee" stroke="none" font-family="Arial" font-size="24px" font-style="normal" font-weight="normal" text-decoration="none" x="0" y="330">UNREGISTERED</text><text fill="#eeeeee" stroke="none" font-family="Arial" font-size="24px" font-style="normal" font-weight="normal" text-decoration="none" x="0" y="360">UNREGISTERED</text><text fill="#eeeeee" stroke="none" font-family="Arial" font-size="24px" font-style="normal" font-weight="normal" text-decoration="none" x="0" y="390">UNREGISTERED</text><text fill="#eeeeee" stroke="none" font-family="Arial" font-size="24px" font-style="normal" font-weight="normal" text-decoration="none" x="0" y="420">UNREGISTERED</text><text fill="#eeeeee" stroke="none" font-family="Arial" font-size="24px" font-style="normal" font-weight="normal" text-decoration="none" x="0" y="450">UNREGISTERED</text><text fill="#eeeeee" stroke="none" font-family="Arial" font-size="24px" font-style="normal" font-weight="normal" text-decoration="none" x="0" y="480">UNREGISTERED</text><text fill="#eeeeee" stroke="none" font-family="Arial" font-size="24px" font-style="normal" font-weight="normal" text-decoration="none" x="0" y="510">UNREGISTERED</text><text fill="#eeeeee" stroke="none" font-family="Arial" font-size="24px" font-style="normal" font-weight="normal" text-decoration="none" x="0" y="540">UNREGISTERED</text><text fill="#eeeeee" stroke="none" font-family="Arial" font-size="24px" font-style="normal" font-weight="normal" text-decoration="none" x="200" y="0">UNREGISTERED</text><text fill="#eeeeee" stroke="none" font-family="Arial" font-size="24px" font-style="normal" font-weight="normal" text-decoration="none" x="200" y="30">UNREGISTERED</text><text fill="#eeeeee" stroke="none" font-family="Arial" font-size="24px" font-style="normal" font-weight="normal" text-decoration="none" x="200" y="60">UNREGISTERED</text><text fill="#eeeeee" stroke="none" font-family="Arial" font-size="24px" font-style="normal" font-weight="normal" text-decoration="none" x="200" y="90">UNREGISTERED</text><text fill="#eeeeee" stroke="none" font-family="Arial" font-size="24px" font-style="normal" font-weight="normal" text-decoration="none" x="200" y="120">UNREGISTERED</text><text fill="#eeeeee" stroke="none" font-family="Arial" font-size="24px" font-style="normal" font-weight="normal" text-decoration="none" x="200" y="150">UNREGISTERED</text><text fill="#eeeeee" stroke="none" font-family="Arial" font-size="24px" font-style="normal" font-weight="normal" text-decoration="none" x="200" y="180">UNREGISTERED</text><text fill="#eeeeee" stroke="none" font-family="Arial" font-size="24px" font-style="normal" font-weight="normal" text-decoration="none" x="200" y="210">UNREGISTERED</text><text fill="#eeeeee" stroke="none" font-family="Arial" font-size="24px" font-style="normal" font-weight="normal" text-decoration="none" x="200" y="240">UNREGISTERED</text><text fill="#eeeeee" stroke="none" font-family="Arial" font-size="24px" font-style="normal" font-weight="normal" text-decoration="none" x="200" y="270">UNREGISTERED</text><text fill="#eeeeee" stroke="none" font-family="Arial" font-size="24px" font-style="normal" font-weight="normal" text-decoration="none" x="200" y="300">UNREGISTERED</text><text fill="#eeeeee" stroke="none" font-family="Arial" font-size="24px" font-style="normal" font-weight="normal" text-decoration="none" x="200" y="330">UNREGISTERED</text><text fill="#eeeeee" stroke="none" font-family="Arial" font-size="24px" font-style="normal" font-weight="normal" text-decoration="none" x="200" y="360">UNREGISTERED</text><text fill="#eeeeee" stroke="none" font-family="Arial" font-size="24px" font-style="normal" font-weight="normal" text-decoration="none" x="200" y="390">UNREGISTERED</text><text fill="#eeeeee" stroke="none" font-family="Arial" font-size="24px" font-style="normal" font-weight="normal" text-decoration="none" x="200" y="420">UNREGISTERED</text><text fill="#eeeeee" stroke="none" font-family="Arial" font-size="24px" font-style="normal" font-weight="normal" text-decoration="none" x="200" y="450">UNREGISTERED</text><text fill="#eeeeee" stroke="none" font-family="Arial" font-size="24px" font-style="normal" font-weight="normal" text-decoration="none" x="200" y="480">UNREGISTERED</text><text fill="#eeeeee" stroke="none" font-family="Arial" font-size="24px" font-style="normal" font-weight="normal" text-decoration="none" x="200" y="510">UNREGISTERED</text><text fill="#eeeeee" stroke="none" font-family="Arial" font-size="24px" font-style="normal" font-weight="normal" text-decoration="none" x="200" y="540">UNREGISTERED</text><text fill="#eeeeee" stroke="none" font-family="Arial" font-size="24px" font-style="normal" font-weight="normal" text-decoration="none" x="400" y="0">UNREGISTERED</text><text fill="#eeeeee" stroke="none" font-family="Arial" font-size="24px" font-style="normal" font-weight="normal" text-decoration="none" x="400" y="30">UNREGISTERED</text><text fill="#eeeeee" stroke="none" font-family="Arial" font-size="24px" font-style="normal" font-weight="normal" text-decoration="none" x="400" y="60">UNREGISTERED</text><text fill="#eeeeee" stroke="none" font-family="Arial" font-size="24px" font-style="normal" font-weight="normal" text-decoration="none" x="400" y="90">UNREGISTERED</text><text fill="#eeeeee" stroke="none" font-family="Arial" font-size="24px" font-style="normal" font-weight="normal" text-decoration="none" x="400" y="120">UNREGISTERED</text><text fill="#eeeeee" stroke="none" font-family="Arial" font-size="24px" font-style="normal" font-weight="normal" text-decoration="none" x="400" y="150">UNREGISTERED</text><text fill="#eeeeee" stroke="none" font-family="Arial" font-size="24px" font-style="normal" font-weight="normal" text-decoration="none" x="400" y="180">UNREGISTERED</text><text fill="#eeeeee" stroke="none" font-family="Arial" font-size="24px" font-style="normal" font-weight="normal" text-decoration="none" x="400" y="210">UNREGISTERED</text><text fill="#eeeeee" stroke="none" font-family="Arial" font-size="24px" font-style="normal" font-weight="normal" text-decoration="none" x="400" y="240">UNREGISTERED</text><text fill="#eeeeee" stroke="none" font-family="Arial" font-size="24px" font-style="normal" font-weight="normal" text-decoration="none" x="400" y="270">UNREGISTERED</text><text fill="#eeeeee" stroke="none" font-family="Arial" font-size="24px" font-style="normal" font-weight="normal" text-decoration="none" x="400" y="300">UNREGISTERED</text><text fill="#eeeeee" stroke="none" font-family="Arial" font-size="24px" font-style="normal" font-weight="normal" text-decoration="none" x="400" y="330">UNREGISTERED</text><text fill="#eeeeee" stroke="none" font-family="Arial" font-size="24px" font-style="normal" font-weight="normal" text-decoration="none" x="400" y="360">UNREGISTERED</text><text fill="#eeeeee" stroke="none" font-family="Arial" font-size="24px" font-style="normal" font-weight="normal" text-decoration="none" x="400" y="390">UNREGISTERED</text><text fill="#eeeeee" stroke="none" font-family="Arial" font-size="24px" font-style="normal" font-weight="normal" text-decoration="none" x="400" y="420">UNREGISTERED</text><text fill="#eeeeee" stroke="none" font-family="Arial" font-size="24px" font-style="normal" font-weight="normal" text-decoration="none" x="400" y="450">UNREGISTERED</text><text fill="#eeeeee" stroke="none" font-family="Arial" font-size="24px" font-style="normal" font-weight="normal" text-decoration="none" x="400" y="480">UNREGISTERED</text><text fill="#eeeeee" stroke="none" font-family="Arial" font-size="24px" font-style="normal" font-weight="normal" text-decoration="none" x="400" y="510">UNREGISTERED</text><text fill="#eeeeee" stroke="none" font-family="Arial" font-size="24px" font-style="normal" font-weight="normal" text-decoration="none" x="400" y="540">UNREGISTERED</text><text fill="#eeeeee" stroke="none" font-family="Arial" font-size="24px" font-style="normal" font-weight="normal" text-decoration="none" x="600" y="0">UNREGISTERED</text><text fill="#eeeeee" stroke="none" font-family="Arial" font-size="24px" font-style="normal" font-weight="normal" text-decoration="none" x="600" y="30">UNREGISTERED</text><text fill="#eeeeee" stroke="none" font-family="Arial" font-size="24px" font-style="normal" font-weight="normal" text-decoration="none" x="600" y="60">UNREGISTERED</text><text fill="#eeeeee" stroke="none" font-family="Arial" font-size="24px" font-style="normal" font-weight="normal" text-decoration="none" x="600" y="90">UNREGISTERED</text><text fill="#eeeeee" stroke="none" font-family="Arial" font-size="24px" font-style="normal" font-weight="normal" text-decoration="none" x="600" y="120">UNREGISTERED</text><text fill="#eeeeee" stroke="none" font-family="Arial" font-size="24px" font-style="normal" font-weight="normal" text-decoration="none" x="600" y="150">UNREGISTERED</text><text fill="#eeeeee" stroke="none" font-family="Arial" font-size="24px" font-style="normal" font-weight="normal" text-decoration="none" x="600" y="180">UNREGISTERED</text><text fill="#eeeeee" stroke="none" font-family="Arial" font-size="24px" font-style="normal" font-weight="normal" text-decoration="none" x="600" y="210">UNREGISTERED</text><text fill="#eeeeee" stroke="none" font-family="Arial" font-size="24px" font-style="normal" font-weight="normal" text-decoration="none" x="600" y="240">UNREGISTERED</text><text fill="#eeeeee" stroke="none" font-family="Arial" font-size="24px" font-style="normal" font-weight="normal" text-decoration="none" x="600" y="270">UNREGISTERED</text><text fill="#eeeeee" stroke="none" font-family="Arial" font-size="24px" font-style="normal" font-weight="normal" text-decoration="none" x="600" y="300">UNREGISTERED</text><text fill="#eeeeee" stroke="none" font-family="Arial" font-size="24px" font-style="normal" font-weight="normal" text-decoration="none" x="600" y="330">UNREGISTERED</text><text fill="#eeeeee" stroke="none" font-family="Arial" font-size="24px" font-style="normal" font-weight="normal" text-decoration="none" x="600" y="360">UNREGISTERED</text><text fill="#eeeeee" stroke="none" font-family="Arial" font-size="24px" font-style="normal" font-weight="normal" text-decoration="none" x="600" y="390">UNREGISTERED</text><text fill="#eeeeee" stroke="none" font-family="Arial" font-size="24px" font-style="normal" font-weight="normal" text-decoration="none" x="600" y="420">UNREGISTERED</text><text fill="#eeeeee" stroke="none" font-family="Arial" font-size="24px" font-style="normal" font-weight="normal" text-decoration="none" x="600" y="450">UNREGISTERED</text><text fill="#eeeeee" stroke="none" font-family="Arial" font-size="24px" font-style="normal" font-weight="normal" text-decoration="none" x="600" y="480">UNREGISTERED</text><text fill="#eeeeee" stroke="none" font-family="Arial" font-size="24px" font-style="normal" font-weight="normal" text-decoration="none" x="600" y="510">UNREGISTERED</text><text fill="#eeeeee" stroke="none" font-family="Arial" font-size="24px" font-style="normal" font-weight="normal" text-decoration="none" x="600" y="540">UNREGISTERED</text><text fill="#eeeeee" stroke="none" font-family="Arial" font-size="24px" font-style="normal" font-weight="normal" text-decoration="none" x="800" y="0">UNREGISTERED</text><text fill="#eeeeee" stroke="none" font-family="Arial" font-size="24px" font-style="normal" font-weight="normal" text-decoration="none" x="800" y="30">UNREGISTERED</text><text fill="#eeeeee" stroke="none" font-family="Arial" font-size="24px" font-style="normal" font-weight="normal" text-decoration="none" x="800" y="60">UNREGISTERED</text><text fill="#eeeeee" stroke="none" font-family="Arial" font-size="24px" font-style="normal" font-weight="normal" text-decoration="none" x="800" y="90">UNREGISTERED</text><text fill="#eeeeee" stroke="none" font-family="Arial" font-size="24px" font-style="normal" font-weight="normal" text-decoration="none" x="800" y="120">UNREGISTERED</text><text fill="#eeeeee" stroke="none" font-family="Arial" font-size="24px" font-style="normal" font-weight="normal" text-decoration="none" x="800" y="150">UNREGISTERED</text><text fill="#eeeeee" stroke="none" font-family="Arial" font-size="24px" font-style="normal" font-weight="normal" text-decoration="none" x="800" y="180">UNREGISTERED</text><text fill="#eeeeee" stroke="none" font-family="Arial" font-size="24px" font-style="normal" font-weight="normal" text-decoration="none" x="800" y="210">UNREGISTERED</text><text fill="#eeeeee" stroke="none" font-family="Arial" font-size="24px" font-style="normal" font-weight="normal" text-decoration="none" x="800" y="240">UNREGISTERED</text><text fill="#eeeeee" stroke="none" font-family="Arial" font-size="24px" font-style="normal" font-weight="normal" text-decoration="none" x="800" y="270">UNREGISTERED</text><text fill="#eeeeee" stroke="none" font-family="Arial" font-size="24px" font-style="normal" font-weight="normal" text-decoration="none" x="800" y="300">UNREGISTERED</text><text fill="#eeeeee" stroke="none" font-family="Arial" font-size="24px" font-style="normal" font-weight="normal" text-decoration="none" x="800" y="330">UNREGISTERED</text><text fill="#eeeeee" stroke="none" font-family="Arial" font-size="24px" font-style="normal" font-weight="normal" text-decoration="none" x="800" y="360">UNREGISTERED</text><text fill="#eeeeee" stroke="none" font-family="Arial" font-size="24px" font-style="normal" font-weight="normal" text-decoration="none" x="800" y="390">UNREGISTERED</text><text fill="#eeeeee" stroke="none" font-family="Arial" font-size="24px" font-style="normal" font-weight="normal" text-decoration="none" x="800" y="420">UNREGISTERED</text><text fill="#eeeeee" stroke="none" font-family="Arial" font-size="24px" font-style="normal" font-weight="normal" text-decoration="none" x="800" y="450">UNREGISTERED</text><text fill="#eeeeee" stroke="none" font-family="Arial" font-size="24px" font-style="normal" font-weight="normal" text-decoration="none" x="800" y="480">UNREGISTERED</text><text fill="#eeeeee" stroke="none" font-family="Arial" font-size="24px" font-style="normal" font-weight="normal" text-decoration="none" x="800" y="510">UNREGISTERED</text><text fill="#eeeeee" stroke="none" font-family="Arial" font-size="24px" font-style="normal" font-weight="normal" text-decoration="none" x="800" y="540">UNREGISTERED</text><text fill="#eeeeee" stroke="none" font-family="Arial" font-size="24px" font-style="normal" font-weight="normal" text-decoration="none" x="1000" y="0">UNREGISTERED</text><text fill="#eeeeee" stroke="none" font-family="Arial" font-size="24px" font-style="normal" font-weight="normal" text-decoration="none" x="1000" y="30">UNREGISTERED</text><text fill="#eeeeee" stroke="none" font-family="Arial" font-size="24px" font-style="normal" font-weight="normal" text-decoration="none" x="1000" y="60">UNREGISTERED</text><text fill="#eeeeee" stroke="none" font-family="Arial" font-size="24px" font-style="normal" font-weight="normal" text-decoration="none" x="1000" y="90">UNREGISTERED</text><text fill="#eeeeee" stroke="none" font-family="Arial" font-size="24px" font-style="normal" font-weight="normal" text-decoration="none" x="1000" y="120">UNREGISTERED</text><text fill="#eeeeee" stroke="none" font-family="Arial" font-size="24px" font-style="normal" font-weight="normal" text-decoration="none" x="1000" y="150">UNREGISTERED</text><text fill="#eeeeee" stroke="none" font-family="Arial" font-size="24px" font-style="normal" font-weight="normal" text-decoration="none" x="1000" y="180">UNREGISTERED</text><text fill="#eeeeee" stroke="none" font-family="Arial" font-size="24px" font-style="normal" font-weight="normal" text-decoration="none" x="1000" y="210">UNREGISTERED</text><text fill="#eeeeee" stroke="none" font-family="Arial" font-size="24px" font-style="normal" font-weight="normal" text-decoration="none" x="1000" y="240">UNREGISTERED</text><text fill="#eeeeee" stroke="none" font-family="Arial" font-size="24px" font-style="normal" font-weight="normal" text-decoration="none" x="1000" y="270">UNREGISTERED</text><text fill="#eeeeee" stroke="none" font-family="Arial" font-size="24px" font-style="normal" font-weight="normal" text-decoration="none" x="1000" y="300">UNREGISTERED</text><text fill="#eeeeee" stroke="none" font-family="Arial" font-size="24px" font-style="normal" font-weight="normal" text-decoration="none" x="1000" y="330">UNREGISTERED</text><text fill="#eeeeee" stroke="none" font-family="Arial" font-size="24px" font-style="normal" font-weight="normal" text-decoration="none" x="1000" y="360">UNREGISTERED</text><text fill="#eeeeee" stroke="none" font-family="Arial" font-size="24px" font-style="normal" font-weight="normal" text-decoration="none" x="1000" y="390">UNREGISTERED</text><text fill="#eeeeee" stroke="none" font-family="Arial" font-size="24px" font-style="normal" font-weight="normal" text-decoration="none" x="1000" y="420">UNREGISTERED</text><text fill="#eeeeee" stroke="none" font-family="Arial" font-size="24px" font-style="normal" font-weight="normal" text-decoration="none" x="1000" y="450">UNREGISTERED</text><text fill="#eeeeee" stroke="none" font-family="Arial" font-size="24px" font-style="normal" font-weight="normal" text-decoration="none" x="1000" y="480">UNREGISTERED</text><text fill="#eeeeee" stroke="none" font-family="Arial" font-size="24px" font-style="normal" font-weight="normal" text-decoration="none" x="1000" y="510">UNREGISTERED</text><text fill="#eeeeee" stroke="none" font-family="Arial" font-size="24px" font-style="normal" font-weight="normal" text-decoration="none" x="1000" y="540">UNREGISTERED</text><text fill="#eeeeee" stroke="none" font-family="Arial" font-size="24px" font-style="normal" font-weight="normal" text-decoration="none" x="1200" y="0">UNREGISTERED</text><text fill="#eeeeee" stroke="none" font-family="Arial" font-size="24px" font-style="normal" font-weight="normal" text-decoration="none" x="1200" y="30">UNREGISTERED</text><text fill="#eeeeee" stroke="none" font-family="Arial" font-size="24px" font-style="normal" font-weight="normal" text-decoration="none" x="1200" y="60">UNREGISTERED</text><text fill="#eeeeee" stroke="none" font-family="Arial" font-size="24px" font-style="normal" font-weight="normal" text-decoration="none" x="1200" y="90">UNREGISTERED</text><text fill="#eeeeee" stroke="none" font-family="Arial" font-size="24px" font-style="normal" font-weight="normal" text-decoration="none" x="1200" y="120">UNREGISTERED</text><text fill="#eeeeee" stroke="none" font-family="Arial" font-size="24px" font-style="normal" font-weight="normal" text-decoration="none" x="1200" y="150">UNREGISTERED</text><text fill="#eeeeee" stroke="none" font-family="Arial" font-size="24px" font-style="normal" font-weight="normal" text-decoration="none" x="1200" y="180">UNREGISTERED</text><text fill="#eeeeee" stroke="none" font-family="Arial" font-size="24px" font-style="normal" font-weight="normal" text-decoration="none" x="1200" y="210">UNREGISTERED</text><text fill="#eeeeee" stroke="none" font-family="Arial" font-size="24px" font-style="normal" font-weight="normal" text-decoration="none" x="1200" y="240">UNREGISTERED</text><text fill="#eeeeee" stroke="none" font-family="Arial" font-size="24px" font-style="normal" font-weight="normal" text-decoration="none" x="1200" y="270">UNREGISTERED</text><text fill="#eeeeee" stroke="none" font-family="Arial" font-size="24px" font-style="normal" font-weight="normal" text-decoration="none" x="1200" y="300">UNREGISTERED</text><text fill="#eeeeee" stroke="none" font-family="Arial" font-size="24px" font-style="normal" font-weight="normal" text-decoration="none" x="1200" y="330">UNREGISTERED</text><text fill="#eeeeee" stroke="none" font-family="Arial" font-size="24px" font-style="normal" font-weight="normal" text-decoration="none" x="1200" y="360">UNREGISTERED</text><text fill="#eeeeee" stroke="none" font-family="Arial" font-size="24px" font-style="normal" font-weight="normal" text-decoration="none" x="1200" y="390">UNREGISTERED</text><text fill="#eeeeee" stroke="none" font-family="Arial" font-size="24px" font-style="normal" font-weight="normal" text-decoration="none" x="1200" y="420">UNREGISTERED</text><text fill="#eeeeee" stroke="none" font-family="Arial" font-size="24px" font-style="normal" font-weight="normal" text-decoration="none" x="1200" y="450">UNREGISTERED</text><text fill="#eeeeee" stroke="none" font-family="Arial" font-size="24px" font-style="normal" font-weight="normal" text-decoration="none" x="1200" y="480">UNREGISTERED</text><text fill="#eeeeee" stroke="none" font-family="Arial" font-size="24px" font-style="normal" font-weight="normal" text-decoration="none" x="1200" y="510">UNREGISTERED</text><text fill="#eeeeee" stroke="none" font-family="Arial" font-size="24px" font-style="normal" font-weight="normal" text-decoration="none" x="1200" y="540">UNREGISTERED</text><g transform="translate(-54,-198) scale(1,1)"><path fill="#C0C0C0" stroke="none" d="M 71 400.5 C 71 395.2532944 75.2532944 391 80.5 391 C 85.7467056 391 90 395.2532944 90 400.5 C 90 405.7467056 85.7467056 410 80.5 410 C 75.2532944 410 71 405.7467056 71 400.5 Z" opacity="0.2"/></g><g transform="translate(-54,-198) scale(1,1)"><path fill="#000000" stroke="none" d="M 64 393.5 C 64 388.2532944 68.2532944 384 73.5 384 C 78.7467056 384 83 388.2532944 83 393.5 C 83 398.7467056 78.7467056 403 73.5 403 C 68.2532944 403 64 398.7467056 64 393.5 Z"/></g><g transform="translate(-54,-198) scale(1,1)"><path fill="#C0C0C0" stroke="none" d="M 441 383 L 597 383 Q 607 383 607 393 L 607 412 Q 607 422 597 422 L 441 422 Q 431 422 431 412 L 431 393 Q 431 383 441 383 Z" opacity="0.2"/></g><g transform="translate(-54,-198) scale(1,1)"><path fill="#ffffff" stroke="none" d="M 434 376 L 590 376 Q 600 376 600 386 L 600 405 Q 600 415 590 415 L 434 415 Q 424 415 424 405 L 424 386 Q 424 376 434 376 Z"/></g><g transform="translate(-54,-198) scale(1,1)"><path fill="none" stroke="#000000" d="M 434 376 L 590 376 Q 600 376 600 386 L 600 405 Q 600 415 590 415 L 434 415 Q 424 415 424 405 L 424 386 Q 424 376 434 376 Z" stroke-miterlimit="10"/></g><g transform="translate(-54,-198) scale(1,1)"><g><path fill="none" stroke="none"/><text fill="#000000" stroke="none" font-family="Arial" font-size="13px" font-style="normal" font-weight="bold" text-decoration="none" x="428.5" y="394">Consultar preço das ações</text></g></g><g transform="translate(-54,-198) scale(1,1)"><path fill="#C0C0C0" stroke="none" d="M 449 223 L 582 223 Q 592 223 592 233 L 592 252 Q 592 262 582 262 L 449 262 Q 439 262 439 252 L 439 233 Q 439 223 449 223 Z" opacity="0.2"/></g><g transform="translate(-54,-198) scale(1,1)"><path fill="#ffffff" stroke="none" d="M 442 216 L 575 216 Q 585 216 585 226 L 585 245 Q 585 255 575 255 L 442 255 Q 432 255 432 245 L 432 226 Q 432 216 442 216 Z"/></g><g transform="translate(-54,-198) scale(1,1)"><path fill="none" stroke="#000000" d="M 442 216 L 575 216 Q 585 216 585 226 L 585 245 Q 585 255 575 255 L 442 255 Q 432 255 432 245 L 432 226 Q 432 216 442 216 Z" stroke-miterlimit="10"/></g><g transform="translate(-54,-198) scale(1,1)"><g><path fill="none" stroke="none"/><text fill="#000000" stroke="none" font-family="Arial" font-size="13px" font-style="normal" font-weight="bold" text-decoration="none" x="436.5" y="234">Executar OC solicitada</text></g></g><g transform="translate(-54,-198) scale(1,1)"><path fill="#C0C0C0" stroke="none" d="M 857 223 L 985 223 Q 995 223 995 233 L 995 252 Q 995 262 985 262 L 857 262 Q 847 262 847 252 L 847 233 Q 847 223 857 223 Z" opacity="0.2"/></g><g transform="translate(-54,-198) scale(1,1)"><path fill="#ffffff" stroke="none" d="M 850 216 L 978 216 Q 988 216 988 226 L 988 245 Q 988 255 978 255 L 850 255 Q 840 255 840 245 L 840 226 Q 840 216 850 216 Z"/></g><g transform="translate(-54,-198) scale(1,1)"><path fill="none" stroke="#000000" d="M 850 216 L 978 216 Q 988 216 988 226 L 988 245 Q 988 255 978 255 L 850 255 Q 840 255 840 245 L 840 226 Q 840 216 850 216 Z" stroke-miterlimit="10"/></g><g transform="translate(-54,-198) scale(1,1)"><g><path fill="none" stroke="none"/><text fill="#000000" stroke="none" font-family="Arial" font-size="13px" font-style="normal" font-weight="bold" text-decoration="none" x="844.5" y="234">Verifica pedido de OC</text></g></g><g transform="translate(-54,-198) scale(1,1)"><path fill="none" stroke="#000000" d="M 83 395 L 424 395" stroke-miterlimit="10"/></g><g transform="translate(-54,-198) scale(1,1)"><path fill="none" stroke="#000000" d="M 413.83732514237585 399.209517756016 L 424 395 L 413.83732514237585 390.790482243984" stroke-miterlimit="10"/></g><g transform="translate(-54,-198) scale(1,1)"><g><path fill="none" stroke="none"/><text fill="#000000" stroke="none" font-family="Arial" font-size="13px" font-style="normal" font-weight="normal" text-decoration="none" x="155.5" y="385"> [Solicitação de preco das ações]</text></g></g><g transform="translate(-54,-198) scale(1,1)"><path fill="none" stroke="#000000" d="M 72 384 L 72 232 L 432 232" stroke-miterlimit="10"/></g><g transform="translate(-54,-198) scale(1,1)"><path fill="none" stroke="#000000" d="M 421.83732514237585 236.209517756016 L 432 232 L 421.83732514237585 227.790482243984" stroke-miterlimit="10"/></g><g transform="translate(-54,-198) scale(1,1)"><g><path fill="none" stroke="none"/><text fill="#000000" stroke="none" font-family="Arial" font-size="13px" font-style="normal" font-weight="normal" text-decoration="none" x="166.5" y="219"> [Recebe solicitação de OC]</text></g></g><g transform="translate(-54,-198) scale(1,1)"><path fill="none" stroke="#000000" d="M 585 235 L 840 235" stroke-miterlimit="10"/></g><g transform="translate(-54,-198) scale(1,1)"><path fill="none" stroke="#000000" d="M 829.8373251423759 239.209517756016 L 840 235 L 829.8373251423758 230.790482243984" stroke-miterlimit="10"/></g><g transform="translate(-54,-198) scale(1,1)"><g><path fill="none" stroke="none"/><text fill="#000000" stroke="none" font-family="Arial" font-size="13px" font-style="normal" font-weight="normal" text-decoration="none" x="632.923095703125" y="225"> [Envia OC para verificação]</text></g></g><g transform="translate(-54,-198) scale(1,1)"><path fill="#C0C0C0" stroke="none" d="M 943 403.5 C 943 396.59644 948.59644 391 955.5 391 C 962.40356 391 968 396.59644 968 403.5 C 968 410.40356 962.40356 416 955.5 416 C 948.59644 416 943 410.40356 943 403.5 Z" opacity="0.2"/></g><g transform="translate(-54,-198) scale(1,1)"><path fill="none" stroke="#000000" d="M 936 396.5 C 936 389.59644 941.59644 384 948.5 384 C 955.40356 384 961 389.59644 961 396.5 C 961 403.40356 955.40356 409 948.5 409 C 941.59644 409 936 403.40356 936 396.5 Z" stroke-miterlimit="10"/></g><g transform="translate(-54,-198) scale(1,1)"><path fill="#000000" stroke="none" d="M 941 396.5 C 941 392.357864 944.357864 389 948.5 389 C 952.642136 389 956 392.357864 956 396.5 C 956 400.642136 952.642136 404 948.5 404 C 944.357864 404 941 400.642136 941 396.5 Z"/></g><g transform="translate(-54,-198) scale(1,1)"><path fill="none" stroke="#000000" d="M 601 395 L 935 396" stroke-miterlimit="10"/></g><g transform="translate(-54,-198) scale(1,1)"><path fill="none" stroke="#000000" d="M 924.8247674016393 400.1790718550004 L 935 396 L 924.849973981812 391.76007407728537" stroke-miterlimit="10"/></g><g transform="translate(-54,-198) scale(1,1)"><g><path fill="none" stroke="none"/><text fill="#000000" stroke="none" font-family="Arial" font-size="13px" font-style="normal" font-weight="normal" text-decoration="none" x="666.5" y="385"> [Recebe preços atuais das ações]</text></g></g><g transform="translate(-54,-198) scale(1,1)"><path fill="#C0C0C0" stroke="none" d="M 1201 375 L 1342 375 Q 1352 375 1352 385 L 1352 404 Q 1352 414 1342 414 L 1201 414 Q 1191 414 1191 404 L 1191 385 Q 1191 375 1201 375 Z" opacity="0.2"/></g><g transform="translate(-54,-198) scale(1,1)"><path fill="#ffffff" stroke="none" d="M 1194 368 L 1335 368 Q 1345 368 1345 378 L 1345 397 Q 1345 407 1335 407 L 1194 407 Q 1184 407 1184 397 L 1184 378 Q 1184 368 1194 368 Z"/></g><g transform="translate(-54,-198) scale(1,1)"><path fill="none" stroke="#000000" d="M 1194 368 L 1335 368 Q 1345 368 1345 378 L 1345 397 Q 1345 407 1335 407 L 1194 407 Q 1184 407 1184 397 L 1184 378 Q 1184 368 1194 368 Z" stroke-miterlimit="10"/></g><g transform="translate(-54,-198) scale(1,1)"><g><path fill="none" stroke="none"/><text fill="#000000" stroke="none" font-family="Arial" font-size="13px" font-style="normal" font-weight="bold" text-decoration="none" x="1188.5" y="386">Gerar extrato de ordens</text></g></g><g transform="translate(-54,-198) scale(1,1)"><path fill="none" stroke="#000000" d="M 1184 396 L 961 396" stroke-miterlimit="10"/></g><g transform="translate(-54,-198) scale(1,1)"><path fill="none" stroke="#000000" d="M 971.1626748576241 391.790482243984 L 961 396 L 971.1626748576241 400.209517756016" stroke-miterlimit="10"/></g><g transform="translate(-54,-198) scale(1,1)"><g><path fill="none" stroke="none"/><text fill="#000000" stroke="none" font-family="Arial" font-size="13px" font-style="normal" font-weight="normal" text-decoration="none" x="955.5" y="416"> [Extratos gerados e ordens finalizadas]</text></g></g><g transform="translate(-54,-198) scale(1,1)"><path fill="none" stroke="#000000" d="M 988 232 L 1240 232 L 1240 368" stroke-miterlimit="10"/></g><g transform="translate(-54,-198) scale(1,1)"><path fill="none" stroke="#000000" d="M 1235.7904822439841 357.83732514237585 L 1240 368 L 1244.2095177560159 357.83732514237585" stroke-miterlimit="10"/></g><g transform="translate(-54,-198) scale(1,1)"><g><path fill="none" stroke="none"/><text fill="#000000" stroke="none" font-family="Arial" font-size="13px" font-style="normal" font-weight="normal" text-decoration="none" x="1135.713134765625" y="307"> [B3 valida OC]</text></g></g><g transform="translate(-54,-198) scale(1,1)"><path fill="#C0C0C0" stroke="none" d="M 233 559 L 347 559 Q 357 559 357 569 L 357 588 Q 357 598 347 598 L 233 598 Q 223 598 223 588 L 223 569 Q 223 559 233 559 Z" opacity="0.2"/></g><g transform="translate(-54,-198) scale(1,1)"><path fill="#ffffff" stroke="none" d="M 226 552 L 340 552 Q 350 552 350 562 L 350 581 Q 350 591 340 591 L 226 591 Q 216 591 216 581 L 216 562 Q 216 552 226 552 Z"/></g><g transform="translate(-54,-198) scale(1,1)"><path fill="none" stroke="#000000" d="M 226 552 L 340 552 Q 350 552 350 562 L 350 581 Q 350 591 340 591 L 226 591 Q 216 591 216 581 L 216 562 Q 216 552 226 552 Z" stroke-miterlimit="10"/></g><g transform="translate(-54,-198) scale(1,1)"><g><path fill="none" stroke="none"/><text fill="#000000" stroke="none" font-family="Arial" font-size="13px" font-style="normal" font-weight="bold" text-decoration="none" x="220.5" y="570">Obter cotação atual</text></g></g><g transform="translate(-54,-198) scale(1,1)"><path fill="#C0C0C0" stroke="none" d="M 705 551 L 899 551 Q 909 551 909 561 L 909 580 Q 909 590 899 590 L 705 590 Q 695 590 695 580 L 695 561 Q 695 551 705 551 Z" opacity="0.2"/></g><g transform="translate(-54,-198) scale(1,1)"><path fill="#ffffff" stroke="none" d="M 698 544 L 892 544 Q 902 544 902 554 L 902 573 Q 902 583 892 583 L 698 583 Q 688 583 688 573 L 688 554 Q 688 544 698 544 Z"/></g><g transform="translate(-54,-198) scale(1,1)"><path fill="none" stroke="#000000" d="M 698 544 L 892 544 Q 902 544 902 554 L 902 573 Q 902 583 892 583 L 698 583 Q 688 583 688 573 L 688 554 Q 688 544 698 544 Z" stroke-miterlimit="10"/></g><g transform="translate(-54,-198) scale(1,1)"><g><path fill="none" stroke="none"/><text fill="#000000" stroke="none" font-family="Arial" font-size="13px" font-style="normal" font-weight="bold" text-decoration="none" x="692.5" y="562">Validação do pedido de cotação</text></g></g><g transform="translate(-54,-198) scale(1,1)"><path fill="none" stroke="#000000" d="M 350 570 L 688 570" stroke-miterlimit="10"/></g><g transform="translate(-54,-198) scale(1,1)"><path fill="none" stroke="#000000" d="M 677.8373251423759 574.209517756016 L 688 570 L 677.8373251423758 565.790482243984" stroke-miterlimit="10"/></g><g transform="translate(-54,-198) scale(1,1)"><g><path fill="none" stroke="none"/><text fill="#000000" stroke="none" font-family="Arial" font-size="13px" font-style="normal" font-weight="normal" text-decoration="none" x="417.681640625" y="560"> [Envia pedido de cotação para B3]</text></g></g><g transform="translate(-54,-198) scale(1,1)"><path fill="none" stroke="#000000" d="M 902 563 L 948 563 L 948 409" stroke-miterlimit="10"/></g><g transform="translate(-54,-198) scale(1,1)"><path fill="none" stroke="#000000" d="M 952.209517756016 419.16267485762415 L 948 409 L 943.790482243984 419.16267485762415" stroke-miterlimit="10"/></g><g transform="translate(-54,-198) scale(1,1)"><g><path fill="none" stroke="none"/><text fill="#000000" stroke="none" font-family="Arial" font-size="13px" font-style="normal" font-weight="normal" text-decoration="none" x="733.5" y="483"> [B3 valida pedido de cotação atual]</text></g></g><g transform="translate(-54,-198) scale(1,1)"><path fill="none" stroke="#000000" d="M 80 403 L 80 571 L 216 571" stroke-miterlimit="10"/></g><g transform="translate(-54,-198) scale(1,1)"><path fill="none" stroke="#000000" d="M 205.83732514237585 575.209517756016 L 216 571 L 205.83732514237585 566.790482243984" stroke-miterlimit="10"/></g><g transform="translate(-54,-198) scale(1,1)"><g><path fill="none" stroke="none"/><text fill="#000000" stroke="none" font-family="Arial" font-size="13px" font-style="normal" font-weight="normal" text-decoration="none" x="85.5" y="483"> [Recebe solicitação para cotação atual das ações]</text></g></g><g transform="translate(-54,-198) scale(1,1)"><path fill="#C0C0C0" stroke="none" d="M 473 711 L 606 711 Q 616 711 616 721 L 616 740 Q 616 750 606 750 L 473 750 Q 463 750 463 740 L 463 721 Q 463 711 473 711 Z" opacity="0.2"/></g><g transform="translate(-54,-198) scale(1,1)"><path fill="#ffffff" stroke="none" d="M 466 704 L 599 704 Q 609 704 609 714 L 609 733 Q 609 743 599 743 L 466 743 Q 456 743 456 733 L 456 714 Q 456 704 466 704 Z"/></g><g transform="translate(-54,-198) scale(1,1)"><path fill="none" stroke="#000000" d="M 466 704 L 599 704 Q 609 704 609 714 L 609 733 Q 609 743 599 743 L 466 743 Q 456 743 456 733 L 456 714 Q 456 704 466 704 Z" stroke-miterlimit="10"/></g><g transform="translate(-54,-198) scale(1,1)"><g><path fill="none" stroke="none"/><text fill="#000000" stroke="none" font-family="Arial" font-size="13px" font-style="normal" font-weight="bold" text-decoration="none" x="460.5" y="722">Executar OV solicitada</text></g></g><g transform="translate(-54,-198) scale(1,1)"><path fill="#C0C0C0" stroke="none" d="M 881 703 L 1009 703 Q 1019 703 1019 713 L 1019 732 Q 1019 742 1009 742 L 881 742 Q 871 742 871 732 L 871 713 Q 871 703 881 703 Z" opacity="0.2"/></g><g transform="translate(-54,-198) scale(1,1)"><path fill="#ffffff" stroke="none" d="M 874 696 L 1002 696 Q 1012 696 1012 706 L 1012 725 Q 1012 735 1002 735 L 874 735 Q 864 735 864 725 L 864 706 Q 864 696 874 696 Z"/></g><g transform="translate(-54,-198) scale(1,1)"><path fill="none" stroke="#000000" d="M 874 696 L 1002 696 Q 1012 696 1012 706 L 1012 725 Q 1012 735 1002 735 L 874 735 Q 864 735 864 725 L 864 706 Q 864 696 874 696 Z" stroke-miterlimit="10"/></g><g transform="translate(-54,-198) scale(1,1)"><g><path fill="none" stroke="none"/><text fill="#000000" stroke="none" font-family="Arial" font-size="13px" font-style="normal" font-weight="bold" text-decoration="none" x="868.5" y="714">Verifica pedido de OV</text></g></g><g transform="translate(-54,-198) scale(1,1)"><path fill="none" stroke="#000000" d="M 72 403 L 72 723 L 456 723" stroke-miterlimit="10"/></g><g transform="translate(-54,-198) scale(1,1)"><path fill="none" stroke="#000000" d="M 445.83732514237585 727.209517756016 L 456 723 L 445.83732514237585 718.790482243984" stroke-miterlimit="10"/></g><g transform="translate(-54,-198) scale(1,1)"><g><path fill="none" stroke="none"/><text fill="#000000" stroke="none" font-family="Arial" font-size="13px" font-style="normal" font-weight="normal" text-decoration="none" x="157.5" y="707"> [Recebe solicitação de OV]</text></g></g><g transform="translate(-54,-198) scale(1,1)"><path fill="none" stroke="#000000" d="M 609 721 L 864 721" stroke-miterlimit="10"/></g><g transform="translate(-54,-198) scale(1,1)"><path fill="none" stroke="#000000" d="M 853.8373251423759 725.209517756016 L 864 721 L 853.8373251423758 716.790482243984" stroke-miterlimit="10"/></g><g transform="translate(-54,-198) scale(1,1)"><g><path fill="none" stroke="none"/><text fill="#000000" stroke="none" font-family="Arial" font-size="13px" font-style="normal" font-weight="normal" text-decoration="none" x="656.564453125" y="711"> [Envia OV para verificação]</text></g></g><g transform="translate(-54,-198) scale(1,1)"><path fill="none" stroke="#000000" d="M 1012 715 L 1241 715 L 1241 407" stroke-miterlimit="10"/></g><g transform="translate(-54,-198) scale(1,1)"><path fill="none" stroke="#000000" d="M 1245.2095177560159 417.16267485762415 L 1241 407 L 1236.7904822439841 417.16267485762415" stroke-miterlimit="10"/></g><g transform="translate(-54,-198) scale(1,1)"><g><path fill="none" stroke="none"/><text fill="#000000" stroke="none" font-family="Arial" font-size="13px" font-style="normal" font-weight="normal" text-decoration="none" x="1126.5" y="698"> [B3 valida OV]</text></g></g><g transform="translate(-54,-198) scale(1,1)"><path fill="none" stroke="#000000" d="M 744 583 L 744 664 L 304 664 L 304 591" stroke-miterlimit="10"/></g><g transform="translate(-54,-198) scale(1,1)"><path fill="none" stroke="#000000" d="M 308.209517756016 601.1626748576241 L 304 591 L 299.790482243984 601.1626748576241" stroke-miterlimit="10"/></g><g transform="translate(-54,-198) scale(1,1)"><g><path fill="none" stroke="none"/><text fill="#000000" stroke="none" font-family="Arial" font-size="13px" font-style="normal" font-weight="normal" text-decoration="none" x="414.5498046875" y="650"> [B3 invalida pedido de cotação atual]</text></g></g></g></svg>