<svg version="1.1" xmlns="http://www.w3.org/2000/svg" xmlns:xlink="http://www.w3.org/1999/xlink" width="1413" height="549"><defs/><g><text fill="#eeeeee" stroke="none" font-family="Arial" font-size="24px" font-style="normal" font-weight="normal" text-decoration="none" x="0" y="0">UNREGISTERED</text><text fill="#eeeeee" stroke="none" font-family="Arial" font-size="24px" font-style="normal" font-weight="normal" text-decoration="none" x="0" y="30">UNREGISTERED</text><text fill="#eeeeee" stroke="none" font-family="Arial" font-size="24px" font-style="normal" font-weight="normal" text-decoration="none" x="0" y="60">UNREGISTERED</text><text fill="#eeeeee" stroke="none" font-family="Arial" font-size="24px" font-style="normal" font-weight="normal" text-decoration="none" x="0" y="90">UNREGISTERED</text><text fill="#eeeeee" stroke="none" font-family="Arial" font-size="24px" font-style="normal" font-weight="normal" text-decoration="none" x="0" y="120">UNREGISTERED</text><text fill="#eeeeee" stroke="none" font-family="Arial" font-size="24px" font-style="normal" font-weight="normal" text-decoration="none" x="0" y="150">UNREGISTERED</text><text fill="#eeeeee" stroke="none" font-family="Arial" font-size="24px" font-style="normal" font-weight="normal" text-decoration="none" x="0" y="180">UNREGISTERED</text><text fill="#eeeeee" stroke="none" font-family="Arial" font-size="24px" font-style="normal" font-weight="normal" text-decoration="none" x="0" y="210">UNREGISTERED</text><text fill="#eeeeee" stroke="none" font-family="Arial" font-size="24px" font-style="normal" font-weight="normal" text-decoration="none" x="0" y="240">UNREGISTERED</text><text fill="#eeeeee" stroke="none" font-family="Arial" font-size="24px" font-style="normal" font-weight="normal" text-decoration="none" x="0" y="270">UNREGISTERED</text><text fill="#eeeeee" stroke="none" font-family="Arial" font-size="24px" font-style="normal" font-weight="normal" text-decoration="none" x="0" y="300">UNREGISTERED</text><text fill="#eeeeee" stroke="none" font-family="Arial" font-size="24px" font-style="normal" font-weight="normal" text-decoration="none" x="0" y="330">UNREGISTERED</text><text fill="#eeeeee" stroke="none" font-family="Arial" font-size="24px" font-style="normal" font-weight="normal" text-decoration="none" x="0" y="360">UNREGISTERED</text><text fill="#eeeeee" stroke="none" font-family="Arial" font-size="24px" font-style="normal" font-weight="normal" text-decoration="none" x="0" y="390">UNREGISTERED</text><text fill="#eeeeee" stroke="none" font-family="Arial" font-size="24px" font-style="normal" font-weight="normal" text-decoration="none" x="0" y="420">UNREGISTERED</text><text fill="#eeeeee" stroke="none" font-family="Arial" font-size="24px" font-style="normal" font-weight="normal" text-decoration="none" x="0" y="450">UNREGISTERED</text><text fill="#eeeeee" stroke="none" font-family="Arial" font-size="24px" font-style="normal" font-weight="normal" text-decoration="none" x="0" y="480">UNREGISTERED</text><text fill="#eeeeee" stroke="none" font-family="Arial" font-size="24px" font-style="normal" font-weight="normal" text-decoration="none" x="0" y="510">UNREGISTERED</text><text fill="#eeeeee" stroke="none" font-family="Arial" font-size="24px" font-style="normal" font-weight="normal" text-decoration="none" x="0" y="540">UNREGISTERED</text><text fill="#eeeeee" stroke="none" font-family="Arial" font-size="24px" font-style="normal" font-weight="normal" text-decoration="none" x="200" y="0">UNREGISTERED</text><text fill="#eeeeee" stroke="none" font-family="Arial" font-size="24px" font-style="normal" font-weight="normal" text-decoration="none" x="200" y="30">UNREGISTERED</text><text fill="#eeeeee" stroke="none" font-family="Arial" font-size="24px" font-style="normal" font-weight="normal" text-decoration="none" x="200" y="60">UNREGISTERED</text><text fill="#eeeeee" stroke="none" font-family="Arial" font-size="24px" font-style="normal" font-weight="normal" text-decoration="none" x="200" y="90">UNREGISTERED</text><text fill="#eeeeee" stroke="none" font-family="Arial" font-size="24px" font-style="normal" font-weight="normal" text-decoration="none" x="200" y="120">UNREGISTERED</text><text fill="#eeeeee" stroke="none" font-family="Arial" font-size="24px" font-style="normal" font-weight="normal" text-decoration="none" x="200" y="150">UNREGISTERED</text><text fill="#eeeeee" stroke="none" font-family="Arial" font-size="24px" font-style="normal" font-weight="normal" text-decoration="none" x="200" y="180">UNREGISTERED</text><text fill="#eeeeee" stroke="none" font-family="Arial" font-size="24px" font-style="normal" font-weight="normal" text-decoration="none" x="200" y="210">UNREGISTERED</text><text fill="#eeeeee" stroke="none" font-family="Arial" font-size="24px" font-style="normal" font-weight="normal" text-decoration="none" x="200" y="240">UNREGISTERED</text><text fill="#eeeeee" stroke="none" font-family="Arial" font-size="24px" font-style="normal" font-weight="normal" text-decoration="none" x="200" y="270">UNREGISTERED</text><text fill="#eeeeee" stroke="none" font-family="Arial" font-size="24px" font-style="normal" font-weight="normal" text-decoration="none" x="200" y="300">UNREGISTERED</text><text fill="#eeeeee" stroke="none" font-family="Arial" font-size="24px" font-style="normal" font-weight="normal" text-decoration="none" x="200" y="330">UNREGISTERED</text><text fill="#eeeeee" stroke="none" font-family="Arial" font-size="24px" font-style="normal" font-weight="normal" text-decoration="none" x="200" y="360">UNREGISTERED</text><text fill="#eeeeee" stroke="none" font-family="Arial" font-size="24px" font-style="normal" font-weight="normal" text-decoration="none" x="200" y="390">UNREGISTERED</text><text fill="#eeeeee" stroke="none" font-family="Arial" font-size="24px" font-style="normal" font-weight="normal" text-decoration="none" x="200" y="420">UNREGISTERED</text><text fill="#eeeeee" stroke="none" font-family="Arial" font-size="24px" font-style="normal" font-weight="normal" text-decoration="none" x="200" y="450">UNREGISTERED</text><text fill="#eeeeee" stroke="none" font-family="Arial" font-size="24px" font-style="normal" font-weight="normal" text-decoration="none" x="200" y="480">UNREGISTERED</text><text fill="#eeeeee" stroke="none" font-family="Arial" font-size="24px" font-style="normal" font-weight="normal" text-decoration="none" x="200" y="510">UNREGISTERED</text><text fill="#eeeeee" stroke="none" font-family="Arial" font-size="24px" font-style="normal" font-weight="normal" text-decoration="none" x="200" y="540">UNREGISTERED</text><text fill="#eeeeee" stroke="none" font-family="Arial" font-size="24px" font-style="normal" font-weight="normal" text-decoration="none" x="400" y="0">UNREGISTERED</text><text fill="#eeeeee" stroke="none" font-family="Arial" font-size="24px" font-style="normal" font-weight="normal" text-decoration="none" x="400" y="30">UNREGISTERED</text><text fill="#eeeeee" stroke="none" font-family="Arial" font-size="24px" font-style="normal" font-weight="normal" text-decoration="none" x="400" y="60">UNREGISTERED</text><text fill="#eeeeee" stroke="none" font-family="Arial" font-size="24px" font-style="normal" font-weight="normal" text-decoration="none" x="400" y="90">UNREGISTERED</text><text fill="#eeeeee" stroke="none" font-family="Arial" font-size="24px" font-style="normal" font-weight="normal" text-decoration="none" x="400" y="120">UNREGISTERED</text><text fill="#eeeeee" stroke="none" font-family="Arial" font-size="24px" font-style="normal" font-weight="normal" text-decoration="none" x="400" y="150">UNREGISTERED</text><text fill="#eeeeee" stroke="none" font-family="Arial" font-size="24px" font-style="normal" font-weight="normal" text-decoration="none" x="400" y="180">UNREGISTERED</text><text fill="#eeeeee" stroke="none" font-family="Arial" font-size="24px" font-style="normal" font-weight="normal" text-decoration="none" x="400" y="210">UNREGISTERED</text><text fill="#eeeeee" stroke="none" font-family="Arial" font-size="24px" font-style="normal" font-weight="normal" text-decoration="none" x="400" y="240">UNREGISTERED</text><text fill="#eeeeee" stroke="none" font-family="Arial" font-size="24px" font-style="normal" font-weight="normal" text-decoration="none" x="400" y="270">UNREGISTERED</text><text fill="#eeeeee" stroke="none" font-family="Arial" font-size="24px" font-style="normal" font-weight="normal" text-decoration="none" x="400" y="300">UNREGISTERED</text><text fill="#eeeeee" stroke="none" font-family="Arial" font-size="24px" font-style="normal" font-weight="normal" text-decoration="none" x="400" y="330">UNREGISTERED</text><text fill="#eeeeee" stroke="none" font-family="Arial" font-size="24px" font-style="normal" font-weight="normal" text-decoration="none" x="400" y="360">UNREGISTERED</text><text fill="#eeeeee" stroke="none" font-family="Arial" font-size="24px" font-style="normal" font-weight="normal" text-decoration="none" x="400" y="390">UNREGISTERED</text><text fill="#eeeeee" stroke="none" font-family="Arial" font-size="24px" font-style="normal" font-weight="normal" text-decoration="none" x="400" y="420">UNREGISTERED</text><text fill="#eeeeee" stroke="none" font-family="Arial" font-size="24px" font-style="normal" font-weight="normal" text-decoration="none" x="400" y="450">UNREGISTERED</text><text fill="#eeeeee" stroke="none" font-family="Arial" font-size="24px" font-style="normal" font-weight="normal" text-decoration="none" x="400" y="480">UNREGISTERED</text><text fill="#eeeeee" stroke="none" font-family="Arial" font-size="24px" font-style="normal" font-weight="normal" text-decoration="none" x="400" y="510">UNREGISTERED</text><text fill="#eeeeee" stroke="none" font-family="Arial" font-size="24px" font-style="normal" font-weight="normal" text-decoration="none" x="400" y="540">UNREGISTERED</text><text fill="#eeeeee" stroke="none" font-family="Arial" font-size="24px" font-style="normal" font-weight="normal" text-decoration="none" x="600" y="0">UNREGISTERED</text><text fill="#eeeeee" stroke="none" font-family="Arial" font-size="24px" font-style="normal" font-weight="normal" text-decoration="none" x="600" y="30">UNREGISTERED</text><text fill="#eeeeee" stroke="none" font-family="Arial" font-size="24px" font-style="normal" font-weight="normal" text-decoration="none" x="600" y="60">UNREGISTERED</text><text fill="#eeeeee" stroke="none" font-family="Arial" font-size="24px" font-style="normal" font-weight="normal" text-decoration="none" x="600" y="90">UNREGISTERED</text><text fill="#eeeeee" stroke="none" font-family="Arial" font-size="24px" font-style="normal" font-weight="normal" text-decoration="none" x="600" y="120">UNREGISTERED</text><text fill="#eeeeee" stroke="none" font-family="Arial" font-size="24px" font-style="normal" font-weight="normal" text-decoration="none" x="600" y="150">UNREGISTERED</text><text fill="#eeeeee" stroke="none" font-family="Arial" font-size="24px" font-style="normal" font-weight="normal" text-decoration="none" x="600" y="180">UNREGISTERED</text><text fill="#eeeeee" stroke="none" font-family="Arial" font-size="24px" font-style="normal" font-weight="normal" text-decoration="none" x="600" y="210">UNREGISTERED</text><text fill="#eeeeee" stroke="none" font-family="Arial" font-size="24px" font-style="normal" font-weight="normal" text-decoration="none" x="600" y="240">UNREGISTERED</text><text fill="#eeeeee" stroke="none" font-family="Arial" font-size="24px" font-style="normal" font-weight="normal" text-decoration="none" x="600" y="270">UNREGISTERED</text><text fill="#eeeeee" stroke="none" font-family="Arial" font-size="24px" font-style="normal" font-weight="normal" text-decoration="none" x="600" y="300">UNREGISTERED</text><text fill="#eeeeee" stroke="none" font-family="Arial" font-size="24px" font-style="normal" font-weight="normal" text-decoration="none" x="600" y="330">UNREGISTERED</text><text fill="#eeeeee" stroke="none" font-family="Arial" font-size="24px" font-style="normal" font-weight="normal" text-decoration="none" x="600" y="360">UNREGISTERED</text><text fill="#eeeeee" stroke="none" font-family="Arial" font-size="24px" font-style="normal" font-weight="normal" text-decoration="none" x="600" y="390">UNREGISTERED</text><text fill="#eeeeee" stroke="none" font-family="Arial" font-size="24px" font-style="normal" font-weight="normal" text-decoration="none" x="600" y="420">UNREGISTERED</text><text fill="#eeeeee" stroke="none" font-family="Arial" font-size="24px" font-style="normal" font-weight="normal" text-decoration="none" x="600" y="450">UNREGISTERED</text><text fill="#eeeeee" stroke="none" font-family="Arial" font-size="24px" font-style="normal" font-weight="normal" text-decoration="none" x="600" y="480">UNREGISTERED</text><text fill="#eeeeee" stroke="none" font-family="Arial" font-size="24px" font-style="normal" font-weight="normal" text-decoration="none" x="600" y="510">UNREGISTERED</text><text fill="#eeeeee" stroke="none" font-family="Arial" font-size="24px" font-style="normal" font-weight="normal" text-decoration="none" x="600" y="540">UNREGISTERED</text><text fill="#eeeeee" stroke="none" font-family="Arial" font-size="24px" font-style="normal" font-weight="normal" text-decoration="none" x="800" y="0">UNREGISTERED</text><text fill="#eeeeee" stroke="none" font-family="Arial" font-size="24px" font-style="normal" font-weight="normal" text-decoration="none" x="800" y="30">UNREGISTERED</text><text fill="#eeeeee" stroke="none" font-family="Arial" font-size="24px" font-style="normal" font-weight="normal" text-decoration="none" x="800" y="60">UNREGISTERED</text><text fill="#eeeeee" stroke="none" font-family="Arial" font-size="24px" font-style="normal" font-weight="normal" text-decoration="none" x="800" y="90">UNREGISTERED</text><text fill="#eeeeee" stroke="none" font-family="Arial" font-size="24px" font-style="normal" font-weight="normal" text-decoration="none" x="800" y="120">UNREGISTERED</text><text fill="#eeeeee" stroke="none" font-family="Arial" font-size="24px" font-style="normal" font-weight="normal" text-decoration="none" x="800" y="150">UNREGISTERED</text><text fill="#eeeeee" stroke="none" font-family="Arial" font-size="24px" font-style="normal" font-weight="normal" text-decoration="none" x="800" y="180">UNREGISTERED</text><text fill="#eeeeee" stroke="none" font-family="Arial" font-size="24px" font-style="normal" font-weight="normal" text-decoration="none" x="800" y="210">UNREGISTERED</text><text fill="#eeeeee" stroke="none" font-family="Arial" font-size="24px" font-style="normal" font-weight="normal" text-decoration="none" x="800" y="240">UNREGISTERED</text><text fill="#eeeeee" stroke="none" font-family="Arial" font-size="24px" font-style="normal" font-weight="normal" text-decoration="none" x="800" y="270">UNREGISTERED</text><text fill="#eeeeee" stroke="none" font-family="Arial" font-size="24px" font-style="normal" font-weight="normal" text-decoration="none" x="800" y="300">UNREGISTERED</text><text fill="#eeeeee" stroke="none" font-family="Arial" font-size="24px" font-style="normal" font-weight="normal" text-decoration="none" x="800" y="330">UNREGISTERED</text><text fill="#eeeeee" stroke="none" font-family="Arial" font-size="24px" font-style="normal" font-weight="normal" text-decoration="none" x="800" y="360">UNREGISTERED</text><text fill="#eeeeee" stroke="none" font-family="Arial" font-size="24px" font-style="normal" font-weight="normal" text-decoration="none" x="800" y="390">UNREGISTERED</text><text fill="#eeeeee" stroke="none" font-family="Arial" font-size="24px" font-style="normal" font-weight="normal" text-decoration="none" x="800" y="420">UNREGISTERED</text><text fill="#eeeeee" stroke="none" font-family="Arial" font-size="24px" font-style="normal" font-weight="normal" text-decoration="none" x="800" y="450">UNREGISTERED</text><text fill="#eeeeee" stroke="none" font-family="Arial" font-size="24px" font-style="normal" font-weight="normal" text-decoration="none" x="800" y="480">UNREGISTERED</text><text fill="#eeeeee" stroke="none" font-family="Arial" font-size="24px" font-style="normal" font-weight="normal" text-decoration="none" x="800" y="510">UNREGISTERED</text><text fill="#eeeeee" stroke="none" font-family="Arial" font-size="24px" font-style="normal" font-weight="normal" text-decoration="none" x="800" y="540">UNREGISTERED</text><text fill="#eeeeee" stroke="none" font-family="Arial" font-size="24px" font-style="normal" font-weight="normal" text-decoration="none" x="1000" y="0">UNREGISTERED</text><text fill="#eeeeee" stroke="none" font-family="Arial" font-size="24px" font-style="normal" font-weight="normal" text-decoration="none" x="1000" y="30">UNREGISTERED</text><text fill="#eeeeee" stroke="none" font-family="Arial" font-size="24px" font-style="normal" font-weight="normal" text-decoration="none" x="1000" y="60">UNREGISTERED</text><text fill="#eeeeee" stroke="none" font-family="Arial" font-size="24px" font-style="normal" font-weight="normal" text-decoration="none" x="1000" y="90">UNREGISTERED</text><text fill="#eeeeee" stroke="none" font-family="Arial" font-size="24px" font-style="normal" font-weight="normal" text-decoration="none" x="1000" y="120">UNREGISTERED</text><text fill="#eeeeee" stroke="none" font-family="Arial" font-size="24px" font-style="normal" font-weight="normal" text-decoration="none" x="1000" y="150">UNREGISTERED</text><text fill="#eeeeee" stroke="none" font-family="Arial" font-size="24px" font-style="normal" font-weight="normal" text-decoration="none" x="1000" y="180">UNREGISTERED</text><text fill="#eeeeee" stroke="none" font-family="Arial" font-size="24px" font-style="normal" font-weight="normal" text-decoration="none" x="1000" y="210">UNREGISTERED</text><text fill="#eeeeee" stroke="none" font-family="Arial" font-size="24px" font-style="normal" font-weight="normal" text-decoration="none" x="1000" y="240">UNREGISTERED</text><text fill="#eeeeee" stroke="none" font-family="Arial" font-size="24px" font-style="normal" font-weight="normal" text-decoration="none" x="1000" y="270">UNREGISTERED</text><text fill="#eeeeee" stroke="none" font-family="Arial" font-size="24px" font-style="normal" font-weight="normal" text-decoration="none" x="1000" y="300">UNREGISTERED</text><text fill="#eeeeee" stroke="none" font-family="Arial" font-size="24px" font-style="normal" font-weight="normal" text-decoration="none" x="1000" y="330">UNREGISTERED</text><text fill="#eeeeee" stroke="none" font-family="Arial" font-size="24px" font-style="normal" font-weight="normal" text-decoration="none" x="1000" y="360">UNREGISTERED</text><text fill="#eeeeee" stroke="none" font-family="Arial" font-size="24px" font-style="normal" font-weight="normal" text-decoration="none" x="1000" y="390">UNREGISTERED</text><text fill="#eeeeee" stroke="none" font-family="Arial" font-size="24px" font-style="normal" font-weight="normal" text-decoration="none" x="1000" y="420">UNREGISTERED</text><text fill="#eeeeee" stroke="none" font-family="Arial" font-size="24px" font-style="normal" font-weight="normal" text-decoration="none" x="1000" y="450">UNREGISTERED</text><text fill="#eeeeee" stroke="none" font-family="Arial" font-size="24px" font-style="normal" font-weight="normal" text-decoration="none" x="1000" y="480">UNREGISTERED</text><text fill="#eeeeee" stroke="none" font-family="Arial" font-size="24px" font-style="normal" font-weight="normal" text-decoration="none" x="1000" y="510">UNREGISTERED</text><text fill="#eeeeee" stroke="none" font-family="Arial" font-size="24px" font-style="normal" font-weight="normal" text-decoration="none" x="1000" y="540">UNREGISTERED</text><text fill="#eeeeee" stroke="none" font-family="Arial" font-size="24px" font-style="normal" font-weight="normal" text-decoration="none" x="1200" y="0">UNREGISTERED</text><text fill="#eeeeee" stroke="none" font-family="Arial" font-size="24px" font-style="normal" font-weight="normal" text-decoration="none" x="1200" y="30">UNREGISTERED</text><text fill="#eeeeee" stroke="none" font-family="Arial" font-size="24px" font-style="normal" font-weight="normal" text-decoration="none" x="1200" y="60">UNREGISTERED</text><text fill="#eeeeee" stroke="none" font-family="Arial" font-size="24px" font-style="normal" font-weight="normal" text-decoration="none" x="1200" y="90">UNREGISTERED</text><text fill="#eeeeee" stroke="none" font-family="Arial" font-size="24px" font-style="normal" font-weight="normal" text-decoration="none" x="1200" y="120">UNREGISTERED</text><text fill="#eeeeee" stroke="none" font-family="Arial" font-size="24px" font-style="normal" font-weight="normal" text-decoration="none" x="1200" y="150">UNREGISTERED</text><text fill="#eeeeee" stroke="none" font-family="Arial" font-size="24px" font-style="normal" font-weight="normal" text-decoration="none" x="1200" y="180">UNREGISTERED</text><text fill="#eeeeee" stroke="none" font-family="Arial" font-size="24px" font-style="normal" font-weight="normal" text-decoration="none" x="1200" y="210">UNREGISTERED</text><text fill="#eeeeee" stroke="none" font-family="Arial" font-size="24px" font-style="normal" font-weight="normal" text-decoration="none" x="1200" y="240">UNREGISTERED</text><text fill="#eeeeee" stroke="none" font-family="Arial" font-size="24px" font-style="normal" font-weight="normal" text-decoration="none" x="1200" y="270">UNREGISTERED</text><text fill="#eeeeee" stroke="none" font-family="Arial" font-size="24px" font-style="normal" font-weight="normal" text-decoration="none" x="1200" y="300">UNREGISTERED</text><text fill="#eeeeee" stroke="none" font-family="Arial" font-size="24px" font-style="normal" font-weight="normal" text-decoration="none" x="1200" y="330">UNREGISTERED</text><text fill="#eeeeee" stroke="none" font-family="Arial" font-size="24px" font-style="normal" font-weight="normal" text-decoration="none" x="1200" y="360">UNREGISTERED</text><text fill="#eeeeee" stroke="none" font-family="Arial" font-size="24px" font-style="normal" font-weight="normal" text-decoration="none" x="1200" y="390">UNREGISTERED</text><text fill="#eeeeee" stroke="none" font-family="Arial" font-size="24px" font-style="normal" font-weight="normal" text-decoration="none" x="1200" y="420">UNREGISTERED</text><text fill="#eeeeee" stroke="none" font-family="Arial" font-size="24px" font-style="normal" font-weight="normal" text-decoration="none" x="1200" y="450">UNREGISTERED</text><text fill="#eeeeee" stroke="none" font-family="Arial" font-size="24px" font-style="normal" font-weight="normal" text-decoration="none" x="1200" y="480">UNREGISTERED</text><text fill="#eeeeee" stroke="none" font-family="Arial" font-size="24px" font-style="normal" font-weight="normal" text-decoration="none" x="1200" y="510">UNREGISTERED</text><text fill="#eeeeee" stroke="none" font-family="Arial" font-size="24px" font-style="normal" font-weight="normal" text-decoration="none" x="1200" y="540">UNREGISTERED</text><text fill="#eeeeee" stroke="none" font-family="Arial" font-size="24px" font-style="normal" font-weight="normal" text-decoration="none" x="1400" y="0">UNREGISTERED</text><text fill="#eeeeee" stroke="none" font-family="Arial" font-size="24px" font-style="normal" font-weight="normal" text-decoration="none" x="1400" y="30">UNREGISTERED</text><text fill="#eeeeee" stroke="none" font-family="Arial" font-size="24px" font-style="normal" font-weight="normal" text-decoration="none" x="1400" y="60">UNREGISTERED</text><text fill="#eeeeee" stroke="none" font-family="Arial" font-size="24px" font-style="normal" font-weight="normal" text-decoration="none" x="1400" y="90">UNREGISTERED</text><text fill="#eeeeee" stroke="none" font-family="Arial" font-size="24px" font-style="normal" font-weight="normal" text-decoration="none" x="1400" y="120">UNREGISTERED</text><text fill="#eeeeee" stroke="none" font-family="Arial" font-size="24px" font-style="normal" font-weight="normal" text-decoration="none" x="1400" y="150">UNREGISTERED</text><text fill="#eeeeee" stroke="none" font-family="Arial" font-size="24px" font-style="normal" font-weight="normal" text-decoration="none" x="1400" y="180">UNREGISTERED</text><text fill="#eeeeee" stroke="none" font-family="Arial" font-size="24px" font-style="normal" font-weight="normal" text-decoration="none" x="1400" y="210">UNREGISTERED</text><text fill="#eeeeee" stroke="none" font-family="Arial" font-size="24px" font-style="normal" font-weight="normal" text-decoration="none" x="1400" y="240">UNREGISTERED</text><text fill="#eeeeee" stroke="none" font-family="Arial" font-size="24px" font-style="normal" font-weight="normal" text-decoration="none" x="1400" y="270">UNREGISTERED</text><text fill="#eeeeee" stroke="none" font-family="Arial" font-size="24px" font-style="normal" font-weight="normal" text-decoration="none" x="1400" y="300">UNREGISTERED</text><text fill="#eeeeee" stroke="none" font-family="Arial" font-size="24px" font-style="normal" font-weight="normal" text-decoration="none" x="1400" y="330">UNREGISTERED</text><text fill="#eeeeee" stroke="none" font-family="Arial" font-size="24px" font-style="normal" font-weight="normal" text-decoration="none" x="1400" y="360">UNREGISTERED</text><text fill="#eeeeee" stroke="none" font-family="Arial" font-size="24px" font-style="normal" font-weight="normal" text-decoration="none" x="1400" y="390">UNREGISTERED</text><text fill="#eeeeee" stroke="none" font-family="Arial" font-size="24px" font-style="normal" font-weight="normal" text-decoration="none" x="1400" y="420">UNREGISTERED</text><text fill="#eeeeee" stroke="none" font-family="Arial" font-size="24px" font-style="normal" font-weight="normal" text-decoration="none" x="1400" y="450">UNREGISTERED</text><text fill="#eeeeee" stroke="none" font-family="Arial" font-size="24px" font-style="normal" font-weight="normal" text-decoration="none" x="1400" y="480">UNREGISTERED</text><text fill="#eeeeee" stroke="none" font-family="Arial" font-size="24px" font-style="normal" font-weight="normal" text-decoration="none" x="1400" y="510">UNREGISTERED</text><text fill="#eeeeee" stroke="none" font-family="Arial" font-size="24px" font-style="normal" font-weight="normal" text-decoration="none" x="1400" y="540">UNREGISTERED</text><g transform="translate(-118,-206) scale(1,1)"><path fill="#C0C0C0" stroke="none" d="M 135 472.5 C 135 467.2532944 139.2532944 463 144.5 463 C 149.7467056 463 154 467.2532944 154 472.5 C 154 477.7467056 149.7467056 482 144.5 482 C 139.2532944 482 135 477.7467056 135 472.5 Z" opacity="0.2"/></g><g transform="translate(-118,-206) scale(1,1)"><path fill="#000000" stroke="none" d="M 128 465.5 C 128 460.2532944 132.2532944 456 137.5 456 C 142.7467056 456 147 460.2532944 147 465.5 C 147 470.7467056 142.7467056 475 137.5 475 C 132.2532944 475 128 470.7467056 128 465.5 Z"/></g><g transform="translate(-118,-206) scale(1,1)"><path fill="#C0C0C0" stroke="none" d="M 441 287 L 594 287 Q 604 287 604 297 L 604 316 Q 604 326 594 326 L 441 326 Q 431 326 431 316 L 431 297 Q 431 287 441 287 Z" opacity="0.2"/></g><g transform="translate(-118,-206) scale(1,1)"><path fill="#ffffff" stroke="none" d="M 434 280 L 587 280 Q 597 280 597 290 L 597 309 Q 597 319 587 319 L 434 319 Q 424 319 424 309 L 424 290 Q 424 280 434 280 Z"/></g><g transform="translate(-118,-206) scale(1,1)"><path fill="none" stroke="#000000" d="M 434 280 L 587 280 Q 597 280 597 290 L 597 309 Q 597 319 587 319 L 434 319 Q 424 319 424 309 L 424 290 Q 424 280 434 280 Z" stroke-miterlimit="10"/></g><g transform="translate(-118,-206) scale(1,1)"><g><path fill="none" stroke="none"/><text fill="#000000" stroke="none" font-family="Arial" font-size="13px" font-style="normal" font-weight="bold" text-decoration="none" x="428.5" y="298">Executar ordem de venda</text></g></g><g transform="translate(-118,-206) scale(1,1)"><path fill="none" stroke="#000000" d="M 137 456 L 137 296 L 424 296" stroke-miterlimit="10"/></g><g transform="translate(-118,-206) scale(1,1)"><path fill="none" stroke="#000000" d="M 413.83732514237585 300.209517756016 L 424 296 L 413.83732514237585 291.790482243984" stroke-miterlimit="10"/></g><g transform="translate(-118,-206) scale(1,1)"><g><path fill="none" stroke="none"/><text fill="#000000" stroke="none" font-family="Arial" font-size="13px" font-style="normal" font-weight="normal" text-decoration="none" x="152.79345703125" y="286"> [Recebe solicitação de ordem de venda]</text></g></g><g transform="translate(-118,-206) scale(1,1)"><path fill="#C0C0C0" stroke="none" d="M 929 287 L 1109 287 Q 1119 287 1119 297 L 1119 316 Q 1119 326 1109 326 L 929 326 Q 919 326 919 316 L 919 297 Q 919 287 929 287 Z" opacity="0.2"/></g><g transform="translate(-118,-206) scale(1,1)"><path fill="#ffffff" stroke="none" d="M 922 280 L 1102 280 Q 1112 280 1112 290 L 1112 309 Q 1112 319 1102 319 L 922 319 Q 912 319 912 309 L 912 290 Q 912 280 922 280 Z"/></g><g transform="translate(-118,-206) scale(1,1)"><path fill="none" stroke="#000000" d="M 922 280 L 1102 280 Q 1112 280 1112 290 L 1112 309 Q 1112 319 1102 319 L 922 319 Q 912 319 912 309 L 912 290 Q 912 280 922 280 Z" stroke-miterlimit="10"/></g><g transform="translate(-118,-206) scale(1,1)"><g><path fill="none" stroke="none"/><text fill="#000000" stroke="none" font-family="Arial" font-size="13px" font-style="normal" font-weight="bold" text-decoration="none" x="916.5" y="298">Validação da ordem de venda</text></g></g><g transform="translate(-118,-206) scale(1,1)"><path fill="none" stroke="#000000" d="M 597 296 L 912 296" stroke-miterlimit="10"/></g><g transform="translate(-118,-206) scale(1,1)"><path fill="none" stroke="#000000" d="M 901.8373251423759 300.209517756016 L 912 296 L 901.8373251423758 291.790482243984" stroke-miterlimit="10"/></g><g transform="translate(-118,-206) scale(1,1)"><g><path fill="none" stroke="none"/><text fill="#000000" stroke="none" font-family="Arial" font-size="13px" font-style="normal" font-weight="normal" text-decoration="none" x="611.5" y="286"> [Envia e aguarda a resposta a solicitação da B3]</text></g></g><g transform="translate(-118,-206) scale(1,1)"><path fill="#C0C0C0" stroke="none" d="M 1503 467.5 C 1503 460.59644 1508.59644 455 1515.5 455 C 1522.40356 455 1528 460.59644 1528 467.5 C 1528 474.40356 1522.40356 480 1515.5 480 C 1508.59644 480 1503 474.40356 1503 467.5 Z" opacity="0.2"/></g><g transform="translate(-118,-206) scale(1,1)"><path fill="none" stroke="#000000" d="M 1496 460.5 C 1496 453.59644 1501.59644 448 1508.5 448 C 1515.40356 448 1521 453.59644 1521 460.5 C 1521 467.40356 1515.40356 473 1508.5 473 C 1501.59644 473 1496 467.40356 1496 460.5 Z" stroke-miterlimit="10"/></g><g transform="translate(-118,-206) scale(1,1)"><path fill="#000000" stroke="none" d="M 1501 460.5 C 1501 456.357864 1504.357864 453 1508.5 453 C 1512.642136 453 1516 456.357864 1516 460.5 C 1516 464.642136 1512.642136 468 1508.5 468 C 1504.357864 468 1501 464.642136 1501 460.5 Z"/></g><g transform="translate(-118,-206) scale(1,1)"><path fill="none" stroke="#000000" d="M 1112 304 L 1508 304 L 1508 448" stroke-miterlimit="10"/></g><g transform="translate(-118,-206) scale(1,1)"><path fill="none" stroke="#000000" d="M 1503.7904822439841 437.83732514237585 L 1508 448 L 1512.2095177560159 437.83732514237585" stroke-miterlimit="10"/></g><g transform="translate(-118,-206) scale(1,1)"><g><path fill="none" stroke="none"/><text fill="#000000" stroke="none" font-family="Arial" font-size="13px" font-style="normal" font-weight="normal" text-decoration="none" x="1256.862060546875" y="290"> [ Ordem de compra aprovada]</text></g></g><g transform="translate(-118,-206) scale(1,1)"><path fill="none" stroke="#000000" d="M 936 280 L 936 216 L 560 216 L 560 280" stroke-miterlimit="10"/></g><g transform="translate(-118,-206) scale(1,1)"><path fill="none" stroke="#000000" d="M 555.790482243984 269.83732514237585 L 560 280 L 564.209517756016 269.83732514237585" stroke-miterlimit="10"/></g><g transform="translate(-118,-206) scale(1,1)"><g><path fill="none" stroke="none"/><text fill="#000000" stroke="none" font-family="Arial" font-size="13px" font-style="normal" font-weight="normal" text-decoration="none" x="641.231201171875" y="236"> [Ordem de venda recusada pela B3]</text></g></g><g transform="translate(-118,-206) scale(1,1)"><path fill="#C0C0C0" stroke="none" d="M 545 447 L 701 447 Q 711 447 711 457 L 711 476 Q 711 486 701 486 L 545 486 Q 535 486 535 476 L 535 457 Q 535 447 545 447 Z" opacity="0.2"/></g><g transform="translate(-118,-206) scale(1,1)"><path fill="#ffffff" stroke="none" d="M 538 440 L 694 440 Q 704 440 704 450 L 704 469 Q 704 479 694 479 L 538 479 Q 528 479 528 469 L 528 450 Q 528 440 538 440 Z"/></g><g transform="translate(-118,-206) scale(1,1)"><path fill="none" stroke="#000000" d="M 538 440 L 694 440 Q 704 440 704 450 L 704 469 Q 704 479 694 479 L 538 479 Q 528 479 528 469 L 528 450 Q 528 440 538 440 Z" stroke-miterlimit="10"/></g><g transform="translate(-118,-206) scale(1,1)"><g><path fill="none" stroke="none"/><text fill="#000000" stroke="none" font-family="Arial" font-size="13px" font-style="normal" font-weight="bold" text-decoration="none" x="532.5" y="458">Modificar ordem de venda</text></g></g><g transform="translate(-118,-206) scale(1,1)"><path fill="none" stroke="#000000" d="M 147 465 L 528 465" stroke-miterlimit="10"/></g><g transform="translate(-118,-206) scale(1,1)"><path fill="none" stroke="#000000" d="M 517.8373251423759 469.209517756016 L 528 465 L 517.8373251423758 460.790482243984" stroke-miterlimit="10"/></g><g transform="translate(-118,-206) scale(1,1)"><g><path fill="none" stroke="none"/><text fill="#000000" stroke="none" font-family="Arial" font-size="13px" font-style="normal" font-weight="normal" text-decoration="none" x="168.098388671875" y="455"> [Recebe solicitação para modificação da ordem de venda]</text></g></g><g transform="translate(-118,-206) scale(1,1)"><path fill="#C0C0C0" stroke="none" d="M 969 447 L 1141 447 Q 1151 447 1151 457 L 1151 476 Q 1151 486 1141 486 L 969 486 Q 959 486 959 476 L 959 457 Q 959 447 969 447 Z" opacity="0.2"/></g><g transform="translate(-118,-206) scale(1,1)"><path fill="#ffffff" stroke="none" d="M 962 440 L 1134 440 Q 1144 440 1144 450 L 1144 469 Q 1144 479 1134 479 L 962 479 Q 952 479 952 469 L 952 450 Q 952 440 962 440 Z"/></g><g transform="translate(-118,-206) scale(1,1)"><path fill="none" stroke="#000000" d="M 962 440 L 1134 440 Q 1144 440 1144 450 L 1144 469 Q 1144 479 1134 479 L 962 479 Q 952 479 952 469 L 952 450 Q 952 440 962 440 Z" stroke-miterlimit="10"/></g><g transform="translate(-118,-206) scale(1,1)"><g><path fill="none" stroke="none"/><text fill="#000000" stroke="none" font-family="Arial" font-size="13px" font-style="normal" font-weight="bold" text-decoration="none" x="956.5" y="458">Aprovação para modificação</text></g></g><g transform="translate(-118,-206) scale(1,1)"><path fill="none" stroke="#000000" d="M 705 459 L 951 459" stroke-miterlimit="10"/></g><g transform="translate(-118,-206) scale(1,1)"><path fill="none" stroke="#000000" d="M 940.8373251423759 463.209517756016 L 951 459 L 940.8373251423758 454.790482243984" stroke-miterlimit="10"/></g><g transform="translate(-118,-206) scale(1,1)"><g><path fill="none" stroke="none"/><text fill="#000000" stroke="none" font-family="Arial" font-size="13px" font-style="normal" font-weight="normal" text-decoration="none" x="708.5" y="449"> [Aguarda a solicitação para modificação]</text></g></g><g transform="translate(-118,-206) scale(1,1)"><path fill="none" stroke="#000000" d="M 1145 459 L 1495 460" stroke-miterlimit="10"/></g><g transform="translate(-118,-206) scale(1,1)"><path fill="none" stroke="#000000" d="M 1484.825339477929 464.1804644790516 L 1495 460 L 1484.8493937669257 455.76146333021944" stroke-miterlimit="10"/></g><g transform="translate(-118,-206) scale(1,1)"><g><path fill="none" stroke="none"/><text fill="#000000" stroke="none" font-family="Arial" font-size="13px" font-style="normal" font-weight="normal" text-decoration="none" x="1199.540283203125" y="449"> [Ordem de venda já pode ser modificada]</text></g></g><g transform="translate(-118,-206) scale(1,1)"><path fill="none" stroke="#000000" d="M 984 479 L 984 552 L 656 552 L 656 479" stroke-miterlimit="10"/></g><g transform="translate(-118,-206) scale(1,1)"><path fill="none" stroke="#000000" d="M 660.209517756016 489.16267485762415 L 656 479 L 651.790482243984 489.16267485762415" stroke-miterlimit="10"/></g><g transform="translate(-118,-206) scale(1,1)"><g><path fill="none" stroke="none"/><text fill="#000000" stroke="none" font-family="Arial" font-size="13px" font-style="normal" font-weight="normal" text-decoration="none" x="688.526611328125" y="546"> [A ordem de venda não pode ser modificada]</text></g></g><g transform="translate(-118,-206) scale(1,1)"><path fill="#C0C0C0" stroke="none" d="M 545 615 L 699 615 Q 709 615 709 625 L 709 644 Q 709 654 699 654 L 545 654 Q 535 654 535 644 L 535 625 Q 535 615 545 615 Z" opacity="0.2"/></g><g transform="translate(-118,-206) scale(1,1)"><path fill="#ffffff" stroke="none" d="M 538 608 L 692 608 Q 702 608 702 618 L 702 637 Q 702 647 692 647 L 538 647 Q 528 647 528 637 L 528 618 Q 528 608 538 608 Z"/></g><g transform="translate(-118,-206) scale(1,1)"><path fill="none" stroke="#000000" d="M 538 608 L 692 608 Q 702 608 702 618 L 702 637 Q 702 647 692 647 L 538 647 Q 528 647 528 637 L 528 618 Q 528 608 538 608 Z" stroke-miterlimit="10"/></g><g transform="translate(-118,-206) scale(1,1)"><g><path fill="none" stroke="none"/><text fill="#000000" stroke="none" font-family="Arial" font-size="13px" font-style="normal" font-weight="bold" text-decoration="none" x="532.5" y="626">Cancelar ordem de venda</text></g></g><g transform="translate(-118,-206) scale(1,1)"><path fill="none" stroke="#000000" d="M 137 475 L 137 624 L 528 624" stroke-miterlimit="10"/></g><g transform="translate(-118,-206) scale(1,1)"><path fill="none" stroke="#000000" d="M 517.8373251423759 628.209517756016 L 528 624 L 517.8373251423758 619.790482243984" stroke-miterlimit="10"/></g><g transform="translate(-118,-206) scale(1,1)"><g><path fill="none" stroke="none"/><text fill="#000000" stroke="none" font-family="Arial" font-size="13px" font-style="normal" font-weight="normal" text-decoration="none" x="159.88427734375" y="614"> [Recebe solicitação para cancelamento de ordem de venda]</text></g></g><g transform="translate(-118,-206) scale(1,1)"><path fill="#C0C0C0" stroke="none" d="M 1089 615 L 1255 615 Q 1265 615 1265 625 L 1265 644 Q 1265 654 1255 654 L 1089 654 Q 1079 654 1079 644 L 1079 625 Q 1079 615 1089 615 Z" opacity="0.2"/></g><g transform="translate(-118,-206) scale(1,1)"><path fill="#ffffff" stroke="none" d="M 1082 608 L 1248 608 Q 1258 608 1258 618 L 1258 637 Q 1258 647 1248 647 L 1082 647 Q 1072 647 1072 637 L 1072 618 Q 1072 608 1082 608 Z"/></g><g transform="translate(-118,-206) scale(1,1)"><path fill="none" stroke="#000000" d="M 1082 608 L 1248 608 Q 1258 608 1258 618 L 1258 637 Q 1258 647 1248 647 L 1082 647 Q 1072 647 1072 637 L 1072 618 Q 1072 608 1082 608 Z" stroke-miterlimit="10"/></g><g transform="translate(-118,-206) scale(1,1)"><g><path fill="none" stroke="none"/><text fill="#000000" stroke="none" font-family="Arial" font-size="13px" font-style="normal" font-weight="bold" text-decoration="none" x="1076.5" y="626">Validação do cancelamento</text></g></g><g transform="translate(-118,-206) scale(1,1)"><path fill="none" stroke="#000000" d="M 703 627 L 1071 627" stroke-miterlimit="10"/></g><g transform="translate(-118,-206) scale(1,1)"><path fill="none" stroke="#000000" d="M 1060.837325142376 631.209517756016 L 1071 627 L 1060.837325142376 622.790482243984" stroke-miterlimit="10"/></g><g transform="translate(-118,-206) scale(1,1)"><g><path fill="none" stroke="none"/><text fill="#000000" stroke="none" font-family="Arial" font-size="13px" font-style="normal" font-weight="normal" text-decoration="none" x="708.5" y="617"> [Aguarda a resposta para a solicitação para o cancelamento]</text></g></g><g transform="translate(-118,-206) scale(1,1)"><path fill="none" stroke="#000000" d="M 1258 627 L 1508 627 L 1508 473" stroke-miterlimit="10"/></g><g transform="translate(-118,-206) scale(1,1)"><path fill="none" stroke="#000000" d="M 1512.2095177560159 483.16267485762415 L 1508 473 L 1503.7904822439841 483.16267485762415" stroke-miterlimit="10"/></g><g transform="translate(-118,-206) scale(1,1)"><g><path fill="none" stroke="none"/><text fill="#000000" stroke="none" font-family="Arial" font-size="13px" font-style="normal" font-weight="normal" text-decoration="none" x="1295.145751953125" y="619"> [A ordem de venda foi cancelada]</text></g></g><g transform="translate(-118,-206) scale(1,1)"><path fill="none" stroke="#000000" d="M 1128 647 L 1128 744 L 648 744 L 648 647" stroke-miterlimit="10"/></g><g transform="translate(-118,-206) scale(1,1)"><path fill="none" stroke="#000000" d="M 652.209517756016 657.1626748576241 L 648 647 L 643.790482243984 657.1626748576241" stroke-miterlimit="10"/></g><g transform="translate(-118,-206) scale(1,1)"><g><path fill="none" stroke="none"/><text fill="#000000" stroke="none" font-family="Arial" font-size="13px" font-style="normal" font-weight="normal" text-decoration="none" x="761.526611328125" y="738"> [Ordem de venda não pode ser cancelada]</text></g></g></g></svg>