<svg version="1.1" xmlns="http://www.w3.org/2000/svg" xmlns:xlink="http://www.w3.org/1999/xlink" width="1397" height="178"><defs/><g><text fill="#eeeeee" stroke="none" font-family="Arial" font-size="24px" font-style="normal" font-weight="normal" text-decoration="none" x="0" y="0">UNREGISTERED</text><text fill="#eeeeee" stroke="none" font-family="Arial" font-size="24px" font-style="normal" font-weight="normal" text-decoration="none" x="0" y="30">UNREGISTERED</text><text fill="#eeeeee" stroke="none" font-family="Arial" font-size="24px" font-style="normal" font-weight="normal" text-decoration="none" x="0" y="60">UNREGISTERED</text><text fill="#eeeeee" stroke="none" font-family="Arial" font-size="24px" font-style="normal" font-weight="normal" text-decoration="none" x="0" y="90">UNREGISTERED</text><text fill="#eeeeee" stroke="none" font-family="Arial" font-size="24px" font-style="normal" font-weight="normal" text-decoration="none" x="0" y="120">UNREGISTERED</text><text fill="#eeeeee" stroke="none" font-family="Arial" font-size="24px" font-style="normal" font-weight="normal" text-decoration="none" x="0" y="150">UNREGISTERED</text><text fill="#eeeeee" stroke="none" font-family="Arial" font-size="24px" font-style="normal" font-weight="normal" text-decoration="none" x="200" y="0">UNREGISTERED</text><text fill="#eeeeee" stroke="none" font-family="Arial" font-size="24px" font-style="normal" font-weight="normal" text-decoration="none" x="200" y="30">UNREGISTERED</text><text fill="#eeeeee" stroke="none" font-family="Arial" font-size="24px" font-style="normal" font-weight="normal" text-decoration="none" x="200" y="60">UNREGISTERED</text><text fill="#eeeeee" stroke="none" font-family="Arial" font-size="24px" font-style="normal" font-weight="normal" text-decoration="none" x="200" y="90">UNREGISTERED</text><text fill="#eeeeee" stroke="none" font-family="Arial" font-size="24px" font-style="normal" font-weight="normal" text-decoration="none" x="200" y="120">UNREGISTERED</text><text fill="#eeeeee" stroke="none" font-family="Arial" font-size="24px" font-style="normal" font-weight="normal" text-decoration="none" x="200" y="150">UNREGISTERED</text><text fill="#eeeeee" stroke="none" font-family="Arial" font-size="24px" font-style="normal" font-weight="normal" text-decoration="none" x="400" y="0">UNREGISTERED</text><text fill="#eeeeee" stroke="none" font-family="Arial" font-size="24px" font-style="normal" font-weight="normal" text-decoration="none" x="400" y="30">UNREGISTERED</text><text fill="#eeeeee" stroke="none" font-family="Arial" font-size="24px" font-style="normal" font-weight="normal" text-decoration="none" x="400" y="60">UNREGISTERED</text><text fill="#eeeeee" stroke="none" font-family="Arial" font-size="24px" font-style="normal" font-weight="normal" text-decoration="none" x="400" y="90">UNREGISTERED</text><text fill="#eeeeee" stroke="none" font-family="Arial" font-size="24px" font-style="normal" font-weight="normal" text-decoration="none" x="400" y="120">UNREGISTERED</text><text fill="#eeeeee" stroke="none" font-family="Arial" font-size="24px" font-style="normal" font-weight="normal" text-decoration="none" x="400" y="150">UNREGISTERED</text><text fill="#eeeeee" stroke="none" font-family="Arial" font-size="24px" font-style="normal" font-weight="normal" text-decoration="none" x="600" y="0">UNREGISTERED</text><text fill="#eeeeee" stroke="none" font-family="Arial" font-size="24px" font-style="normal" font-weight="normal" text-decoration="none" x="600" y="30">UNREGISTERED</text><text fill="#eeeeee" stroke="none" font-family="Arial" font-size="24px" font-style="normal" font-weight="normal" text-decoration="none" x="600" y="60">UNREGISTERED</text><text fill="#eeeeee" stroke="none" font-family="Arial" font-size="24px" font-style="normal" font-weight="normal" text-decoration="none" x="600" y="90">UNREGISTERED</text><text fill="#eeeeee" stroke="none" font-family="Arial" font-size="24px" font-style="normal" font-weight="normal" text-decoration="none" x="600" y="120">UNREGISTERED</text><text fill="#eeeeee" stroke="none" font-family="Arial" font-size="24px" font-style="normal" font-weight="normal" text-decoration="none" x="600" y="150">UNREGISTERED</text><text fill="#eeeeee" stroke="none" font-family="Arial" font-size="24px" font-style="normal" font-weight="normal" text-decoration="none" x="800" y="0">UNREGISTERED</text><text fill="#eeeeee" stroke="none" font-family="Arial" font-size="24px" font-style="normal" font-weight="normal" text-decoration="none" x="800" y="30">UNREGISTERED</text><text fill="#eeeeee" stroke="none" font-family="Arial" font-size="24px" font-style="normal" font-weight="normal" text-decoration="none" x="800" y="60">UNREGISTERED</text><text fill="#eeeeee" stroke="none" font-family="Arial" font-size="24px" font-style="normal" font-weight="normal" text-decoration="none" x="800" y="90">UNREGISTERED</text><text fill="#eeeeee" stroke="none" font-family="Arial" font-size="24px" font-style="normal" font-weight="normal" text-decoration="none" x="800" y="120">UNREGISTERED</text><text fill="#eeeeee" stroke="none" font-family="Arial" font-size="24px" font-style="normal" font-weight="normal" text-decoration="none" x="800" y="150">UNREGISTERED</text><text fill="#eeeeee" stroke="none" font-family="Arial" font-size="24px" font-style="normal" font-weight="normal" text-decoration="none" x="1000" y="0">UNREGISTERED</text><text fill="#eeeeee" stroke="none" font-family="Arial" font-size="24px" font-style="normal" font-weight="normal" text-decoration="none" x="1000" y="30">UNREGISTERED</text><text fill="#eeeeee" stroke="none" font-family="Arial" font-size="24px" font-style="normal" font-weight="normal" text-decoration="none" x="1000" y="60">UNREGISTERED</text><text fill="#eeeeee" stroke="none" font-family="Arial" font-size="24px" font-style="normal" font-weight="normal" text-decoration="none" x="1000" y="90">UNREGISTERED</text><text fill="#eeeeee" stroke="none" font-family="Arial" font-size="24px" font-style="normal" font-weight="normal" text-decoration="none" x="1000" y="120">UNREGISTERED</text><text fill="#eeeeee" stroke="none" font-family="Arial" font-size="24px" font-style="normal" font-weight="normal" text-decoration="none" x="1000" y="150">UNREGISTERED</text><text fill="#eeeeee" stroke="none" font-family="Arial" font-size="24px" font-style="normal" font-weight="normal" text-decoration="none" x="1200" y="0">UNREGISTERED</text><text fill="#eeeeee" stroke="none" font-family="Arial" font-size="24px" font-style="normal" font-weight="normal" text-decoration="none" x="1200" y="30">UNREGISTERED</text><text fill="#eeeeee" stroke="none" font-family="Arial" font-size="24px" font-style="normal" font-weight="normal" text-decoration="none" x="1200" y="60">UNREGISTERED</text><text fill="#eeeeee" stroke="none" font-family="Arial" font-size="24px" font-style="normal" font-weight="normal" text-decoration="none" x="1200" y="90">UNREGISTERED</text><text fill="#eeeeee" stroke="none" font-family="Arial" font-size="24px" font-style="normal" font-weight="normal" text-decoration="none" x="1200" y="120">UNREGISTERED</text><text fill="#eeeeee" stroke="none" font-family="Arial" font-size="24px" font-style="normal" font-weight="normal" text-decoration="none" x="1200" y="150">UNREGISTERED</text><g transform="translate(-150,-389) scale(1,1)"><path fill="#C0C0C0" stroke="none" d="M 167 432.5 C 167 427.2532944 171.2532944 423 176.5 423 C 181.7467056 423 186 427.2532944 186 432.5 C 186 437.7467056 181.7467056 442 176.5 442 C 171.2532944 442 167 437.7467056 167 432.5 Z" opacity="0.2"/></g><g transform="translate(-150,-389) scale(1,1)"><path fill="#000000" stroke="none" d="M 160 425.5 C 160 420.2532944 164.2532944 416 169.5 416 C 174.7467056 416 179 420.2532944 179 425.5 C 179 430.7467056 174.7467056 435 169.5 435 C 164.2532944 435 160 430.7467056 160 425.5 Z"/></g><g transform="translate(-150,-389) scale(1,1)"><path fill="#C0C0C0" stroke="none" d="M 545 415 L 706 415 Q 716 415 716 425 L 716 444 Q 716 454 706 454 L 545 454 Q 535 454 535 444 L 535 425 Q 535 415 545 415 Z" opacity="0.2"/></g><g transform="translate(-150,-389) scale(1,1)"><path fill="#ffffff" stroke="none" d="M 538 408 L 699 408 Q 709 408 709 418 L 709 437 Q 709 447 699 447 L 538 447 Q 528 447 528 437 L 528 418 Q 528 408 538 408 Z"/></g><g transform="translate(-150,-389) scale(1,1)"><path fill="none" stroke="#000000" d="M 538 408 L 699 408 Q 709 408 709 418 L 709 437 Q 709 447 699 447 L 538 447 Q 528 447 528 437 L 528 418 Q 528 408 538 408 Z" stroke-miterlimit="10"/></g><g transform="translate(-150,-389) scale(1,1)"><g><path fill="none" stroke="none"/><text fill="#000000" stroke="none" font-family="Arial" font-size="13px" font-style="normal" font-weight="bold" text-decoration="none" x="534.5" y="426">Executa Vizualizar extrato</text></g></g><g transform="translate(-150,-389) scale(1,1)"><path fill="none" stroke="#000000" d="M 179 427 L 528 427" stroke-miterlimit="10"/></g><g transform="translate(-150,-389) scale(1,1)"><path fill="none" stroke="#000000" d="M 517.8373251423759 431.209517756016 L 528 427 L 517.8373251423758 422.790482243984" stroke-miterlimit="10"/></g><g transform="translate(-150,-389) scale(1,1)"><g><path fill="none" stroke="none"/><text fill="#000000" stroke="none" font-family="Arial" font-size="13px" font-style="normal" font-weight="normal" text-decoration="none" x="232.5" y="417"> [Recebe solicitação de vizualizar extrato]</text></g></g><g transform="translate(-150,-389) scale(1,1)"><path fill="#C0C0C0" stroke="none" d="M 1065 415 L 1139 415 Q 1149 415 1149 425 L 1149 444 Q 1149 454 1139 454 L 1065 454 Q 1055 454 1055 444 L 1055 425 Q 1055 415 1065 415 Z" opacity="0.2"/></g><g transform="translate(-150,-389) scale(1,1)"><path fill="#ffffff" stroke="none" d="M 1058 408 L 1132 408 Q 1142 408 1142 418 L 1142 437 Q 1142 447 1132 447 L 1058 447 Q 1048 447 1048 437 L 1048 418 Q 1048 408 1058 408 Z"/></g><g transform="translate(-150,-389) scale(1,1)"><path fill="none" stroke="#000000" d="M 1058 408 L 1132 408 Q 1142 408 1142 418 L 1142 437 Q 1142 447 1132 447 L 1058 447 Q 1048 447 1048 437 L 1048 418 Q 1048 408 1058 408 Z" stroke-miterlimit="10"/></g><g transform="translate(-150,-389) scale(1,1)"><g><path fill="none" stroke="none"/><text fill="#000000" stroke="none" font-family="Arial" font-size="13px" font-style="normal" font-weight="bold" text-decoration="none" x="1052.5" y="426">Gerar extrato</text></g></g><g transform="translate(-150,-389) scale(1,1)"><path fill="none" stroke="#000000" d="M 710 427 L 1047 427" stroke-miterlimit="10"/></g><g transform="translate(-150,-389) scale(1,1)"><path fill="none" stroke="#000000" d="M 1036.837325142376 431.209517756016 L 1047 427 L 1036.837325142376 422.790482243984" stroke-miterlimit="10"/></g><g transform="translate(-150,-389) scale(1,1)"><g><path fill="none" stroke="none"/><text fill="#000000" stroke="none" font-family="Arial" font-size="13px" font-style="normal" font-weight="normal" text-decoration="none" x="787.5" y="417"> [Busca transações realizadas]</text></g></g><g transform="translate(-150,-389) scale(1,1)"><path fill="#C0C0C0" stroke="none" d="M 1519 427.5 C 1519 420.59644 1524.59644 415 1531.5 415 C 1538.40356 415 1544 420.59644 1544 427.5 C 1544 434.40356 1538.40356 440 1531.5 440 C 1524.59644 440 1519 434.40356 1519 427.5 Z" opacity="0.2"/></g><g transform="translate(-150,-389) scale(1,1)"><path fill="none" stroke="#000000" d="M 1512 420.5 C 1512 413.59644 1517.59644 408 1524.5 408 C 1531.40356 408 1537 413.59644 1537 420.5 C 1537 427.40356 1531.40356 433 1524.5 433 C 1517.59644 433 1512 427.40356 1512 420.5 Z" stroke-miterlimit="10"/></g><g transform="translate(-150,-389) scale(1,1)"><path fill="#000000" stroke="none" d="M 1517 420.5 C 1517 416.357864 1520.357864 413 1524.5 413 C 1528.642136 413 1532 416.357864 1532 420.5 C 1532 424.642136 1528.642136 428 1524.5 428 C 1520.357864 428 1517 424.642136 1517 420.5 Z"/></g><g transform="translate(-150,-389) scale(1,1)"><path fill="none" stroke="#000000" d="M 1142 424 L 1512 424" stroke-miterlimit="10"/></g><g transform="translate(-150,-389) scale(1,1)"><path fill="none" stroke="#000000" d="M 1501.837325142376 428.209517756016 L 1512 424 L 1501.837325142376 419.790482243984" stroke-miterlimit="10"/></g><g transform="translate(-150,-389) scale(1,1)"><g><path fill="none" stroke="none"/><text fill="#000000" stroke="none" font-family="Arial" font-size="13px" font-style="normal" font-weight="normal" text-decoration="none" x="1222.5" y="410"> [Envia extrato para o solicitante]</text></g></g><g transform="translate(-150,-389) scale(1,1)"><path fill="none" stroke="#000000" d="M 1072 447 L 1072 536 L 648 536 L 648 447" stroke-miterlimit="10"/></g><g transform="translate(-150,-389) scale(1,1)"><path fill="none" stroke="#000000" d="M 652.209517756016 457.16267485762415 L 648 447 L 643.790482243984 457.16267485762415" stroke-miterlimit="10"/></g><g transform="translate(-150,-389) scale(1,1)"><g><path fill="none" stroke="none"/><text fill="#000000" stroke="none" font-family="Arial" font-size="13px" font-style="normal" font-weight="normal" text-decoration="none" x="769.5" y="556"> [Não foi possível gerar extrato]</text></g></g></g></svg>